<svg width="280" height="80" viewBox="0 0 280 80" fill="none" xmlns="http://www.w3.org/2000/svg">
<path d="M56.443 0.0175781H9.61865C4.54285 0.0175781 0.355306 3.92336 0 8.91973C0.126895 8.91973 56.4176 8.94509 56.4176 8.94509C56.7983 8.94509 57.1282 9.24944 57.1282 9.65523V70.1442L48.5501 59.9486H35.7337V68.9014H44.4133L53.0929 79.2492H66.0362V9.68059C66.0362 4.35452 61.7218 0.0175781 56.3922 0.0175781H56.443Z" fill="#00BAAA"/>
<path d="M8.93342 59.2877V17.8965H0V59.2877C0 64.6137 4.31443 68.9253 9.64403 68.9253H26.8002V59.9725H9.64403C9.26334 59.9725 8.93342 59.6681 8.93342 59.2623V59.2877Z" fill="#6A398E"/>
<path d="M39.1849 38.7462C37.8144 40.6991 35.5303 41.9925 32.967 41.9925C28.7795 41.9925 25.3787 38.594 25.3787 34.4092C25.3787 30.2245 28.7795 26.8259 32.967 26.8259C35.5557 26.8259 37.8144 28.1194 39.1849 30.0723L48.0676 27.6882C45.4789 21.9056 39.6925 17.873 32.9417 17.873C23.8052 17.873 16.3945 25.2788 16.3945 34.4092C16.3945 43.5396 23.8052 50.9454 32.9417 50.9454C39.6925 50.9454 45.4789 46.9128 48.0676 41.1302L39.1849 38.7462Z" fill="#6A398E"/>
<path d="M86.3133 27.6869H95.2467V32.9623H79.4863V4.48047H86.3133V27.6869Z" fill="#6A398E"/>
<path d="M98.0648 15.742C98.9277 14.0174 100.095 12.6732 101.593 11.7602C103.09 10.8218 104.74 10.3652 106.592 10.3652C108.166 10.3652 109.536 10.6949 110.729 11.329C111.922 11.9631 112.835 12.8 113.47 13.8399V10.6949H120.297V32.963H113.47V29.8181C112.81 30.8579 111.871 31.6949 110.704 32.3289C109.511 32.963 108.14 33.2927 106.567 33.2927C104.765 33.2927 103.115 32.8108 101.618 31.8724C100.121 30.934 98.9531 29.5898 98.0902 27.8398C97.2273 26.0898 96.7959 24.0862 96.7959 21.8036C96.7959 19.521 97.2273 17.5174 98.0902 15.7928L98.0648 15.742ZM112.023 17.7964C111.084 16.8072 109.917 16.3254 108.572 16.3254C107.227 16.3254 106.059 16.8072 105.12 17.771C104.181 18.7348 103.699 20.079 103.699 21.7782C103.699 23.4775 104.181 24.8217 105.12 25.8362C106.059 26.8253 107.227 27.3326 108.572 27.3326C109.917 27.3326 111.084 26.8507 112.023 25.8616C112.962 24.8724 113.445 23.5282 113.445 21.829C113.445 20.1297 112.962 18.7855 112.023 17.7964Z" fill="#6A398E"/>
<path d="M144.685 12.9776C146.233 14.6769 147.02 16.9849 147.02 19.9269V32.9377H140.244V20.8399C140.244 19.3436 139.863 18.2023 139.077 17.3653C138.315 16.5537 137.275 16.1226 135.955 16.1226C134.635 16.1226 133.62 16.5283 132.833 17.3653C132.072 18.2023 131.666 19.3436 131.666 20.8399V32.9377H124.839V10.695H131.666V13.637C132.351 12.6479 133.29 11.8871 134.458 11.3037C135.625 10.7204 136.945 10.4414 138.417 10.4414C141.031 10.4414 143.112 11.2784 144.66 12.9776H144.685Z" fill="#6A398E"/>
<path d="M164.177 11.329C165.37 11.9631 166.284 12.8 166.918 13.8399V10.695H173.745V32.9123C173.745 34.9666 173.339 36.8181 172.527 38.4666C171.715 40.1405 170.471 41.4594 168.822 42.4231C167.147 43.4123 165.091 43.8942 162.604 43.8942C159.304 43.8942 156.64 43.1079 154.584 41.5608C152.528 40.0137 151.361 37.9087 151.082 35.2456H157.832C158.035 36.1079 158.543 36.7674 159.355 37.2492C160.142 37.7311 161.132 37.9848 162.299 37.9848C163.72 37.9848 164.837 37.579 165.675 36.7674C166.512 35.9558 166.944 34.6623 166.944 32.8869V29.742C166.284 30.7819 165.37 31.6188 164.177 32.2782C163.01 32.9377 161.639 33.2674 160.066 33.2674C158.239 33.2674 156.564 32.7855 155.066 31.8471C153.569 30.9087 152.401 29.5645 151.538 27.8145C150.676 26.0645 150.244 24.0609 150.244 21.7783C150.244 19.4957 150.676 17.4921 151.538 15.7674C152.401 14.0428 153.569 12.6986 155.066 11.7855C156.564 10.8471 158.213 10.3906 160.066 10.3906C161.639 10.3906 163.01 10.7203 164.203 11.3544L164.177 11.329ZM165.497 17.7964C164.558 16.8073 163.39 16.3254 162.045 16.3254C160.7 16.3254 159.533 16.8073 158.594 17.771C157.655 18.7348 157.173 20.079 157.173 21.7783C157.173 23.4775 157.655 24.8217 158.594 25.8362C159.533 26.8254 160.7 27.3326 162.045 27.3326C163.39 27.3326 164.558 26.8507 165.497 25.8616C166.436 24.8725 166.918 23.5283 166.918 21.829C166.918 20.1297 166.436 18.7855 165.497 17.7964Z" fill="#6A398E"/>
<path d="M200.368 10.6953V32.9633H193.541V29.9199C192.856 30.909 191.917 31.6952 190.724 32.3039C189.531 32.9126 188.237 33.1916 186.79 33.1916C185.09 33.1916 183.592 32.8112 182.273 32.0503C180.978 31.2894 179.963 30.1989 179.227 28.7532C178.516 27.3076 178.161 25.6336 178.161 23.6808V10.6699H184.937V22.7677C184.937 24.2641 185.318 25.4054 186.105 26.2423C186.866 27.0793 187.907 27.4851 189.226 27.4851C190.546 27.4851 191.612 27.0793 192.373 26.2423C193.135 25.4308 193.541 24.2641 193.541 22.7677V10.6699H200.368V10.6953Z" fill="#6A398E"/>
<path d="M205.062 15.742C205.925 14.0174 207.092 12.6732 208.59 11.7602C210.087 10.8218 211.737 10.3652 213.589 10.3652C215.163 10.3652 216.533 10.6949 217.726 11.329C218.919 11.9631 219.833 12.8 220.467 13.8399V10.6949H227.294V32.963H220.467V29.8181C219.807 30.8579 218.868 31.6949 217.701 32.3289C216.508 32.963 215.137 33.2927 213.564 33.2927C211.762 33.2927 210.112 32.8108 208.615 31.8724C207.118 30.934 205.95 29.5898 205.087 27.8398C204.224 26.0898 203.793 24.0862 203.793 21.8036C203.793 19.521 204.224 17.5174 205.087 15.7928L205.062 15.742ZM219.046 17.7964C218.107 16.8072 216.939 16.3254 215.594 16.3254C214.249 16.3254 213.082 16.8072 212.143 17.771C211.204 18.7348 210.721 20.079 210.721 21.7782C210.721 23.4775 211.204 24.8217 212.143 25.8362C213.082 26.8253 214.249 27.3326 215.594 27.3326C216.939 27.3326 218.107 26.8507 219.046 25.8616C219.985 24.8724 220.467 23.5282 220.467 21.829C220.467 20.1297 219.985 18.7855 219.046 17.7964Z" fill="#6A398E"/>
<path d="M244.655 11.329C245.848 11.9631 246.761 12.8 247.396 13.8399V10.695H254.223V32.9123C254.223 34.9666 253.817 36.8181 253.004 38.4666C252.192 40.1405 250.949 41.4594 249.299 42.4231C247.624 43.4123 245.568 43.8942 243.081 43.8942C239.782 43.8942 237.117 43.1079 235.061 41.5608C233.006 40.0137 231.838 37.9087 231.559 35.2456H238.31C238.513 36.1079 239.021 36.7674 239.833 37.2492C240.619 37.7311 241.609 37.9848 242.777 37.9848C244.198 37.9848 245.315 37.579 246.152 36.7674C246.99 35.9558 247.421 34.6623 247.421 32.8869V29.742C246.761 30.7819 245.848 31.6188 244.655 32.2782C243.487 32.9377 242.117 33.2674 240.543 33.2674C238.716 33.2674 237.041 32.7855 235.544 31.8471C234.046 30.9087 232.879 29.5645 232.016 27.8145C231.153 26.0645 230.722 24.0609 230.722 21.7783C230.722 19.4957 231.153 17.4921 232.016 15.7674C232.879 14.0428 234.046 12.6986 235.544 11.7855C237.041 10.8471 238.691 10.3906 240.543 10.3906C242.117 10.3906 243.487 10.7203 244.68 11.3544L244.655 11.329ZM245.974 17.7964C245.035 16.8073 243.868 16.3254 242.523 16.3254C241.178 16.3254 240.01 16.8073 239.071 17.771C238.132 18.7348 237.65 20.079 237.65 21.7783C237.65 23.4775 238.132 24.8217 239.071 25.8362C240.01 26.8254 241.178 27.3326 242.523 27.3326C243.868 27.3326 245.035 26.8507 245.974 25.8616C246.913 24.8725 247.396 23.5283 247.396 21.829C247.396 20.1297 246.913 18.7855 245.974 17.7964Z" fill="#6A398E"/>
<path d="M279.804 23.4522H264.348C264.45 24.8471 264.907 25.887 265.694 26.6225C266.48 27.358 267.445 27.713 268.587 27.713C270.287 27.713 271.48 27.0029 272.14 25.5572H279.398C279.018 27.0283 278.358 28.3471 277.393 29.5138C276.429 30.6804 275.211 31.5935 273.739 32.2782C272.267 32.9377 270.642 33.2674 268.841 33.2674C266.658 33.2674 264.704 32.8109 263.003 31.8724C261.303 30.934 259.958 29.6152 259.019 27.8906C258.054 26.1659 257.572 24.137 257.572 21.829C257.572 19.521 258.054 17.4921 258.994 15.7674C259.933 14.0428 261.252 12.6986 262.953 11.7855C264.653 10.8471 266.607 10.3906 268.815 10.3906C271.023 10.3906 272.876 10.8471 274.551 11.7348C276.226 12.6479 277.546 13.916 278.485 15.6152C279.424 17.2892 279.906 19.242 279.906 21.4739C279.906 22.108 279.855 22.7674 279.779 23.4775L279.804 23.4522ZM272.952 19.6478C272.952 18.4812 272.546 17.5428 271.759 16.858C270.972 16.1732 269.957 15.8181 268.764 15.8181C267.572 15.8181 266.658 16.1479 265.871 16.8073C265.084 17.4667 264.602 18.4051 264.425 19.6478H272.977H272.952Z" fill="#6A398E"/>
<path d="M80.9076 57.5897C81.8466 55.8651 83.1663 54.5209 84.8667 53.6078C86.5671 52.6694 88.4959 52.2129 90.6785 52.2129C93.4702 52.2129 95.805 52.9484 97.6831 54.394C99.5611 55.8651 100.779 57.9194 101.363 60.5824H94.1047C93.4956 58.8832 92.3027 58.0208 90.5516 58.0208C89.308 58.0208 88.2929 58.5027 87.5569 59.4665C86.8209 60.4303 86.4402 61.8252 86.4402 63.6259C86.4402 65.4266 86.8209 66.8215 87.5569 67.7853C88.2929 68.7491 89.308 69.231 90.5516 69.231C92.3027 69.231 93.4956 68.3686 94.1047 66.6694H101.363C100.779 69.2817 99.5358 71.3107 97.6577 72.807C95.7797 74.3034 93.4448 75.0389 90.6785 75.0389C88.4959 75.0389 86.5671 74.5824 84.8667 73.644C83.1663 72.7056 81.872 71.3867 80.9076 69.6621C79.9685 67.9375 79.4863 65.9085 79.4863 63.6005C79.4863 61.2926 79.9685 59.2636 80.9076 57.539V57.5897Z" fill="#6A398E"/>
<path d="M111.465 45.4668V74.7856H104.638V45.4668H111.465Z" fill="#6A398E"/>
<path d="M138.138 52.5176V74.7856H131.311V71.7421C130.626 72.7313 129.687 73.5175 128.494 74.1262C127.301 74.7349 126.007 75.0139 124.561 75.0139C122.86 75.0139 121.363 74.6334 120.043 73.8726C118.749 73.1117 117.734 72.0211 116.998 70.5755C116.287 69.1298 115.932 67.4559 115.932 65.503V52.4922H122.708V64.59C122.708 66.0863 123.089 67.2277 123.875 68.0646C124.637 68.9016 125.677 69.3074 126.997 69.3074C128.317 69.3074 129.383 68.9016 130.144 68.0646C130.905 67.253 131.311 66.0863 131.311 64.59V52.4922H138.138V52.5176Z" fill="#6A398E"/>
<path d="M152.299 53.1515C153.492 52.5175 154.863 52.1878 156.411 52.1878C158.238 52.1878 159.913 52.6443 161.41 53.5827C162.908 54.5211 164.075 55.8399 164.938 57.5646C165.801 59.2892 166.232 61.2928 166.232 63.5754C166.232 65.858 165.801 67.887 164.938 69.6116C164.075 71.3616 162.908 72.7058 161.41 73.6442C159.913 74.5826 158.263 75.0645 156.411 75.0645C154.837 75.0645 153.467 74.7602 152.299 74.1261C151.132 73.4921 150.218 72.6805 149.533 71.6406V74.7602H142.706V45.4414H149.533V55.6624C150.167 54.6225 151.081 53.7856 152.299 53.1515ZM157.883 59.5935C156.944 58.6298 155.776 58.1479 154.38 58.1479C152.985 58.1479 151.868 58.6298 150.929 59.6189C149.99 60.608 149.508 61.9522 149.508 63.6515C149.508 65.3508 149.99 66.695 150.929 67.6841C151.868 68.6732 153.035 69.1551 154.38 69.1551C155.726 69.1551 156.893 68.6479 157.857 67.6587C158.822 66.6696 159.304 65.3 159.304 63.6008C159.304 61.9015 158.822 60.5573 157.883 59.5935Z" fill="#6A398E"/>
</svg>
