<svg width="221" height="87" viewBox="0 0 221 87" fill="none" xmlns="http://www.w3.org/2000/svg">
<path d="M1.16227 86.5105L0.960938 85.5216L12.8387 83.3461L13.04 84.335L1.16227 86.5105ZM24.9178 82.0605L24.7165 81.0716L36.5943 78.8961L36.7956 79.885L24.9178 82.0605ZM48.5727 77.7095L48.3714 76.7206L60.2492 74.5451L60.4505 75.534L48.5727 77.7095ZM72.3283 73.3584L72.127 72.3695L84.0047 70.194L84.2061 71.1829L72.3283 73.3584ZM96.0838 68.9085L95.8825 67.9196C100.513 67.0296 104.237 66.1396 107.559 65.2496L107.861 66.2385C104.439 67.1285 100.714 68.0185 96.0838 68.9085ZM119.336 62.283L118.933 61.393C119.839 60.9975 120.846 60.6019 121.752 60.1075C124.47 58.8219 126.986 57.3386 129.402 55.6575L130.006 56.4486C127.59 58.1297 124.973 59.7119 122.255 60.9975C121.349 61.393 120.343 61.8874 119.437 62.283H119.336ZM138.864 48.241L138.059 47.6476C139.569 45.7688 140.978 43.8899 141.984 41.8133C140.474 42.011 138.864 42.2088 137.354 42.4066V41.4177C139.065 41.2199 140.877 40.9233 142.588 40.7255C143.092 39.6377 143.595 38.6489 143.998 37.5611L144.904 37.8578C144.602 38.7477 144.199 39.6377 143.796 40.5277C143.796 40.5277 143.998 40.5277 144.098 40.5277C145.809 40.2311 147.521 40.0333 149.232 39.7366L149.433 40.7255C147.722 41.0222 146.011 41.2199 144.3 41.5166C143.998 41.5166 143.696 41.5166 143.293 41.6155C142.085 43.8899 140.676 46.1643 138.864 48.241ZM125.275 42.9999C123.564 42.901 121.853 42.7032 120.242 42.4066C117.826 42.011 115.511 41.3188 113.397 40.3299L113.8 39.4399C115.914 40.3299 118.128 41.0221 120.443 41.4177C121.953 41.7144 123.664 41.9121 125.376 42.011V42.9999H125.275ZM161.311 38.7477L161.11 37.7589C165.035 37.0666 169.062 36.3744 172.987 35.6822L173.189 36.6711C169.263 37.3633 165.237 38.0555 161.311 38.7477ZM185.067 34.5945L184.865 33.6056C188.791 32.8145 192.717 32.1223 196.743 31.3312L196.944 32.32C193.019 33.1111 189.093 33.9022 185.067 34.5945ZM103.633 33.1111C102.627 31.8256 101.721 30.4412 101.117 28.9579C100.11 26.7823 99.6069 24.3101 99.6069 21.8379H100.613C100.613 24.2112 101.117 26.4857 102.023 28.5623C102.627 29.9467 103.432 31.2323 104.439 32.5178L103.633 33.1111ZM208.721 29.8478L208.52 28.859C212.446 28.0679 216.372 27.1779 220.297 26.2879L220.498 27.2768C216.573 28.1668 212.647 28.9579 208.721 29.8478ZM145.709 26.0901C145.507 22.1346 144.4 18.278 142.689 14.9158L143.595 14.4214C145.407 17.8824 146.514 21.9368 146.715 25.9912H145.709V26.0901ZM103.835 10.8614L103.029 10.367C105.043 7.20258 107.76 4.73038 110.981 3.14818C111.384 2.95041 111.887 2.75262 112.29 2.55485L112.693 3.44485C112.29 3.64262 111.887 3.84039 111.485 4.03816C108.465 5.52148 105.848 7.99367 103.935 10.9603L103.835 10.8614ZM135.14 6.11481C131.918 3.93928 128.093 2.45597 124.168 1.96153V0.972656C128.395 1.46709 132.321 3.04929 135.643 5.32371L135.039 6.11481H135.14Z" fill="#99E3DC"/>
</svg>
