<svg width="185" height="147" viewBox="0 0 185 147" fill="none" xmlns="http://www.w3.org/2000/svg">
<path d="M26.7904 146.482C25.9969 146.444 25.2034 146.406 24.509 146.373L24.5322 145.886C28.4997 146.074 32.4671 146.262 36.3447 146.251L36.3215 146.739C33.2398 146.739 29.962 146.681 26.7881 146.53L26.7904 146.482ZM12.6322 145.271C8.67865 144.79 4.73212 144.163 0.988533 143.447L1.30919 142.973C5.05278 143.689 8.90016 144.312 12.7568 144.74L12.7337 145.227L12.6322 145.271ZM48.2679 146.377L48.0927 145.88C51.9795 145.673 55.7741 145.316 59.5733 144.86L59.8499 145.314C56.0507 145.769 52.157 146.122 48.2702 146.328L48.2679 146.377ZM71.0608 143.695L70.6848 143.237C74.2949 142.577 77.9097 141.82 81.2291 140.999L81.7042 141.462C78.2832 142.326 74.6685 143.084 71.0584 143.743L71.0608 143.695ZM91.7827 138.567L91.2062 138.148C94.4357 137.128 97.4739 135.952 100.316 134.718L100.994 135.092C98.1519 136.327 95.0146 137.498 91.785 138.518L91.7827 138.567ZM109.135 131.127L108.355 130.797C110.907 129.402 113.265 127.901 115.327 126.336L116.208 126.623C114.146 128.187 111.689 129.684 109.135 131.127ZM121.911 121.662L121.028 121.424C122.698 119.743 124.173 118.004 125.453 116.158L126.438 116.351C125.158 118.197 123.582 119.981 121.911 121.662ZM129.782 110.838L128.795 110.694C129.676 108.877 130.461 107.008 131.151 105.036L132.143 105.083C131.45 107.104 130.663 109.022 129.782 110.838ZM133.606 99.3827L132.614 99.3356C133.002 97.4471 133.194 95.5003 133.388 93.5048L134.38 93.5519C134.283 95.6009 133.992 97.5429 133.606 99.3827ZM133.567 87.6458C133.556 85.7873 133.448 83.8752 133.349 81.768L134.341 81.8151C134.442 83.8735 134.55 85.7856 134.561 87.6441L133.57 87.597L133.567 87.6458ZM132.834 75.876C132.615 74.2031 132.498 72.4862 132.279 70.8134L132.318 69.984C132.219 69.9793 133.211 70.0264 133.211 70.0264L133.172 70.8558C133.49 72.5333 133.706 74.255 133.826 75.9231L132.834 75.876ZM131.503 64.1267C131.308 61.966 131.103 60.0004 130.988 58.2347L131.98 58.2818C132.094 60.0475 132.203 61.9596 132.497 64.125L131.505 64.0779L131.503 64.1267ZM130.869 52.3616C130.908 51.5322 130.948 50.7029 130.987 49.8735C131.026 49.0441 131.096 47.5806 131.147 46.5073L132.139 46.5544C132.088 47.6277 132.035 48.7497 131.979 49.9206C131.923 51.0915 131.9 51.5793 131.861 52.4087L130.869 52.3616ZM133.208 40.7866L132.216 40.7395C132.606 38.8022 133.193 36.9231 133.871 35.195L133.881 34.9999L134.972 35.0517L134.96 35.2956C134.18 37.0677 133.695 38.9028 133.208 40.7866ZM137.623 29.4568L136.636 29.3122C137.718 27.4566 138.999 25.6105 140.473 23.8714L141.359 24.0601C139.984 25.804 138.705 27.6013 137.623 29.4568ZM146.275 18.9151L145.392 18.6775C147.263 16.9572 149.328 15.344 151.487 13.8329L152.269 14.1146C150.11 15.6256 148.045 17.2389 146.275 18.9151ZM159.534 9.76557L158.754 9.43516C161.405 8.04528 164.348 6.76709 167.285 5.63526L167.961 6.05852C165.024 7.19035 162.182 8.42446 159.531 9.81435L159.534 9.76557ZM177.65 2.99815L177.172 2.58431C179.587 1.96558 182.097 1.44912 184.604 0.981451L184.98 1.43937C182.475 1.85825 180.062 2.4282 177.65 2.99815Z" fill="#65D6CB"/>
</svg>
