<svg width="57" height="48" viewBox="0 0 57 48" fill="none" xmlns="http://www.w3.org/2000/svg">
<path d="M3 25.6667L5.39062 17.1667M5.39062 17.1667L8.66667 5.51852C8.66667 5.51852 9.375 3 11.5 3C13.625 3 14.3333 5.51852 14.3333 5.51852L17.6094 17.1667M5.39062 17.1667H17.6094M17.6094 17.1667L20 25.6667M31.3333 37.9443L38.3076 45.5L54 28.5M28.5 14.3333H37C40.1297 14.3333 42.6667 11.7963 42.6667 8.66667C42.6667 5.53705 40.1297 3 37 3H28.5V14.3333ZM28.5 14.3333H39.8333C42.963 14.3333 45.5 16.8704 45.5 20C45.5 23.1297 42.963 25.6667 39.8333 25.6667H28.5V14.3333Z" stroke="#00BAAA" stroke-width="5" stroke-linecap="round" stroke-linejoin="round"/>
</svg>
