<svg width="115" height="48" viewBox="0 0 115 48" fill="none" xmlns="http://www.w3.org/2000/svg">
<path d="M32.3568 39.5859L30.0673 32.7175H20.5822L18.3654 39.5859H14.1862L22.8354 14.2198H27.9958L36.645 39.5859H32.3568ZM25.4156 17.9993H25.2339L21.5635 29.1924H29.0497L25.4156 17.9993ZM49.1623 14.2198H60.3917C62.4995 14.2198 64.1469 14.8134 65.3341 16.0005C66.5454 17.1877 67.1511 18.7746 67.1511 20.7612C67.1511 21.7061 67.0179 22.5177 66.7514 23.1961C66.4849 23.8502 66.1457 24.3953 65.7338 24.8314C65.322 25.2433 64.8495 25.5583 64.3165 25.7763C63.7835 25.9701 63.2626 26.0913 62.7538 26.1397V26.3578C63.2626 26.382 63.8199 26.5031 64.4255 26.7212C65.0555 26.9392 65.6369 27.2905 66.1699 27.7751C66.7029 28.2354 67.1511 28.8411 67.5145 29.5921C67.8779 30.319 68.0597 31.2154 68.0597 32.2814C68.0597 33.2989 67.8901 34.2559 67.5509 35.1523C67.2359 36.0487 66.7877 36.824 66.2063 37.4782C65.6248 38.1323 64.9343 38.6532 64.1348 39.0408C63.3353 39.4042 62.4631 39.5859 61.5183 39.5859H49.1623V14.2198ZM53.2688 36.0608H60.319C61.385 36.0608 62.2208 35.7822 62.8265 35.225C63.4322 34.6678 63.7351 33.8683 63.7351 32.8265V31.5909C63.7351 30.5491 63.4322 29.7496 62.8265 29.1924C62.2208 28.6351 61.385 28.3565 60.319 28.3565H53.2688V36.0608ZM53.2688 24.9405H59.6285C60.6461 24.9405 61.4335 24.6861 61.9907 24.1773C62.5479 23.6443 62.8265 22.8932 62.8265 21.9241V20.7612C62.8265 19.7921 62.5479 19.0532 61.9907 18.5444C61.4335 18.0114 60.6461 17.7449 59.6285 17.7449H53.2688V24.9405ZM91.2274 40.022C87.9082 40.022 85.3038 38.9076 83.4141 36.6786C81.5243 34.4255 80.5795 31.1669 80.5795 26.9029C80.5795 24.7709 80.8217 22.8932 81.3063 21.27C81.7908 19.6468 82.4934 18.2779 83.4141 17.1635C84.3347 16.049 85.4492 15.2132 86.7574 14.6559C88.0899 14.0745 89.5799 13.7837 91.2274 13.7837C93.4321 13.7837 95.2734 14.2683 96.7513 15.2374C98.2534 16.2065 99.4284 17.6359 100.276 19.5256L96.8239 21.4154C96.3878 20.204 95.7095 19.247 94.7888 18.5444C93.8924 17.8176 92.7053 17.4542 91.2274 17.4542C89.265 17.4542 87.7265 18.1204 86.6121 19.453C85.4976 20.7855 84.9404 22.6267 84.9404 24.9768V28.829C84.9404 31.179 85.4976 33.0203 86.6121 34.3528C87.7265 35.6853 89.265 36.3516 91.2274 36.3516C92.7537 36.3516 93.9893 35.9639 94.9342 35.1887C95.9033 34.3892 96.618 33.3716 97.0783 32.136L100.385 34.1348C99.5374 35.9761 98.3503 37.4176 96.8239 38.4594C95.2976 39.5011 93.4321 40.022 91.2274 40.022Z" fill="#8E669F"/>
<path d="M75.6261 16.6988C76.8118 19.3088 77.4769 22.2151 77.4769 25.266C77.4769 36.7179 68.194 46.0008 56.7421 46.0008C45.2903 46.0008 36.0001 36.7179 36.0001 25.266C36.0001 13.8142 45.2831 4.53125 56.7349 4.53125C58.8821 4.53125 60.9498 4.85659 62.9018 5.46388" stroke="#00BBAB" stroke-width="3" stroke-miterlimit="10" stroke-linecap="round"/>
<path d="M64.5586 9.72674L69.8604 15.7364L80.4639 2" stroke="#00BBAB" stroke-width="3" stroke-miterlimit="10" stroke-linecap="round" stroke-linejoin="round"/>
</svg>
