<svg width="239" height="135" viewBox="0 0 239 135" fill="none" xmlns="http://www.w3.org/2000/svg">
<path d="M77.4725 135C75.7508 135 74.0293 135 72.3077 135V134.269C74.1305 134.269 75.7509 134.269 77.5738 134.269C79.9031 134.269 82.2322 134.269 84.4602 134.196V134.927C82.2322 134.927 79.9031 135 77.5738 135H77.4725ZM60.1551 134.561C56.3068 134.342 52.256 134.049 48.0026 133.757V133.025C52.256 133.391 56.3068 133.611 60.1551 133.83V134.561ZM96.6127 134.342V133.61C100.562 133.318 104.613 132.879 108.462 132.367L108.664 133.099C104.714 133.611 100.664 134.049 96.6127 134.342ZM35.9513 132.587C32.103 132.221 28.2548 131.782 23.9001 131.197L24.1026 130.466C28.356 130.978 32.3056 131.417 36.0526 131.782V132.514L35.9513 132.587ZM120.614 131.124L120.31 130.393C124.159 129.588 128.007 128.711 131.754 127.614L132.159 128.272C128.412 129.369 124.462 130.32 120.614 131.051V131.124ZM11.95 129.735C8.00047 129.223 3.94958 128.711 0 128.126L0.202617 127.394C4.15219 127.906 8.20297 128.491 12.1525 129.003L11.95 129.735ZM143.299 124.689L142.792 124.03C146.438 122.714 149.881 121.178 153.223 119.642L153.73 120.228C150.388 121.836 146.843 123.299 143.197 124.689H143.299ZM163.553 115.035L162.945 114.45C166.085 112.549 169.022 110.574 171.756 108.453L172.465 108.965C169.731 111.086 166.692 113.061 163.553 115.035ZM180.263 102.164L179.453 101.725C181.782 99.312 183.909 96.8256 185.731 94.266L186.643 94.6316C184.82 97.1912 182.693 99.7508 180.364 102.164H180.263ZM191.2 86.4409L190.187 86.2215C191.301 83.7351 192.112 81.1755 192.618 78.6159C192.618 78.3234 192.719 78.0309 192.82 77.7383H193.833C193.833 78.104 193.732 78.4696 193.631 78.7622C193.124 81.3217 192.213 83.9545 191.2 86.4409ZM193.529 69.0357C193.529 66.403 193.327 63.6241 192.922 60.3332H193.934C194.339 63.6241 194.441 66.4761 194.542 69.0357H193.529ZM191.909 51.5574C191.605 49.5098 191.301 47.3158 191.099 45.195C191.099 44.3906 190.896 43.5861 190.896 42.7817H191.909C191.909 43.513 192.01 44.3174 192.112 45.1219C192.314 47.2427 192.618 49.4366 192.922 51.4843H191.909V51.5574ZM191.706 34.006H190.694C190.896 30.7882 191.301 27.9361 192.01 25.2302L193.023 25.3765C192.314 28.0823 191.909 30.9345 191.706 34.006ZM196.365 17.0395L195.453 16.747C196.365 15.2112 197.378 13.6755 198.593 12.286C199.504 11.189 200.618 10.0921 201.732 9.14139L202.542 9.58016C201.428 10.5309 200.416 11.6278 199.504 12.6517C198.39 14.0412 197.378 15.5038 196.466 16.9664L196.365 17.0395ZM211.454 3.94905L210.948 3.36401C214.594 1.75513 218.442 0.585049 222.29 0L222.493 0.731311C218.746 1.31636 214.999 2.4133 211.454 3.94905ZM238.494 1.90139C237.177 1.4626 235.759 1.09695 234.342 0.804424L234.645 0.0731132C236.164 0.365638 237.582 0.731293 239 1.17008L238.595 1.82828L238.494 1.90139Z" fill="#A588BA"/>
</svg>
