<svg width="246" height="161" viewBox="0 0 246 161" fill="none" xmlns="http://www.w3.org/2000/svg">
<path d="M6.2842 160.565C4.47234 160.565 2.76108 160.565 0.949219 160.367V159.379C2.76108 159.477 4.47234 159.576 6.2842 159.576C8.4987 159.576 10.8138 159.477 13.0283 159.28V160.268C10.8138 160.466 8.4987 160.565 6.2842 160.565ZM25.1074 158.192L24.8054 157.203C28.6305 156.214 32.4556 154.929 36.0793 153.346L36.4819 154.236C32.7576 155.819 28.9325 157.203 25.0068 158.192H25.1074ZM47.2524 148.6L46.7491 147.809C50.1715 145.732 53.3926 143.26 56.3117 140.689L57.0164 141.381C53.9966 143.952 50.7755 146.424 47.3531 148.6H47.2524ZM65.3711 132.778L64.5658 132.184C67.0823 129.119 69.2968 125.757 71.2093 122.395L72.1152 122.889C70.2027 126.35 67.9882 129.712 65.3711 132.778ZM76.9469 111.912L76.041 111.616C77.2489 108.353 78.2555 104.694 79.3627 100.244L80.3693 100.441C79.262 104.891 78.1548 108.55 76.9469 111.912ZM83.0871 88.8716L82.0805 88.6739C82.9865 85.015 83.8923 81.0595 84.9996 77.104L86.0062 77.4006C84.8989 81.2572 83.8924 85.2128 83.0871 88.8716ZM89.9319 66.2263L89.026 65.8308C90.6365 62.1719 92.4484 58.612 94.5622 55.2498L95.4682 55.7443C93.3543 59.1065 91.5424 62.6664 90.0325 66.2263H89.9319ZM102.313 46.1522L101.508 45.5588C104.024 42.4933 106.742 39.5267 109.661 36.7578L110.366 37.4501C107.447 40.2189 104.729 43.1855 102.313 46.1522ZM119.526 29.6379L118.922 28.8468C122.042 26.4735 125.465 24.1991 128.887 22.0235L129.39 22.8146C125.968 24.8913 122.646 27.1657 119.526 29.539V29.6379ZM139.859 17.1781L139.456 16.2881C143.08 14.5081 146.804 12.9259 150.529 11.4426L150.931 12.3326C147.207 13.717 143.483 15.3981 139.96 17.0792L139.859 17.1781ZM162.306 8.57485L162.004 7.58597C165.829 6.49821 169.755 5.50931 173.781 4.71821L173.982 5.70708C169.956 6.49819 166.03 7.48709 162.306 8.57485ZM185.759 3.63047V2.64159C189.484 2.04827 193.51 1.65269 197.637 1.25714V2.24602C193.611 2.64157 189.584 3.03714 185.759 3.63047ZM245.954 2.24602C241.726 1.94935 237.8 1.85049 233.874 1.65271V0.663838C237.8 0.762726 241.726 0.960477 245.954 1.25714V2.24602ZM209.817 1.55379V0.564915C213.441 0.466027 217.266 0.367188 221.091 0.367188H221.896V1.35606H221.091C217.266 1.35606 213.441 1.35602 209.817 1.55379Z" fill="#34C8BB"/>
</svg>
