<svg width="276" height="155" viewBox="0 0 276 155" fill="none" xmlns="http://www.w3.org/2000/svg">
<path d="M15.6842 154.95L15.3822 153.961C19.2073 152.873 22.9316 151.39 26.5554 149.709L26.958 150.598C23.3343 152.378 19.5092 153.763 15.6842 154.95ZM37.5272 144.665L36.9232 143.874C40.245 141.699 43.3655 139.226 46.2846 136.556L46.9892 137.249C43.9694 139.919 40.7483 142.391 37.4265 144.665H37.5272ZM55.4446 128.547L54.6393 127.953C57.1558 124.888 59.5716 121.723 61.6854 118.361L62.5913 118.856C60.4775 122.218 58.0617 125.481 55.5452 128.547H55.4446ZM68.1276 108.373L67.2217 107.978C68.8322 104.319 70.1408 100.66 71.248 96.9025L72.2546 97.1991C71.248 100.957 69.8388 104.813 68.2283 108.472L68.1276 108.373ZM74.4692 85.3326H73.4626C73.4626 84.9371 73.4625 84.5415 73.5632 84.2449C73.7645 81.8716 73.8652 79.4983 73.8652 77.125C73.8652 74.7517 73.8652 74.6527 73.8652 73.4661H74.8718C74.8718 74.6527 74.8718 75.8395 74.8718 77.125C74.8718 79.4983 74.7711 81.9704 74.5698 84.3437C74.5698 84.6404 74.5698 85.0359 74.4692 85.3326ZM72.3553 61.7974C71.55 57.9408 70.5434 54.1831 69.1342 50.4253L70.0401 50.1286C71.3487 53.8864 72.456 57.743 73.2612 61.5996L72.2546 61.7974H72.3553ZM64.4032 39.6466C62.692 36.3833 60.7795 33.2189 58.565 30.1534L47.7945 30.5489V29.5601L58.7663 29.1645L59.0683 28.9666C59.0683 28.9666 59.0683 29.0656 59.169 29.1645H59.8736V30.1534C61.8868 33.0211 63.6986 36.0866 65.4098 39.251L64.5039 39.7454L64.4032 39.6466ZM27.8639 31.0434C26.2534 31.0434 24.9448 31.0433 23.5356 30.9444V29.9555C24.8442 29.9555 26.2534 30.0545 27.8639 30.0545C29.4745 30.0545 31.8903 30.0544 33.7022 29.9555H35.6147V30.8455H33.7022C31.7897 30.9444 29.7765 31.0434 27.7633 31.0434H27.8639ZM71.9527 29.7578V28.7689L84.0318 28.3733V29.3622L71.9527 29.7578ZM96.1109 28.9666V27.9778L108.19 27.5823V28.5712L96.1109 28.9666ZM11.6578 28.4722C10.9532 28.1755 10.2486 27.8789 9.54401 27.4833C6.6249 26 4.10841 23.6268 2.29654 20.759L3.10181 20.2646C4.81301 22.9346 7.22882 25.209 9.94661 26.5934C10.5506 26.8901 11.2552 27.2856 11.9598 27.4833L11.5572 28.3733L11.6578 28.4722ZM120.269 28.1756V27.1867L132.348 26.7912V27.78L120.269 28.1756ZM144.327 27.3845V26.3956L156.406 26V26.9889L144.327 27.3845ZM168.485 26.5934V25.6046L180.564 25.209V26.1979L168.485 26.5934ZM192.643 25.8023V24.8134L204.722 24.4178V25.4067L192.643 25.8023ZM216.801 25.0111V24.0223L228.88 23.6268V24.6157L216.801 25.0111ZM240.959 24.2201V23.2312L253.038 22.8357V23.8245L240.959 24.2201ZM265.118 23.5278V22.5389L275.284 22.2424V23.2312L265.118 23.5278ZM50.6129 20.3635C47.8951 17.4957 44.8754 14.8258 41.7549 12.3536L42.3589 11.5624C45.4793 14.0346 48.4991 16.7047 51.3176 19.6713L50.6129 20.3635ZM1.08862 9.38696L0.0820312 9.09025C0.28335 8.29915 0.585351 7.60701 0.987988 6.81591C2.59853 3.84928 5.21565 1.77254 8.63806 0.783665L8.94002 1.77254C5.71893 2.76142 3.30311 4.64036 1.89388 7.40921C1.49125 8.10142 1.28994 8.79361 1.08862 9.48583V9.38696ZM31.7897 5.82703C31.1857 5.53037 30.5818 5.13482 29.9778 4.83815C27.0587 3.35484 23.9382 2.16814 20.7172 1.57481L20.9185 0.585938C24.2402 1.27815 27.4613 2.46483 30.4811 3.94814C31.0851 4.2448 31.689 4.54147 32.293 4.93702L31.7897 5.82703Z" fill="#8860A4"/>
</svg>
