<svg width="63" height="45" viewBox="0 0 63 45" fill="none" xmlns="http://www.w3.org/2000/svg">
<path d="M60.2248 0H52.0876C51.1257 0 50.197 0.265345 49.3789 0.751812L38.7208 7.19749L31.9988 4.06863C31.7002 3.93595 31.3575 3.93595 31.07 4.06863L24.348 7.19749L13.6899 0.751812C12.8718 0.254289 11.932 0 10.9812 0H2.82184C1.57251 0 0.566406 1.01716 0.566406 2.25543V12.8471C0.566406 13.8753 0.986536 14.8814 1.72729 15.6001C1.76046 15.6333 1.80468 15.6775 1.84891 15.6996L11.4456 22.6428L9.5992 35.7221C9.45547 36.883 10.0746 37.9996 11.136 38.4861L24.7018 44.8102C25.2656 45.0755 25.9069 45.0644 26.4597 44.7659C27.0125 44.4785 27.3884 43.9588 27.4989 43.3397L28.3171 38.464L29.9534 39.5254C30.9042 40.1445 32.1425 40.1445 33.0933 39.5254L34.7296 38.464L35.5477 43.3397C35.6472 43.9588 36.0342 44.4785 36.587 44.7659C36.8745 44.9207 37.1951 44.9981 37.5047 44.9981C37.7921 44.9981 38.0796 44.9318 38.3449 44.8102L51.9107 38.4861C52.9721 37.9886 53.5912 36.883 53.4475 35.7L51.6011 22.6428L61.1978 15.6996C61.1978 15.6996 61.2862 15.6333 61.3194 15.6001C62.0601 14.8814 62.4803 13.8753 62.4803 12.8471V2.25543C62.4803 1.0061 61.4631 0 60.2248 0ZM37.173 39.6912L32.7395 13.3999L48.9587 3.59321L37.184 39.6912H37.173ZM25.8737 39.6912L14.099 3.59321L30.3072 13.3999L25.8737 39.6912ZM31.5233 6.29089L36.4322 8.57949L31.5233 11.5536L26.6145 8.57949L31.5233 6.29089ZM3.21986 13.9638C2.9324 13.6653 2.77762 13.2562 2.77762 12.8471L2.82184 2.21121H10.9591C11.0918 2.21121 11.2134 2.29966 11.3461 2.32177L18.8973 25.4621L3.21986 13.9638ZM11.7883 36.0206L13.4688 24.1464L20.1024 29.1216L24.3811 42.223L12.0758 36.485C11.8878 36.3965 11.7772 36.1975 11.7994 36.0095L11.7883 36.0206ZM31.8771 37.6901C31.656 37.8338 31.3686 37.8338 31.1585 37.6901L28.7151 36.098L31.5123 19.4918L34.3095 36.098L31.8661 37.6901H31.8771ZM50.9709 36.496L38.6655 42.2341L42.9442 29.1327L49.5779 24.1575L51.2473 36.0095C51.2694 36.2196 51.1589 36.4186 50.9709 36.5071V36.496ZM60.2691 12.8471C60.2691 13.2562 60.1032 13.6653 59.8268 13.9638L44.1383 25.4621L51.6896 2.32177C51.8222 2.29966 51.9439 2.21121 52.0765 2.21121L60.2691 2.25543V12.8471Z" fill="#4DCFC3"/>
<path d="M53.5001 20.5L43.5001 26.5L50.5001 1.5H52.5001H55.5001H60.5001L61.5001 3V14.5L58.0001 16L53.5001 20.5Z" fill="#4DCFC3"/>
<path d="M8.99994 20L18.9999 26L11.9999 1H9.99994H6.99994H1.99994L0.999941 2.5V14L4.49994 15.5L8.99994 20Z" fill="#4DCFC3"/>
</svg>
