<svg width="40" height="50" viewBox="0 0 40 50" fill="none" xmlns="http://www.w3.org/2000/svg">
<path fill-rule="evenodd" clip-rule="evenodd" d="M40 0V38.2353H34.2857V47.0588H38.5714V50H7.14286C5.05715 50 3.05714 49.0588 1.71144 47.4118C0.600009 46.0588 0 44.3823 0 42.6471V7.35294C0 3.29411 3.2 0 7.14286 0H40ZM31.4286 38.2353H7.45713C5.2 38.2353 3.25429 39.7941 2.91429 41.8823C2.88287 42.1177 2.85714 42.3529 2.85714 42.5882V42.6471C2.85714 43.7059 3.2 44.6765 3.88572 45.5C4.71429 46.5 5.88572 47.0588 7.14286 47.0588H31.4286V44.1177H6.08572V41.1765H31.4286V38.2353ZM37.1429 2.94117H7.14286C4.79714 2.94117 2.85714 4.91174 2.85714 7.35294V36.8529C4.14287 35.8824 5.74001 35.2941 7.45713 35.2941H37.1429L37.1429 2.94117ZM29.9991 23.5294V26.4706H9.99914V23.5294H29.9991V23.5294ZM31.4277 8.82357V20.5883H8.57061V8.82354H31.4277L31.4277 8.82357ZM28.5706 11.7647H11.4277V17.6471H28.5706V11.7647Z" fill="#8860A4"/>
</svg>
