<svg width="69" height="69" viewBox="0 0 69 69" fill="none" xmlns="http://www.w3.org/2000/svg">
<path d="M34.5 29.9V57.5M34.5 29.9C34.5 23.4594 34.5 20.2391 33.2465 17.7791C32.1439 15.6152 30.3847 13.856 28.2209 12.7534C25.7609 11.5 22.5406 11.5 16.1 11.5H13.225C11.6149 11.5 10.8098 11.5 10.1948 11.8133C9.65382 12.089 9.214 12.5288 8.93835 13.0698C8.625 13.6848 8.625 14.4899 8.625 16.1V47.15C8.625 48.7603 8.625 49.5653 8.93835 50.1803C9.214 50.7213 9.65382 51.1609 10.1948 51.4366C10.8098 51.75 11.6149 51.75 13.225 51.75H21.6967C23.2498 51.75 24.0263 51.75 24.7772 51.884C25.4436 52.0027 26.0938 52.1994 26.7142 52.4705C27.4132 52.7755 28.0593 53.2062 29.3514 54.0678L34.5 57.5M34.5 29.9C34.5 23.4594 34.5 20.2391 35.7535 17.7791C36.8561 15.6152 38.6153 13.856 40.779 12.7534C43.2391 11.5 46.4594 11.5 52.9 11.5H55.775C57.3853 11.5 58.1903 11.5 58.8053 11.8133C59.3463 12.089 59.7859 12.5288 60.0616 13.0698C60.375 13.6848 60.375 14.4899 60.375 16.1V47.15C60.375 48.7603 60.375 49.5653 60.0616 50.1803C59.7859 50.7213 59.3463 51.1609 58.8053 51.4366C58.1903 51.75 57.3853 51.75 55.775 51.75H47.3032C45.7502 51.75 44.9736 51.75 44.223 51.884C43.5562 52.0027 42.9062 52.1994 42.2858 52.4705C41.5869 52.7755 40.9406 53.2062 39.6486 54.0678L34.5 57.5" stroke="#00BAAA" stroke-width="5" stroke-linecap="round" stroke-linejoin="round"/>
</svg>
