<svg width="74" height="67" viewBox="0 0 74 67" fill="none" xmlns="http://www.w3.org/2000/svg">
<path d="M37 27.6V63M37 27.6C37 19.3392 37 15.2089 35.4013 12.0536C33.9952 9.27825 31.7515 7.0218 28.9919 5.60764C25.8545 4 21.7474 4 13.5333 4H9.86667C7.81315 4 6.78637 4 6.00204 4.4019C5.31212 4.75546 4.75119 5.31957 4.39963 6.01341C4 6.80221 4 7.83482 4 9.9V49.725C4 51.7904 4 52.8229 4.39963 53.6116C4.75119 54.3056 5.31212 54.8694 6.00204 55.2231C6.78637 55.625 7.81315 55.625 9.86667 55.625H20.6712C22.6519 55.625 23.6422 55.625 24.5998 55.7968C25.4498 55.9491 26.279 56.2014 27.0703 56.5491C27.9618 56.9403 28.7858 57.4927 30.4337 58.5979L37 63M37 27.6C37 19.3392 37 15.2089 38.5987 12.0536C40.0048 9.27825 42.2485 7.0218 45.008 5.60764C48.1456 4 52.2526 4 60.4667 4H64.1333C66.187 4 67.2137 4 67.998 4.4019C68.6881 4.75546 69.2487 5.31957 69.6003 6.01341C70 6.80221 70 7.83482 70 9.9V49.725C70 51.7904 70 52.8229 69.6003 53.6116C69.2487 54.3056 68.6881 54.8694 67.998 55.2231C67.2137 55.625 66.187 55.625 64.1333 55.625H53.3288C51.348 55.625 50.3577 55.625 49.4003 55.7968C48.55 55.9491 47.721 56.2014 46.9297 56.5491C46.0383 56.9403 45.2141 57.4927 43.5663 58.5979L37 63" stroke="#00BAAA" stroke-width="7" stroke-linecap="round" stroke-linejoin="round"/>
</svg>
