<svg width="247" height="183" viewBox="0 0 247 183" fill="none" xmlns="http://www.w3.org/2000/svg">
<path d="M1.50659 129.937L0.5 129.739C0.902637 127.663 1.50654 125.685 2.21116 124.004L3.11711 124.399C2.4125 126.081 1.90923 127.959 1.50659 130.036V129.937Z" fill="#FE8F82"/>
<path d="M122.117 182.415V183.001C126.575 182.883 130.618 182.473 134.35 181.77L134.039 181.242C130.411 181.946 126.368 182.356 122.117 182.473V182.415Z" fill="#FE8F82"/>
<path d="M97.7578 180.891C102.112 181.653 106.051 182.18 109.784 182.532L109.991 181.946C106.363 181.594 102.423 181.067 98.0689 180.305L97.7578 180.891Z" fill="#FE8F82"/>
<path d="M26.8438 164.594C30.3685 165.004 34.2044 165.59 38.6622 166.411L38.9733 165.884C34.5154 165.063 30.6796 164.477 27.0512 164.066L26.8438 164.653V164.594Z" fill="#FE8F82"/>
<path d="M3 165.825L3.62212 166.294C6.62857 165.004 10.257 164.301 14.8185 164.067V163.48C10.0496 163.656 6.11011 164.477 3 165.825Z" fill="#FE8F82"/>
<path d="M50.4811 168.289L50.0664 168.817C53.1765 169.52 56.183 170.223 59.1895 170.927L61.3665 171.454L61.7812 170.927L59.6042 170.399C56.5977 169.696 53.4876 168.992 50.3775 168.289H50.4811Z" fill="#FE8F82"/>
<path d="M75.2605 175.438L74.7422 175.965C77.5413 176.903 80.7551 177.548 83.5542 178.134L86.1459 178.661L86.4569 178.134L83.8651 177.606C81.066 177.02 77.956 176.375 75.2605 175.438Z" fill="#FE8F82"/>
<path d="M165.656 125.554L166.693 125.671C167.419 123.268 168.559 121.04 169.803 118.988L168.87 118.812C167.522 120.864 166.486 123.15 165.76 125.554H165.656Z" fill="#FE8F82"/>
<path d="M180.275 108.258C178.097 109.489 176.024 110.955 174.262 112.479L175.091 112.772C176.853 111.248 178.823 109.841 181 108.61C181.622 108.258 182.348 107.907 182.97 107.555L182.348 107.086C181.622 107.438 180.897 107.789 180.275 108.141V108.258Z" fill="#FE8F82"/>
<path d="M192.823 103.454L193.237 103.982C196.658 103.102 200.494 102.34 204.745 101.696L204.434 101.109C200.183 101.754 196.244 102.516 192.719 103.454H192.823Z" fill="#FE8F82"/>
<path d="M228.897 99C224.439 99.1759 220.396 99.4689 216.664 99.762V100.348C220.604 100.055 224.543 99.762 229.001 99.5862V99H228.897Z" fill="#FE8F82"/>
<path d="M164.209 132.531C163.898 135.052 163.898 137.572 163.898 139.448H164.935C164.935 137.572 164.935 135.052 165.245 132.531H164.727H164.209Z" fill="#FE8F82"/>
<path d="M144.613 177.955L145.235 178.424C148.345 177.017 151.144 175.259 153.633 173.266L152.803 172.914C150.419 174.907 147.62 176.607 144.613 177.955Z" fill="#FE8F82"/>
<path d="M158.404 166.819L159.337 167.054C160.789 164.943 161.929 162.657 162.759 160.313L161.722 160.195C160.893 162.54 159.752 164.709 158.301 166.819H158.404Z" fill="#FE8F82"/>
<path d="M163.375 153.339H164.411C164.618 151.346 164.826 149.236 164.826 146.422H163.79C163.79 149.177 163.582 151.346 163.375 153.339Z" fill="#FE8F82"/>
<path d="M240.57 1.97567V0.98679C242.583 0.98679 244.597 0.88795 246.61 0.789062V1.77794C244.597 1.77794 242.583 1.77789 240.57 1.97567Z" fill="#FE8F82"/>
</svg>
