<svg width="193" height="48" viewBox="0 0 193 48" fill="none" xmlns="http://www.w3.org/2000/svg">
<path d="M6.0394 31.763L0 31.8047L0.00698126 32.7935L6.04638 32.7518L6.0394 31.763Z" fill="#6A398E"/>
<path d="M82.2551 47.5649C77.9268 47.5649 74.1017 47.0704 70.6793 46.3782L70.8807 45.3893C74.3031 46.0816 78.0274 46.3783 82.3557 46.4772V47.4661L82.2551 47.5649ZM93.8309 47.2682V46.2794C95.2401 46.2794 96.6494 46.0816 98.1593 45.9828L105.407 45.4883V46.4772L98.2599 46.9716C96.8507 46.9716 95.3408 47.1693 93.9315 47.2682H93.8309ZM116.982 45.8838V44.8949L128.458 44.2027V45.1916L116.982 45.8838ZM140.134 44.4994V43.5106L151.609 42.8183V43.8072L140.134 44.4994ZM163.286 43.0161V42.0273L174.761 41.335V42.3238L163.286 43.0161ZM59.5062 42.8183C55.9831 41.0383 52.7619 38.665 50.1448 35.8961L50.8495 35.204C53.366 37.8739 56.5871 40.2472 59.9088 41.9283L59.4055 42.8183H59.5062ZM18.8398 31.7429V30.754H30.4156V31.7429H18.8398ZM42.0921 31.5451V30.5562H53.6679V31.5451H42.0921ZM65.3444 30.4573L65.143 29.4684C68.4648 28.6773 71.082 27.2929 73.0951 25.4141C73.5984 24.9196 74.1018 24.4252 74.5044 23.8319L75.3096 24.4252C74.907 25.0185 74.4037 25.6118 73.7997 26.1062C71.6859 28.1829 68.8675 29.5673 65.3444 30.4573ZM44.0046 26.1062C43.1994 23.8318 42.7968 21.5575 42.7968 19.2831C42.7968 17.0087 42.7967 17.7997 42.8974 17.0086C42.8974 16.2175 43.0987 15.4264 43.3001 14.6353L44.3067 14.932C44.1053 15.7231 44.0047 16.4153 43.904 17.2064C43.904 17.8986 43.8034 18.5909 43.8034 19.382C43.8034 21.5575 44.206 23.733 44.9106 25.9085L44.0046 26.2052V26.1062ZM76.4169 13.3498C75.6117 9.69099 73.5985 6.22992 70.8807 3.95551L71.4846 3.16436C74.4037 5.53766 76.6183 9.19648 77.4235 13.152L76.4169 13.3498ZM50.2456 5.53768L49.5409 4.8454C52.6613 2.17543 56.3857 0.395551 60.2107 0V0.988877C56.7883 1.38443 53.1647 2.96661 50.2456 5.53768Z" fill="#FF705F"/>
<path d="M192.856 39.8462L186.828 40.2188L186.891 41.2057L192.919 40.8331L192.856 39.8462Z" fill="#6A398E"/>
</svg>
