<svg width="43" height="40" viewBox="0 0 43 40" fill="none" xmlns="http://www.w3.org/2000/svg">
<path d="M8.81719 36.5857C8.81719 36.9551 8.88509 37.3209 9.01702 37.6622C9.14896 38.0035 9.34233 38.3136 9.58611 38.5749C9.82989 38.8361 10.1193 39.0433 10.4378 39.1847C10.7563 39.326 11.0977 39.3988 11.4425 39.3988C12.1387 39.3988 12.8065 39.1024 13.2988 38.5749C13.5426 38.3136 13.736 38.0035 13.8679 37.6622C13.9998 37.3209 14.0677 36.9551 14.0677 36.5857C14.0677 35.8396 13.7911 35.1241 13.2988 34.5966C12.8065 34.069 12.1387 33.7726 11.4425 33.7726C10.7462 33.7726 10.0784 34.069 9.58611 34.5966C9.09378 35.1241 8.81719 35.8396 8.81719 36.5857ZM32.4446 36.5857C32.4446 36.9551 32.5125 37.3209 32.6445 37.6622C32.7764 38.0035 32.9698 38.3136 33.2136 38.5749C33.4573 38.8361 33.7468 39.0433 34.0653 39.1847C34.3838 39.326 34.7252 39.3988 35.0699 39.3988C35.7662 39.3988 36.4339 39.1024 36.9263 38.5749C37.17 38.3136 37.3634 38.0035 37.4954 37.6622C37.6273 37.3209 37.6952 36.9551 37.6952 36.5857C37.6952 35.8396 37.4186 35.1241 36.9263 34.5966C36.4339 34.069 35.7662 33.7726 35.0699 33.7726C34.3736 33.7726 33.7059 34.069 33.2136 34.5966C32.7212 35.1241 32.4446 35.8396 32.4446 36.5857ZM0.865234 1.42217C0.865234 1.7952 1.00353 2.15296 1.2497 2.41674C1.49586 2.68052 1.82974 2.82871 2.17787 2.82871H4.90553L6.53582 10.3003L8.81719 22.5203C8.81719 22.6216 8.86182 22.7088 8.87232 22.8072L7.53605 29.2492C7.49286 29.4548 7.49345 29.6681 7.53779 29.8734C7.58213 30.0787 7.66908 30.2707 7.79218 30.435C7.91527 30.5993 8.07135 30.7318 8.2488 30.8226C8.42626 30.9135 8.62053 30.9603 8.81719 30.9595H38.5983C38.9464 30.9595 39.2803 30.8114 39.5265 30.5476C39.7726 30.2838 39.9109 29.926 39.9109 29.553C39.9109 29.18 39.7726 28.8222 39.5265 28.5584C39.2803 28.2946 38.9464 28.1465 38.5983 28.1465H10.4554L11.0565 25.249C11.1878 25.2715 11.3059 25.3334 11.4425 25.3334H35.3718C36.821 25.3334 37.6952 25.0267 38.3935 23.2236L42.657 9.20878C43.3973 6.6967 41.7722 5.64179 40.3205 5.64179H8.81719C8.61242 5.64179 8.4339 5.71775 8.24225 5.76557L7.22365 1.10148C7.15612 0.792467 6.99305 0.517013 6.76093 0.319879C6.52882 0.122744 6.24132 0.0155175 5.94514 0.0156251H2.17787C1.82974 0.0156251 1.49586 0.163814 1.2497 0.427592C1.00353 0.69137 0.865234 1.04913 0.865234 1.42217ZM8.86969 8.45487H40.1236L35.9336 22.2362C35.8838 22.3571 35.8417 22.4443 35.8102 22.5034C35.7236 22.5119 35.5871 22.5203 35.3718 22.5203H11.4425V22.2418L11.3926 21.9689L8.86969 8.45487Z" fill="#6C6C6C"/>
</svg>
