<svg width="98" height="67" viewBox="0 0 98 67" fill="none" xmlns="http://www.w3.org/2000/svg">
<path d="M22.9753 5.22968C24.0058 4.83196 24.5187 3.67416 24.121 2.64368C23.7233 1.6132 22.5655 1.10026 21.535 1.49799L22.9753 5.22968ZM24.6785 10.5697C23.7969 11.2352 23.6217 12.4893 24.2872 13.3709C24.9526 14.2525 26.2068 14.4278 27.0884 13.7623L24.6785 10.5697ZM21.535 1.49799C-2.6921 10.8487 -6.91242 40.5514 11.088 56.3553L13.727 53.3494C-2.04702 39.5002 1.59214 13.4828 22.9753 5.22968L21.535 1.49799ZM11.088 56.3553C20.0807 64.2508 34.5505 67.3125 48.5266 66.9751C62.5191 66.6373 76.6493 62.8787 85.142 56.4467L82.727 53.258C75.1521 58.9948 61.9624 62.6496 48.4301 62.9762C34.8815 63.3033 21.6215 60.2806 13.727 53.3494L11.088 56.3553ZM85.142 56.4467C93.6143 50.0302 97.7029 41.7508 97.9841 33.4148C98.264 25.1149 94.7636 16.9595 88.4475 10.7409L85.6412 13.5912C91.2462 19.1097 94.2247 26.2131 93.9863 33.2799C93.7492 40.3105 90.3223 47.5058 82.727 53.258L85.142 56.4467ZM88.4475 10.7409C82.0293 4.42176 71.2571 0.497414 59.652 0.044281C47.9973 -0.410789 35.2133 2.61781 24.6785 10.5697L27.0884 13.7623C36.7681 6.45584 48.604 3.61596 59.4959 4.04124C70.4373 4.46846 80.1383 8.17333 85.6412 13.5912L88.4475 10.7409Z" fill="#8E669F"/>
</svg>
