<svg width="63" height="64" viewBox="0 0 63 64" fill="none" xmlns="http://www.w3.org/2000/svg">
<path d="M31.4707 62.8767H31.4713C39.6834 62.8676 47.5559 59.5779 53.3617 53.7306C59.1674 47.8835 62.4323 39.9565 62.4414 31.6889V31.6884C62.4414 25.5207 60.6255 19.4912 57.2228 14.3624C53.8201 9.23357 48.9834 5.23558 43.3238 2.87457C37.6643 0.513544 31.4364 -0.104265 25.428 1.09942C19.4195 2.30311 13.901 5.2741 9.56986 9.63613C5.23881 13.9981 2.28971 19.5552 1.09497 25.6045C-0.0997614 31.6537 0.51339 37.924 2.85704 43.6225C5.2007 49.321 9.16979 54.1922 14.2629 57.6196C19.3561 61.0471 25.3445 62.8767 31.4707 62.8767ZM16.5255 9.15561C20.9495 6.17847 26.1504 4.58962 31.4704 4.58955C38.602 4.59763 45.4399 7.45444 50.4838 12.5344C55.5279 17.6145 58.3658 24.503 58.3738 31.6889C58.3737 37.0491 56.7954 42.2887 53.8389 46.745C50.8823 51.2015 46.6804 54.6743 41.7649 56.7249C36.8494 58.7755 31.4408 59.3119 26.2229 58.2666C21.0048 57.2213 16.2113 54.6409 12.4486 50.8514C8.68589 47.0618 6.12304 42.2331 5.0847 36.9757C4.04637 31.7184 4.57931 26.269 6.61599 21.3169C8.65266 16.3649 12.1014 12.1328 16.5255 9.15561Z" fill="#8E669F" stroke="#8E669F"/>
<path d="M30.7078 33.5961C30.9527 33.6976 31.2167 33.7441 31.4813 33.7322H49.8749C50.4155 33.7322 50.9332 33.5159 51.3143 33.1321C51.6953 32.7483 51.9088 32.2286 51.9088 31.6874C51.9088 31.1463 51.6953 30.6266 51.3143 30.2428C50.9332 29.859 50.4155 29.6427 49.8749 29.6427H33.503V13.1502C33.503 12.6091 33.2896 12.0894 32.9086 11.7056C32.5274 11.3218 32.0098 11.1055 31.4692 11.1055C30.9286 11.1055 30.411 11.3218 30.0298 11.7056C29.6488 12.0894 29.4354 12.6091 29.4354 13.1502V31.6755C29.4237 31.9405 29.4695 32.205 29.5699 32.4506C29.665 32.6833 29.807 32.8937 29.9869 33.0686C30.0066 33.097 30.0498 33.1536 30.1199 33.203C30.12 33.2031 30.12 33.2031 30.1201 33.2032C30.2882 33.3712 30.4878 33.5048 30.7078 33.596L30.8994 33.1342L30.7078 33.5961Z" fill="#8E669F" stroke="#8E669F"/>
</svg>
