<svg width="60" height="60" viewBox="0 0 60 60" fill="none" xmlns="http://www.w3.org/2000/svg">
<g clip-path="url(#clip0_186_1609)">
<path d="M10 6C10 8.20912 8.20912 10 6 10C3.79086 10 2 8.20912 2 6C2 3.79086 3.79086 2 6 2C8.20912 2 10 3.79086 10 6ZM10 6H18C24.6274 6 30 11.3726 30 18V42C30 48.6276 35.3726 54 42 54H50M50 54C50 56.2092 51.7908 58 54 58C56.2092 58 58 56.2092 58 54C58 51.7908 56.2092 50 54 50C51.7908 50 50 51.7908 50 54Z" stroke="#6A398E" stroke-width="4"/>
</g>
<defs>
<clipPath id="clip0_186_1609">
<rect width="60" height="60" fill="white"/>
</clipPath>
</defs>
</svg>
