<svg width="54" height="54" viewBox="0 0 54 54" fill="none" xmlns="http://www.w3.org/2000/svg">
<path fill-rule="evenodd" clip-rule="evenodd" d="M50.8235 35.7226C48.8922 37.0853 45.5156 39.0007 41.1511 40.1823C40.6207 37.2981 38.5432 34.9126 35.6368 34.02C33.0575 33.2259 30.4306 32.6605 27.775 32.2856C29.7984 30.5767 31.1961 28.1848 31.5995 25.4467C32.2157 25.4245 32.8605 25.4118 33.5975 25.4118C38.2669 25.4372 42.9109 26.1519 47.4056 27.5336C49.4481 28.1626 50.8235 30.0018 50.8235 32.1141V35.7226ZM38.1176 45.252C34.9062 47.5232 28.8296 50.8235 20.647 50.8235C17.0068 50.8235 9.98363 50.0865 3.17646 45.2519V41.6308C3.17646 39.5216 4.55506 37.6793 6.60068 37.0503C11.1685 35.6527 15.8919 34.9443 20.647 34.9443H20.8853C25.5705 34.9666 30.2177 35.6781 34.7061 37.0567C36.7454 37.6825 38.1176 39.5216 38.1176 41.6308V45.252H38.1176ZM12.7058 23.8235V20.647C12.7058 16.2699 16.2667 12.7059 20.647 12.7059C25.0274 12.7059 28.5882 16.2699 28.5882 20.647V23.8235C28.5882 28.2039 25.0274 31.7647 20.647 31.7647C16.2667 31.7647 12.7059 28.2039 12.7059 23.8235H12.7058ZM33.3529 3.17649C35.4685 3.17649 37.4632 4.00556 38.9657 5.50802C40.465 7.01049 41.2941 9.00213 41.2941 11.1177V14.2941C41.2941 18.6745 37.7332 22.2353 33.3529 22.2353C32.8002 22.2353 32.2729 22.1622 31.7647 22.0542V20.647C31.7647 16.2477 29.1759 12.4708 25.4594 10.6698C25.6944 6.50542 29.1282 3.17649 33.3529 3.17649ZM48.3395 24.4969C45.7697 23.7092 43.1491 23.1406 40.4714 22.7626C42.895 20.7233 44.4705 17.7057 44.4705 14.2942V11.1176C44.4705 8.15399 43.3143 5.36186 41.2115 3.26222C39.1087 1.1594 36.3197 0 33.3529 0C27.7083 0 23.0834 4.24693 22.3782 9.70728C21.8096 9.61517 21.241 9.52939 20.647 9.52939C14.5164 9.52939 9.52942 14.5196 9.52942 20.647V23.8235C9.52942 27.235 11.1049 30.2527 13.5317 32.2951C10.8794 32.6668 8.23974 33.2259 5.66999 34.0136C2.28071 35.0556 0 38.1176 0 41.6308V46.8529L0.635287 47.3294C8.37635 53.1328 16.4922 54 20.647 54C30.3289 54 37.3425 49.8198 40.6588 47.3294L41.2941 46.853V43.4636C47.0657 42.0406 51.2968 39.3565 53.3647 37.8L53.9999 37.3236V32.1141C53.9999 28.5978 51.7224 25.5356 48.3395 24.4969Z" fill="#00BAAA"/>
</svg>
