<svg width="72" height="72" viewBox="0 0 72 72" fill="none" xmlns="http://www.w3.org/2000/svg">
<path fill-rule="evenodd" clip-rule="evenodd" d="M18.4622 21.9035C22.5863 16.7791 28.9102 13.5 36 13.5C37.095 13.5 38.1714 13.5782 39.2244 13.7293L41.1378 17.5558L33.8148 24.8787L25.9398 26.0037L22.0803 29.8632L18.4622 21.9035ZM15.6033 26.4886C14.2538 29.3777 13.5 32.6007 13.5 36C13.5 47.0835 21.514 56.2953 32.0634 58.1568L33.2967 56.1585L26.4441 46.641L31.1223 40.5768L28.898 39.4647L20.8208 40.8108L19.241 34.4916L15.6033 26.4886ZM23.8668 34.4406L24.1789 35.6892L29.6017 34.7853L34.1178 37.0434L42.2472 35.9142L56.8632 44.4405C57.9189 41.8341 58.5 38.985 58.5 36C58.5 26.8119 52.9926 18.9101 45.099 15.4157L46.6131 18.4443L35.9361 29.1213L28.0611 30.2463L23.8668 34.4406ZM54.7617 48.4242C50.9322 54.1956 44.5107 58.098 37.1577 58.4706L38.7033 55.9665L32.0559 46.734L36.2559 41.2896L41.3244 40.5858L54.7617 48.4242ZM36 9C21.0883 9 9 21.0883 9 36C9 50.9118 21.0883 63 36 63C50.9118 63 63 50.9118 63 36C63 21.0883 50.9118 9 36 9Z" fill="#00BAAA"/>
</svg>
