<svg width="21" height="15" viewBox="0 0 21 15" fill="none" xmlns="http://www.w3.org/2000/svg">
<path d="M0.499023 1.67066V1.19193C0.499023 0.882548 0.630793 0.585833 0.865344 0.367063C1.09989 0.148294 1.41801 0.0253906 1.74972 0.0253906L19.2595 0.0253906C19.5912 0.0253906 19.9093 0.148294 20.1438 0.367063C20.3784 0.585833 20.5101 0.882548 20.5101 1.19193V1.67066L10.5046 7.50338L0.499023 1.67066ZM10.836 8.68596C10.7366 8.74383 10.6218 8.77451 10.5046 8.77451C10.3874 8.77451 10.2726 8.74383 10.1732 8.68596L0.499023 3.0463V12.8574C0.499023 13.1668 0.630793 13.4635 0.865344 13.6822C1.09989 13.901 1.41801 14.0239 1.74972 14.0239H19.2595C19.5912 14.0239 19.9093 13.901 20.1438 13.6822C20.3784 13.4635 20.5101 13.1668 20.5101 12.8574V3.0463L10.836 8.68596Z" fill="#939393"/>
</svg>
