<svg width="67" height="53" viewBox="0 0 67 53" fill="none" xmlns="http://www.w3.org/2000/svg">
<path d="M64.6071 0H2.39286C1.06931 0 0 1.07656 0 2.40909V50.5909C0 51.9234 1.06931 53 2.39286 53H64.6071C65.9307 53 67 51.9234 67 50.5909V2.40909C67 1.07656 65.9307 0 64.6071 0ZM61.6161 8.34148V47.5795H5.38393V8.34148L3.32009 6.72287L6.25882 2.92102L9.45926 5.42798H57.5482L60.7487 2.92102L63.6874 6.72287L61.6161 8.34148ZM57.5482 5.42045L33.5 24.2415L9.45179 5.42045L6.25134 2.91349L3.31261 6.71534L5.37645 8.33395L30.9202 28.3294C31.6548 28.904 32.5585 29.2159 33.4888 29.2159C34.419 29.2159 35.3228 28.904 36.0574 28.3294L61.6161 8.34148L63.6799 6.72287L60.7412 2.92102L57.5482 5.42045Z" fill="#8E669F"/>
</svg>
