<svg width="58" height="64" viewBox="0 0 58 64" fill="none" xmlns="http://www.w3.org/2000/svg">
<path fill-rule="evenodd" clip-rule="evenodd" d="M41.9086 1.08359C36.355 -0.133301 30.6223 0.566477 25.4612 3.05488C20.3124 5.53732 16.0172 9.6581 13.0384 14.8018C12.1693 16.3024 11.4209 17.8747 10.7967 19.5H5C2.51472 19.5 0.5 21.5147 0.5 24C0.5 26.4853 2.51472 28.5 5 28.5H8.67319C8.55808 29.6596 8.5 30.828 8.5 32C8.5 33.172 8.55808 34.3405 8.67319 35.5H5C2.51472 35.5 0.5 37.5147 0.5 40C0.5 42.4853 2.51472 44.5 5 44.5H10.7967C11.4209 46.1254 12.1693 47.6976 13.0384 49.1983C16.0172 54.342 20.3124 58.4627 25.4612 60.9452C30.6223 63.4336 36.355 64.1334 41.9086 62.9165C47.4534 61.7015 52.4672 58.6554 56.3623 54.2765C58.0141 52.4196 57.8477 49.5752 55.9908 47.9234C54.1338 46.2717 51.2895 46.438 49.6377 48.2949C46.9133 51.3577 43.5402 53.3454 39.9822 54.125C36.4331 54.9027 32.7524 54.4691 29.3699 52.8383C25.975 51.2014 22.9767 48.4005 20.8266 44.6879C20.7904 44.6255 20.7545 44.5629 20.7189 44.5H37C39.4853 44.5 41.5 42.4853 41.5 40C41.5 37.5147 39.4853 35.5 37 35.5H17.7326C17.5787 34.3493 17.5 33.1794 17.5 32C17.5 30.8207 17.5787 29.6508 17.7326 28.5H37C39.4853 28.5 41.5 26.4853 41.5 24C41.5 21.5147 39.4853 19.5 37 19.5H20.7189C20.7545 19.4372 20.7904 19.3746 20.8266 19.3122C22.9767 15.5996 25.975 12.7986 29.3699 11.1618C32.7524 9.53096 36.4331 9.09734 39.9822 9.87502C43.5402 10.6546 46.9133 12.6423 49.6377 15.7051C51.2895 17.5621 54.1338 17.7284 55.9908 16.0766C57.8477 14.4249 58.0141 11.5805 56.3623 9.72353C52.4672 5.34461 47.4534 2.29854 41.9086 1.08359Z" fill="#34C8BB"/>
</svg>
