<svg width="60" height="60" viewBox="0 0 60 60" fill="none" xmlns="http://www.w3.org/2000/svg">
<path fill-rule="evenodd" clip-rule="evenodd" d="M19.158 49.6662L5.7498 44.6191L4.04156 48.7591C4.04156 48.7591 2.40744 55.458 8.26627 57.6638C14.1322 59.8768 17.5098 53.8274 17.5098 53.8274L19.158 49.6662Z" fill="#4DCFC3"/>
<path fill-rule="evenodd" clip-rule="evenodd" d="M28.967 13.0333C23.1717 10.7075 15.0364 15.8075 12.2235 22.2345C11.0658 24.8816 10.5399 27.7369 10.1023 30.5533C9.89405 31.898 9.74581 33.278 9.48111 34.6192C9.14228 36.3027 8.63758 37.9227 8.1364 39.5569C7.44111 41.8263 8.20699 42.2075 10.3211 42.5957L17.7258 45.391C18.4811 45.751 19.9564 46.658 20.7152 45.811C21.3858 45.0522 21.2517 43.6686 21.6999 42.7686C22.2788 41.6004 22.9282 40.411 23.6446 39.3098C25.2293 36.8463 28.2364 35.0463 30.2729 32.9216C32.7964 30.2816 34.1905 27.6345 34.9599 24.1333C35.9835 19.471 33.6293 14.9004 28.967 13.0333Z" fill="#4DCFC3"/>
<path fill-rule="evenodd" clip-rule="evenodd" d="M35.2137 34.5488L48.1137 39.6418C48.1137 39.6418 45.4525 50.0641 37.5748 47.0324C29.6972 43.9935 35.2137 34.5488 35.2137 34.5488Z" fill="#4DCFC3"/>
<path fill-rule="evenodd" clip-rule="evenodd" d="M53.6134 2.53021C59.1193 4.57726 61.3357 13.2526 59.0169 19.4961C58.0604 22.062 56.5357 24.3631 54.9722 26.6043C54.224 27.6702 53.4122 28.7149 52.7028 29.8196C51.831 31.1961 51.104 32.6467 50.3698 34.0937C49.3428 36.1055 48.5628 35.8761 46.8545 34.8208L39.9193 32.0926C39.1675 31.8667 37.5581 31.5561 37.6004 30.5008C37.6393 29.5479 38.6451 28.6655 38.9345 27.769C39.3087 26.5937 39.651 25.3514 39.884 24.1408C40.4204 21.4302 39.5451 18.2784 39.5593 15.5255C39.5593 12.1055 40.3604 9.38432 42.1428 6.47256C44.5322 2.56903 49.1734 0.889029 53.6134 2.53021Z" fill="#4DCFC3"/>
</svg>
