<svg width="47" height="51" viewBox="0 0 47 51" fill="none" xmlns="http://www.w3.org/2000/svg">
<path fill-rule="evenodd" clip-rule="evenodd" d="M23.3988 5.08862C13.5625 5.08862 5.58862 13.0625 5.58862 22.8988V44.8325C5.58862 45.6085 6.42224 46.0991 7.1006 45.722L9.49844 44.3901C12.6103 42.6612 16.3994 42.6839 19.4902 44.4501L20.8741 45.2409C22.4386 46.135 24.359 46.135 25.9235 45.2409L27.3074 44.4501C30.3982 42.6839 34.1872 42.6612 37.2991 44.3901L39.6969 45.722C40.3755 46.0991 41.209 45.6085 41.209 44.8325V22.8988C41.209 13.0625 33.2351 5.08862 23.3988 5.08862ZM0.5 22.8988C0.5 10.2521 10.7521 0 23.3988 0C36.0455 0 46.2976 10.2521 46.2976 22.8988V44.8325C46.2976 49.4884 41.2957 52.4316 37.2258 50.1705L34.8278 48.8383C33.272 47.9737 31.3775 47.9852 29.8321 48.8683L28.4482 49.6591C25.3192 51.447 21.4783 51.447 18.3494 49.6591L16.9656 48.8683C15.4202 47.9852 13.5256 47.9737 11.9697 48.8383L9.57184 50.1705C5.50178 52.4316 0.5 49.4884 0.5 44.8325V22.8988ZM19.5823 21.6266C19.5823 23.7343 17.8736 25.4431 15.7659 25.4431C13.6581 25.4431 11.9494 23.7343 11.9494 21.6266C11.9494 19.5189 13.6581 17.8102 15.7659 17.8102C17.8736 17.8102 19.5823 19.5189 19.5823 21.6266ZM31.0317 25.4431C33.1394 25.4431 34.8482 23.7343 34.8482 21.6266C34.8482 19.5189 33.1394 17.8102 31.0317 17.8102C28.924 17.8102 27.2153 19.5189 27.2153 21.6266C27.2153 23.7343 28.924 25.4431 31.0317 25.4431Z" fill="#00BAAA"/>
</svg>
