<svg width="51" height="56" viewBox="0 0 51 56" fill="none" xmlns="http://www.w3.org/2000/svg">
<path d="M16.0007 24.3477H10.4355V29.9132H16.0007V24.3477Z" fill="#4DCFC3"/>
<path d="M40.3483 24.3477H34.7832V29.9132H40.3483V24.3477Z" fill="#4DCFC3"/>
<path d="M32.2311 24.3477H26.666V29.9132H32.2311V24.3477Z" fill="#4DCFC3"/>
<path d="M16.0007 33.043H10.4355V38.6085H16.0007V33.043Z" fill="#4DCFC3"/>
<path d="M32.2311 33.043H26.666V38.6085H32.2311V33.043Z" fill="#4DCFC3"/>
<path d="M24.1159 33.043H18.5508V38.6085H24.1159V33.043Z" fill="#4DCFC3"/>
<path d="M40.3483 41.7383H34.7832V47.3038H40.3483V41.7383Z" fill="#4DCFC3"/>
<path d="M32.2311 41.7383H26.666V47.3038H32.2311V41.7383Z" fill="#4DCFC3"/>
<path d="M24.1159 41.7383H18.5508V47.3038H24.1159V41.7383Z" fill="#4DCFC3"/>
<path d="M45.437 6.02148H40.9115V10.3604C40.9115 11.9794 39.5777 13.296 37.9384 13.296H32.0294C30.3901 13.296 29.0563 11.9794 29.0563 10.3604V6.02148H21.7179V10.3196C21.7179 11.9611 20.3695 13.296 18.7119 13.296H12.8686C11.211 13.296 9.86256 11.9611 9.86256 10.3196V6.02148H5.33706C2.39422 6.02148 0 8.39405 0 11.3102V50.7121C0 53.6282 2.39422 56.0008 5.33706 56.0008H45.437C48.3843 56.0008 50.7822 53.6283 50.7822 50.7121V11.3102C50.7822 8.39416 48.3843 6.02148 45.437 6.02148ZM46.9562 50.6094C46.9562 51.5457 46.3272 52.1745 45.391 52.1745H5.3912C4.45495 52.1745 3.82594 51.5457 3.82594 50.6094V19.4793H46.9562V50.6094Z" fill="#4DCFC3"/>
<path d="M12.8697 11.2117H18.7095C19.204 11.2117 19.6063 10.8122 19.6063 10.321V2.24142C19.6063 1.00548 18.5924 0 17.3459 0H14.2332C12.9869 0 11.9727 1.00538 11.9727 2.24142V10.321C11.9728 10.8122 12.375 11.2117 12.8697 11.2117Z" fill="#4DCFC3"/>
<path d="M32.0301 11.2117H37.939C38.4146 11.2117 38.8014 10.8275 38.8014 10.3557V2.20697C38.8014 0.990172 37.803 0 36.5755 0H33.3936C32.1663 0 31.168 0.990172 31.168 2.20697V10.3557C31.1679 10.8275 31.5547 11.2117 32.0301 11.2117Z" fill="#4DCFC3"/>
</svg>
