<svg width="56" height="56" viewBox="0 0 56 56" fill="none" xmlns="http://www.w3.org/2000/svg">
<g clip-path="url(#clip0_762_2262)">
<path d="M20.4364 20.3906C21.4021 20.3931 22.3679 20.4023 23.3336 20.4174C24.0663 20.418 24.0663 20.418 24.8138 20.4186C28.4477 20.4466 28.4477 20.4466 29.8669 21.1562C30.3931 21.1562 30.9193 21.1562 31.4614 21.1562C31.9619 21.1562 32.4624 21.1562 32.978 21.1562C33.1834 21.3616 33.3887 21.5669 33.6003 21.7785C34.4265 21.9067 35.2572 22.0064 36.0891 22.0896C38.5089 22.3316 38.5089 22.3316 39.2003 23.0229C39.3811 25.637 39.3957 28.2547 39.4181 30.8742C39.4284 31.7542 39.4453 32.6341 39.4691 33.5138C39.5034 34.7842 39.5168 36.0535 39.526 37.3243C39.5445 38.467 39.5445 38.467 39.5633 39.6327C39.2003 41.6896 39.2003 41.6896 37.6632 43.168C35.4791 45.1011 35.4791 45.1011 35.4669 50.4007C30.5389 50.4007 25.6109 50.4007 20.5336 50.4007C20.3283 48.5527 20.1229 46.7047 19.9114 44.8007C18.4853 43.0635 18.4853 43.0635 16.8003 41.6896C14.9336 38.9218 14.9336 38.9218 14.9336 37.334C15.5496 37.334 16.1656 37.334 16.8003 37.334C16.7937 36.8693 16.7872 36.4046 16.7805 35.9258C16.7547 33.8286 16.7385 31.7314 16.7225 29.634C16.7121 28.9025 16.7016 28.171 16.6909 27.4174C16.6869 26.7195 16.6829 26.0217 16.6787 25.3028C16.6722 24.6576 16.6657 24.0124 16.659 23.3477C16.9041 20.6252 17.804 20.5485 20.4364 20.3906Z" fill="#4DCFC3"/>
<path d="M44.8003 20.5332C47.8803 20.5332 50.9603 20.5332 54.1336 20.5332C54.1336 22.9972 54.1336 25.4612 54.1336 27.9999C54.7496 27.9999 55.3656 27.9999 56.0003 27.9999C56.0003 29.2319 56.0003 30.4639 56.0003 31.7332C55.3843 31.7332 54.7683 31.7332 54.1336 31.7332C54.1336 34.1972 54.1336 36.6612 54.1336 39.1999C51.0536 39.1999 47.9736 39.1999 44.8003 39.1999C44.8003 37.3519 44.8003 35.5039 44.8003 33.5999C44.1843 33.5999 43.5683 33.5999 42.9336 33.5999C42.9336 31.1359 42.9336 28.6719 42.9336 26.1332C43.5496 26.1332 44.1656 26.1332 44.8003 26.1332C44.8003 24.2852 44.8003 22.4372 44.8003 20.5332Z" fill="#4DCFC3"/>
<path d="M1.86667 20.5332C4.94667 20.5332 8.02667 20.5332 11.2 20.5332C11.2 22.3812 11.2 24.2292 11.2 26.1332C11.816 26.1332 12.432 26.1332 13.0667 26.1332C13.0667 28.5972 13.0667 31.0612 13.0667 33.5999C12.4507 33.5999 11.8347 33.5999 11.2 33.5999C11.2 35.4479 11.2 37.2959 11.2 39.1999C8.12 39.1999 5.04 39.1999 1.86667 39.1999C1.86667 36.7359 1.86667 34.2719 1.86667 31.7332C1.25067 31.7332 0.634667 31.7332 0 31.7332C0 30.5012 0 29.2692 0 27.9999C0.616 27.9999 1.232 27.9999 1.86667 27.9999C1.86667 25.5359 1.86667 23.0719 1.86667 20.5332Z" fill="#4DCFC3"/>
<path d="M41.2621 7.23438C41.8139 7.31138 42.3657 7.38838 42.9343 7.46771C43.1676 9.13993 43.1676 9.13993 42.9343 11.201C41.8093 12.6569 40.8026 13.2957 39.201 14.3122C37.7232 14.1955 37.7232 14.1955 36.7121 13.6899C36.2065 12.6788 36.2065 12.6788 36.0898 11.201C38.4016 7.5582 38.4016 7.5582 41.2621 7.23438Z" fill="#4DCFC3"/>
<path d="M14.3107 7.46589C15.6329 7.19366 15.6329 7.19366 17.4218 7.46589C18.8381 8.78928 20.0015 10.2673 21.1551 11.8214C20.7445 12.6428 20.3338 13.4641 19.9107 14.3103C17.7156 14.1222 16.7759 13.6696 15.0107 12.2881C13.6885 10.577 13.6885 10.577 13.8051 8.827C13.972 8.37783 14.1388 7.92866 14.3107 7.46589Z" fill="#4DCFC3"/>
<path d="M29.8661 3.73229C29.8661 6.19629 29.8661 8.66029 29.8661 11.199C27.3773 11.8212 27.3773 11.8212 26.1328 11.199C26.1328 8.73496 26.1328 6.27096 26.1328 3.73229C27.3773 3.11007 27.3773 3.11007 29.8661 3.73229Z" fill="#4DCFC3"/>
</g>
<defs>
<clipPath id="clip0_762_2262">
<rect width="56" height="56" fill="white"/>
</clipPath>
</defs>
</svg>
