<svg width="56" height="56" viewBox="0 0 56 56" fill="none" xmlns="http://www.w3.org/2000/svg">
<g clip-path="url(#clip0_762_2273)">
<path d="M31.1911 6.119C32.804 6.85216 34.3744 7.64472 35.9479 8.45894C36.5227 8.74897 37.0975 9.039 37.6897 9.33781C39.519 10.2629 41.3428 11.1982 43.1667 12.1339C44.4083 12.7641 45.6503 13.3937 46.8927 14.0225C49.9325 15.5629 52.9679 17.1118 56 18.6673C56 19.8993 56 21.1313 56 22.4006C52.3519 24.2721 48.6979 26.1317 45.0397 27.9833C43.7963 28.6144 42.5543 29.2481 41.3137 29.8846C39.5286 30.7998 37.7388 31.7052 35.9479 32.6089C35.3956 32.8948 34.8432 33.1806 34.2741 33.4751C29.141 36.043 29.141 36.043 26.1333 35.4673C24.0352 34.646 22.052 33.6438 20.0521 32.6089C19.4773 32.3189 18.9025 32.0289 18.3103 31.7301C16.481 30.805 14.6572 29.8697 12.8333 28.9339C11.5917 28.3037 10.3497 27.6742 9.10729 27.0454C6.0675 25.505 3.03214 23.9561 0 22.4006C0 21.1686 0 19.9366 0 18.6673C3.64811 16.7958 7.30207 14.9362 10.9603 13.0846C12.2037 12.4535 13.4457 11.8198 14.6863 11.1833C16.4714 10.2681 18.2612 9.36264 20.0521 8.45894C20.6045 8.17312 21.1568 7.88731 21.7259 7.59283C27.5336 4.68742 27.5336 4.68742 31.1911 6.119Z" fill="#4DCFC3"/>
<path d="M11.1988 31.1113C13.1175 32.0183 15.036 32.9259 16.9544 33.8336C17.4974 34.0902 18.0404 34.3469 18.5998 34.6113C19.1252 34.86 19.6506 35.1086 20.1919 35.3648C20.6741 35.5929 21.1564 35.821 21.6532 36.056C22.5468 36.4841 23.4315 36.9314 24.3048 37.3995C26.377 38.356 28.2907 38.3414 30.4877 37.9558C32.9615 37.0005 35.2697 35.7863 37.6044 34.5336C38.8347 33.8912 40.0653 33.2495 41.2964 32.6086C42.1042 32.1784 42.1042 32.1784 42.9283 31.7396C44.1766 31.1113 44.1766 31.1113 44.7988 31.1113C44.8833 32.7976 44.9447 34.4795 44.9933 36.1669C45.0193 36.6401 45.0454 37.1133 45.0722 37.6009C45.1268 40.1315 44.9985 41.7912 43.3891 43.811C41.9692 45.1558 40.9183 46.0678 39.1599 46.8613C38.7549 47.0514 38.3498 47.2415 37.9325 47.4374C34.7002 48.6904 31.6203 48.669 28.1933 48.6891C27.6579 48.7019 27.1225 48.7148 26.5709 48.728C21.8976 48.7562 17.2225 48.0837 13.6877 44.7613C13.3412 44.4461 12.9947 44.1309 12.6377 43.8061C10.6228 41.6534 11.1308 39.0865 11.1599 36.3224C11.1627 35.8235 11.1655 35.3246 11.1684 34.8106C11.1758 33.5775 11.1869 32.3444 11.1988 31.1113Z" fill="#4DCFC3"/>
<path d="M54.1315 26.7559C54.1439 27.296 54.1562 27.8361 54.1689 28.3925C54.2174 30.3942 54.2714 32.3955 54.329 34.3969C54.3528 35.2636 54.3745 36.1303 54.394 36.997C54.4224 38.242 54.4591 39.4868 54.4961 40.7316C54.5157 41.481 54.5352 42.2304 54.5553 43.0026C54.5728 44.8787 54.5728 44.8787 55.9982 46.0447C56.514 50.3187 55.4216 52.5968 52.8871 56.0003C50.6569 55.2569 50.1177 54.3226 49.0249 52.2961C48.1787 50.1119 48.2952 48.3682 48.5315 46.0447C48.9422 45.6341 49.3529 45.2234 49.776 44.8003C50.0077 43.0494 50.0077 43.0494 50.0336 41.0038C50.0577 40.2498 50.0817 39.4959 50.1065 38.7191C50.1258 37.9282 50.145 37.1373 50.1649 36.3225C50.1889 35.5269 50.213 34.7312 50.2378 33.9114C50.2966 31.9411 50.3498 29.9709 50.3982 28.0003C52.7315 26.7559 52.7315 26.7559 54.1315 26.7559Z" fill="#4DCFC3"/>
</g>
<defs>
<clipPath id="clip0_762_2273">
<rect width="56" height="56" fill="white"/>
</clipPath>
</defs>
</svg>
