<svg width="71" height="71" viewBox="0 0 71 71" fill="none" xmlns="http://www.w3.org/2000/svg">
<path d="M35.5 14.2C35.0338 14.1999 34.5721 14.2916 34.1413 14.47C33.7106 14.6483 33.3192 14.9098 32.9895 15.2395C32.6598 15.5692 32.3984 15.9606 32.22 16.3913C32.0416 16.8221 31.9499 17.2838 31.95 17.75V31.95H24.85C23.9085 31.95 23.0055 32.324 22.3398 32.9898C21.674 33.6555 21.3 34.5585 21.3 35.5C21.3 36.4415 21.674 37.3445 22.3398 38.0102C23.0055 38.676 23.9085 39.05 24.85 39.05H35.5C35.9662 39.0501 36.4279 38.9584 36.8587 38.78C37.2894 38.6016 37.6808 38.3402 38.0105 38.0105C38.3402 37.6808 38.6017 37.2894 38.78 36.8587C38.9584 36.4279 39.0501 35.9662 39.05 35.5V17.75C39.0501 17.2838 38.9584 16.8221 38.78 16.3913C38.6017 15.9606 38.3402 15.5692 38.0105 15.2395C37.6808 14.9098 37.2894 14.6483 36.8587 14.47C36.4279 14.2916 35.9662 14.1999 35.5 14.2ZM35.5 0C28.4788 0 21.6152 2.08204 15.7773 5.98283C9.93933 9.88362 5.3892 15.428 2.70229 21.9147C0.0153816 28.4015 -0.687637 35.5394 0.682138 42.4257C2.05191 49.312 5.43296 55.6375 10.3977 60.6023C15.3625 65.567 21.688 68.9481 28.5743 70.3179C35.4606 71.6876 42.5985 70.9846 49.0853 68.2977C55.572 65.6108 61.1164 61.0607 65.0172 55.2227C68.918 49.3848 71 42.5212 71 35.5C70.9892 26.0881 67.2456 17.0648 60.5904 10.4096C53.9352 3.75439 44.9119 0.0107675 35.5 0ZM35.5 63.9C29.883 63.9 24.3922 62.2344 19.7218 59.1137C15.0515 55.9931 11.4114 51.5576 9.26184 46.3682C7.11231 41.1788 6.54989 35.4685 7.64571 29.9594C8.74153 24.4504 11.4464 19.39 15.4182 15.4182C19.39 11.4464 24.4504 8.74152 29.9594 7.6457C35.4685 6.54988 41.1788 7.11229 46.3682 9.26182C51.5576 11.4113 55.9931 15.0514 59.1137 19.7218C62.2344 24.3922 63.9 29.883 63.9 35.5C63.8914 43.0295 60.8965 50.2481 55.5723 55.5723C50.2482 60.8965 43.0295 63.8914 35.5 63.9Z" fill="#34C8BB"/>
</svg>
