<svg width="57" height="57" viewBox="0 0 57 57" fill="none" xmlns="http://www.w3.org/2000/svg">
<path d="M28.5 18.6834C29.1319 18.6736 29.7638 18.6638 30.4148 18.6537C34.975 18.6782 34.975 18.6782 37.1292 20.0886C38.0887 21.6806 38.3655 22.8698 38.6333 24.7001C38.9902 26.402 38.9902 26.402 39.9 27.8667C42.3348 29.1791 44.8011 29.8393 47.5 30.4001C47.5 31.6541 47.5 32.9081 47.5 34.2001C43.5314 34.4205 39.7135 34.1001 36.1 32.3001C35.2836 30.9641 35.2836 30.9641 34.8333 29.7667C34.5198 31.3342 34.5198 31.3342 34.2 32.9334C34.6204 33.0559 35.0409 33.1783 35.4741 33.3045C37.1641 33.8029 38.8491 34.3158 40.5333 34.8334C41.4934 35.1273 41.4934 35.1273 42.4729 35.4271C43.7 36.1001 43.7 36.1001 44.3333 37.3271C44.3333 38.6334 44.3333 38.6334 43.7 39.6626C41.9235 40.8839 40.0779 41.2904 38 41.8001C38 43.0541 38 44.3081 38 45.6001C33.8741 45.6794 33.8741 45.6794 32.3396 45.2834C29.3511 44.5589 26.3772 44.8404 23.4333 45.6001C21.9558 45.6247 20.4775 45.6285 19 45.6001C19 44.3461 19 43.0921 19 41.8001C18.5959 41.6923 18.1918 41.5845 17.7754 41.4735C17.2521 41.32 16.7288 41.1665 16.1896 41.0084C15.6679 40.8614 15.1462 40.7145 14.6087 40.5631C13.3 39.9001 13.3 39.9001 12.684 38.6829C12.6667 37.3667 12.6667 37.3667 13.3569 36.345C14.8652 35.25 16.33 34.6928 18.0896 34.0813C18.7043 33.8633 19.3191 33.6453 19.9525 33.4208C21.5333 32.9334 21.5333 32.9334 22.8 32.9334C22.4865 31.3659 22.4865 31.3659 22.1667 29.7667C22.0181 30.1619 21.8695 30.557 21.7164 30.9641C20.4061 33.1082 18.5977 33.2398 16.2687 33.8661C13.9454 34.322 11.8606 34.3312 9.5 34.2001C9.5 32.9461 9.5 31.6921 9.5 30.4001C10.0266 30.2907 10.5532 30.1813 11.0957 30.0685C13.2651 29.5075 15.1245 28.9315 17.1 27.8667C18.0179 26.2368 18.3344 24.9203 18.6042 23.0771C19.903 18.0118 24.1392 18.6158 28.5 18.6834Z" fill="#4DCFC3"/>
<path d="M7.6 49.4004C21.394 49.4004 35.188 49.4004 49.4 49.4004C50.0333 51.9337 50.0333 51.9337 49.4 53.2004C35.606 53.2004 21.812 53.2004 7.6 53.2004C6.96667 50.6671 6.96667 50.6671 7.6 49.4004Z" fill="#4DCFC3"/>
<path d="M29.8048 3.498C32.0547 4.0514 32.9387 5.07673 34.1986 6.96649C34.6409 8.76496 34.6409 10.2347 34.1986 12.0332C32.9387 13.9229 32.0547 14.9482 29.8048 15.5016C27.3202 15.6805 26.1735 15.3387 24.0652 13.9332C22.6597 11.8249 22.3179 10.6782 22.4968 8.19357C23.4239 4.42433 26.2636 3.24314 29.8048 3.498Z" fill="#4DCFC3"/>
</svg>
