<svg width="43" height="41" viewBox="0 0 43 41" fill="none" xmlns="http://www.w3.org/2000/svg">
<path d="M21.5 0C17.2477 0 13.0909 1.2023 9.55525 3.45487C6.01959 5.70744 3.26388 8.9091 1.6366 12.655C0.00931559 16.4009 -0.416456 20.5227 0.413126 24.4993C1.24271 28.476 3.29038 32.1287 6.29721 34.9957C9.30404 37.8627 13.135 39.8151 17.3056 40.6061C21.4762 41.3971 25.7991 40.9911 29.7277 39.4395C33.6563 37.8879 37.0141 35.2604 39.3766 31.8892C41.7391 28.518 43 24.5545 43 20.5C43 15.0631 40.7348 9.8488 36.7028 6.00431C32.6708 2.15981 27.2022 0 21.5 0ZM33.3404 14.2182L17.9832 28.8611C17.8405 28.9983 17.6706 29.1072 17.4835 29.1816C17.2963 29.2559 17.0956 29.2942 16.8929 29.2942C16.6901 29.2942 16.4894 29.2559 16.3023 29.1816C16.1151 29.1072 15.9453 28.9983 15.8025 28.8611L8.12394 21.5396C7.98075 21.4031 7.86717 21.241 7.78967 21.0626C7.71218 20.8843 7.6723 20.6931 7.6723 20.5C7.6723 20.1101 7.83476 19.7361 8.12394 19.4604C8.41312 19.1846 8.80533 19.0297 9.21429 19.0297C9.62326 19.0297 10.0155 19.1846 10.3047 19.4604L16.8929 25.7568L31.1596 12.1389C31.4488 11.8632 31.841 11.7083 32.25 11.7083C32.659 11.7083 33.0512 11.8632 33.3404 12.1389C33.6295 12.4147 33.792 12.7886 33.792 13.1786C33.792 13.5685 33.6295 13.9425 33.3404 14.2182Z" fill="#00BAAC"/>
</svg>
