<svg width="60" height="60" viewBox="0 0 60 60" fill="none" xmlns="http://www.w3.org/2000/svg">
<path d="M29.8572 48.2232C36.2439 48.2232 40.6347 47.3936 40.7017 46.5965C40.9798 43.2659 36.6578 41.5268 34.9149 40.8738C33.9802 40.5241 32.6194 39.5039 32.6194 38.8695C32.6194 38.4492 32.6194 37.9237 32.6194 37.2038C33.1598 36.604 33.568 35.3837 33.8127 34.0026C34.3819 33.799 34.7065 33.4725 35.1129 32.0515C35.5453 30.5362 34.4628 30.5866 34.4628 30.5866C35.3379 27.6903 34.1866 24.9682 32.2567 25.1672C30.9257 22.8402 26.468 25.6992 25.0719 25.5001C25.0719 26.2991 25.4041 26.897 25.4041 26.897C24.9185 27.8206 25.1055 29.6584 25.2413 30.5866C25.1631 30.5866 24.1847 30.5959 24.6005 32.0515C25.005 33.4725 25.3306 33.799 25.8999 34.0026C26.1435 35.3838 26.5527 36.604 27.095 37.2038C27.095 37.9237 27.095 38.4492 27.095 38.8695C27.095 39.5039 25.6477 40.5744 24.7968 40.8738C23.0445 41.4904 18.7328 43.2659 19.0109 46.5965C19.0778 47.3935 23.4685 48.2232 29.8572 48.2232Z" fill="#4CCFC3"/>
<path d="M47.3153 6.66406H38.4286V8.56883C38.4286 12.2444 35.4375 15.2355 31.762 15.2355H27.9524C24.2767 15.2355 21.2857 12.2444 21.2857 8.56883V6.66406H12.3989C9.41723 6.66406 7 9.08129 7 12.063V54.5984C7 57.5802 9.41723 59.9974 12.3989 59.9974H47.3152C50.297 59.9974 52.7143 57.5802 52.7143 54.5984V12.063C52.7144 9.08129 50.2971 6.66406 47.3153 6.66406ZM47.0001 54.2831H12.7143V17.6164H47.0001V54.2831Z" fill="#4CCFC3"/>
<path d="M27.9533 13.3334H31.7629C34.3884 13.3334 36.5248 11.197 36.5248 8.57145V4.76191C36.5248 2.13633 34.3884 0 31.7629 0H27.9533C25.3276 0 23.1914 2.13633 23.1914 4.76191V8.57145C23.1914 11.1969 25.3277 13.3334 27.9533 13.3334ZM27.0009 4.76191C27.0009 4.23551 27.4268 3.80953 27.9533 3.80953H31.7629C32.2893 3.80953 32.7152 4.23551 32.7152 4.76191V6.66668C32.7152 7.19309 32.2893 7.61906 31.7629 7.61906H27.9533C27.4268 7.61906 27.0009 7.19309 27.0009 6.66668V4.76191Z" fill="#4CCFC3"/>
</svg>
