<svg width="131" height="82" viewBox="0 0 131 82" fill="none" xmlns="http://www.w3.org/2000/svg">
<path d="M83.5444 19.0954C79.5435 18.4296 69.2314 18.4736 62.3885 20.9621C55.5438 23.4503 43.0976 31.2281 39.3644 32.4749C35.6311 33.7181 35.3193 38.6979 43.7191 39.6297C52.1204 40.5646 59.5869 35.273 61.4533 34.3414C63.3201 33.4065 81.3657 36.2082 81.3657 36.2082L87.0432 37.6072L100.133 55.3008C102.43 53.3056 106.973 49.0709 108.123 45.8527C108.543 44.6806 109.166 43.6032 109.851 42.6463L91.3035 17.0664C88.9373 18.4076 86.0817 19.5188 83.5444 19.0954Z" fill="#4CCFC3"/>
<path d="M83.5459 40.1766L80.7949 39.899C77.1855 39.34 66.9786 37.8867 63.1471 37.8867C62.9777 37.8867 62.8439 37.8885 62.7439 37.8934C62.5898 37.9814 62.4118 38.0832 62.2373 38.1848C59.5188 39.7686 53.1482 43.4762 45.7293 43.4762C44.9162 43.4762 44.1015 43.4304 43.3089 43.3424C42.1064 43.2086 41.0492 43.0018 40.1143 42.7411C41 43.129 41.8165 43.6847 42.5145 44.3978C43.6121 45.5192 44.2911 46.8944 44.5606 48.3326C45.1992 48.1615 45.8613 48.0665 46.5388 48.0665C48.6154 48.0665 50.5584 48.883 52.0081 50.3667C53.4378 51.8269 54.2118 53.7578 54.1898 55.8006C54.1898 55.8208 54.1864 55.8413 54.1864 55.8615C56.2545 55.8681 58.1891 56.6848 59.6354 58.1617C61.0649 59.6218 61.8391 61.5525 61.8171 63.5956C61.8102 64.3002 61.702 64.9877 61.5106 65.6486C62.9775 65.9551 64.3207 66.6851 65.3945 67.7827C68.3451 70.7995 68.2926 75.6521 65.2776 78.6029L63.7686 80.08C63.7752 80.08 63.7821 80.08 63.7888 80.08C66.3261 79.897 68.462 78.332 69.06 75.974C70.0931 76.7886 71.3939 77.2781 72.8119 77.2781C76.1623 77.2781 78.879 74.5629 78.879 71.2109C78.879 70.8586 78.8434 70.5165 78.7841 70.1808C79.8513 71.1109 81.2419 71.6781 82.7681 71.6781C86.1185 71.6781 88.8355 68.9612 88.8355 65.611C89.5537 65.9108 90.3412 66.0784 91.1679 66.0784C94.5199 66.0784 97.235 63.3615 97.235 60.0113C97.235 57.467 95.9918 55.8106 93.0343 52.389L83.5459 40.1766Z" fill="#4CCFC3"/>
<path d="M39.8461 47.0099C38.332 45.4635 35.8522 45.4363 34.3058 46.949L28.7076 52.4284C27.1612 53.941 27.1341 56.4208 28.6467 57.9672C30.1609 59.5136 32.6407 59.5407 34.1871 58.0263L39.7868 52.5484C41.3314 51.036 41.3585 48.5563 39.8461 47.0099Z" fill="#4CCFC3"/>
<path d="M49.3377 52.9761C47.8251 51.4279 45.3453 51.4008 43.7989 52.9149L36.3343 60.2186C34.7861 61.7328 34.7608 64.2126 36.2731 65.7575C37.7858 67.3056 40.2673 67.3328 41.8137 65.8186L49.2784 58.5146C50.8248 57.0023 50.8519 54.5225 49.3377 52.9761Z" fill="#4CCFC3"/>
<path d="M56.9655 60.7723C55.4528 59.2259 52.9731 59.1969 51.4267 60.7114L43.962 68.0169C42.4156 69.5292 42.3885 72.009 43.9011 73.5572C45.4137 75.1021 47.8935 75.1292 49.4417 73.6148L56.9064 66.3111C58.4528 64.7966 58.4799 62.3169 56.9655 60.7723Z" fill="#4CCFC3"/>
<path d="M62.7261 70.3933C61.2135 68.8468 58.7337 68.8182 57.1873 70.3324L52.8326 74.5942C51.2862 76.1066 51.2591 78.5863 52.7717 80.133C54.2859 81.6794 56.7657 81.705 58.3121 80.1939L62.6668 75.9323C64.2134 74.4197 64.2388 71.9399 62.7261 70.3933Z" fill="#4CCFC3"/>
<path d="M130.643 35.2786L105.622 0.772079C105.018 -0.0645761 103.851 -0.249049 103.016 0.355543L91.933 8.39255C91.0979 8.99714 90.9117 10.1644 91.518 10.9992L116.539 45.5075C117.143 46.3427 118.311 46.5289 119.146 45.9225L130.23 37.8871C131.063 37.2804 131.25 36.1135 130.643 35.2786ZM122.13 38.3783C120.74 39.3877 118.794 39.076 117.784 37.6854C116.776 36.2949 117.086 34.3503 118.479 33.341C119.869 32.3314 121.814 32.643 122.823 34.0321C123.831 35.4242 123.521 37.3705 122.13 38.3783Z" fill="#4CCFC3"/>
<path d="M37.0452 42.0934C37.6347 42.0934 38.2106 42.1681 38.7694 42.295C34.0657 40.4912 33.2867 37.1917 33.1646 36.0281C32.8325 32.8943 34.8499 30.0405 38.1851 28.9293C39.5265 28.482 43.0428 26.5646 46.4441 24.7117C50.0927 22.7214 54.0969 20.5382 57.5793 18.9321C53.1653 18.575 49.0288 18.7257 46.8203 19.0931C44.4421 19.4894 41.7863 18.5394 39.5148 17.3164L20.8218 43.0946C21.3824 43.9364 21.8854 44.858 22.2392 45.8504C22.7627 47.3139 23.989 48.9872 25.3863 50.5659C25.6048 50.2847 25.8368 50.0102 26.0978 49.7546L31.6957 44.2751C33.1342 42.8692 35.0347 42.0934 37.0452 42.0934Z" fill="#4CCFC3"/>
<path d="M39.0682 8.39101L27.9837 0.355543C27.1504 -0.249049 25.9834 -0.0645761 25.377 0.772079L0.355904 35.2789C-0.250479 36.1137 -0.0624231 37.2807 0.770906 37.8873L11.8536 45.9228C12.6888 46.5292 13.8557 46.3429 14.4606 45.506L39.4817 10.9995C40.0878 10.1646 39.9015 8.99739 39.0682 8.39101ZM31.6611 12.2463C30.6533 13.6351 28.707 13.9467 27.3164 12.9374C25.924 11.9293 25.6139 9.98322 26.6235 8.59263C27.6314 7.20204 29.5777 6.89041 30.9683 7.89977C32.3606 8.90938 32.669 10.8539 31.6611 12.2463Z" fill="#4CCFC3"/>
</svg>
