<svg width="54" height="56" viewBox="0 0 54 56" fill="none" xmlns="http://www.w3.org/2000/svg">
<path d="M2 45.125L6.95625 37.25C9.81562 32.9375 14.5812 30.125 19.9187 30.125H32.5C32.5 34.25 29.0688 37.625 24.875 37.625H21.0625" stroke="#6A398E" stroke-width="3" stroke-miterlimit="10" stroke-linecap="round" stroke-linejoin="round"/>
<path d="M26.7812 37.625H40.125L42.4125 34.625C44.5094 31.8125 47.9406 30.125 51.5625 30.125L46.4156 39.125C43.7469 44 38.4094 47 32.8813 47C23.9219 47 15.1531 49.625 7.71875 54.5" stroke="#6A398E" stroke-width="3" stroke-miterlimit="10" stroke-linecap="round" stroke-linejoin="round"/>
<path d="M30.5938 17C30.5938 9.6875 36.5031 3.875 43.9375 3.875C43.9375 11.1875 38.0281 17 30.5938 17Z" stroke="#6A398E" stroke-width="3" stroke-miterlimit="10" stroke-linecap="round" stroke-linejoin="round"/>
<path d="M30.5938 22.625C23.1594 22.625 17.25 16.8125 17.25 9.5C24.6844 9.5 30.5938 15.3125 30.5938 22.625Z" stroke="#6A398E" stroke-width="3" stroke-miterlimit="10" stroke-linecap="round" stroke-linejoin="round"/>
<path d="M30.5938 2V30.125" stroke="#6A398E" stroke-width="3" stroke-miterlimit="10" stroke-linecap="round" stroke-linejoin="round"/>
</svg>
