<svg width="96" height="96" viewBox="0 0 96 96" fill="none" xmlns="http://www.w3.org/2000/svg">
<path opacity="0.5" d="M55.2859 87.819L52.7086 92.1733C50.4114 96.0542 44.673 96.0542 42.3758 92.1733L39.7985 87.819C37.7995 84.4416 36.8 82.7533 35.1945 81.8191C33.589 80.8854 31.5676 80.8507 27.5249 80.7813C21.5567 80.6781 17.8135 80.3125 14.6743 79.0122C8.84969 76.5995 4.22208 71.9722 1.80946 66.1473C-2.07663e-07 61.7792 0 56.241 0 45.1651V40.4109C0 24.8483 -4.15326e-07 17.0669 3.50291 11.3507C5.46298 8.1522 8.1522 5.46298 11.3507 3.50291C17.0669 -4.15326e-07 24.8483 0 40.4109 0H54.6735C70.236 0 78.0172 -4.15326e-07 83.7337 3.50291C86.9323 5.46298 89.6213 8.1522 91.5815 11.3507C95.0844 17.0669 95.0844 24.8483 95.0844 40.4109V45.1651C95.0844 56.241 95.0844 61.7792 93.2749 66.1473C90.8621 71.9722 86.2349 76.5995 80.41 79.0122C77.2708 80.3125 73.5278 80.6781 67.5593 80.7813C63.5163 80.8507 61.4953 80.8854 59.8898 81.8191C58.2843 82.7529 57.2845 84.4416 55.2859 87.819Z" fill="#4CCFC3"/>
<path opacity="0.5" d="M55.2859 87.819L52.7086 92.1733C50.4114 96.0542 44.673 96.0542 42.3758 92.1733L39.7985 87.819C37.7995 84.4416 36.8 82.7533 35.1945 81.8191C33.589 80.8854 31.5676 80.8507 27.5249 80.7813C21.5567 80.6781 17.8135 80.3125 14.6743 79.0122C8.84969 76.5995 4.22208 71.9722 1.80946 66.1473C-2.07663e-07 61.7792 0 56.241 0 45.1651V40.4109C0 24.8483 -4.15326e-07 17.0669 3.50291 11.3507C5.46298 8.1522 8.1522 5.46298 11.3507 3.50291C17.0669 -4.15326e-07 24.8483 0 40.4109 0H54.6735C70.236 0 78.0172 -4.15326e-07 83.7337 3.50291C86.9323 5.46298 89.6213 8.1522 91.5815 11.3507C95.0844 17.0669 95.0844 24.8483 95.0844 40.4109V45.1651C95.0844 56.241 95.0844 61.7792 93.2749 66.1473C90.8621 71.9722 86.2349 76.5995 80.41 79.0122C77.2708 80.3125 73.5278 80.6781 67.5593 80.7813C63.5163 80.8507 61.4953 80.8854 59.8898 81.8191C58.2843 82.7529 57.2845 84.4416 55.2859 87.819Z" fill="#4CCFC3"/>
<path opacity="0.5" d="M55.2859 87.819L52.7086 92.1733C50.4114 96.0542 44.673 96.0542 42.3758 92.1733L39.7985 87.819C37.7995 84.4416 36.8 82.7533 35.1945 81.8191C33.589 80.8854 31.5676 80.8507 27.5249 80.7813C21.5567 80.6781 17.8135 80.3125 14.6743 79.0122C8.84969 76.5995 4.22208 71.9722 1.80946 66.1473C-2.07663e-07 61.7792 0 56.241 0 45.1651V40.4109C0 24.8483 -4.15326e-07 17.0669 3.50291 11.3507C5.46298 8.1522 8.1522 5.46298 11.3507 3.50291C17.0669 -4.15326e-07 24.8483 0 40.4109 0H54.6735C70.236 0 78.0172 -4.15326e-07 83.7337 3.50291C86.9323 5.46298 89.6213 8.1522 91.5815 11.3507C95.0844 17.0669 95.0844 24.8483 95.0844 40.4109V45.1651C95.0844 56.241 95.0844 61.7792 93.2749 66.1473C90.8621 71.9722 86.2349 76.5995 80.41 79.0122C77.2708 80.3125 73.5278 80.6781 67.5593 80.7813C63.5163 80.8507 61.4953 80.8854 59.8898 81.8191C58.2843 82.7529 57.2845 84.4416 55.2859 87.819Z" fill="#4CCFC3"/>
<path opacity="0.5" d="M55.2859 87.819L52.7086 92.1733C50.4114 96.0542 44.673 96.0542 42.3758 92.1733L39.7985 87.819C37.7995 84.4416 36.8 82.7533 35.1945 81.8191C33.589 80.8854 31.5676 80.8507 27.5249 80.7813C21.5567 80.6781 17.8135 80.3125 14.6743 79.0122C8.84969 76.5995 4.22208 71.9722 1.80946 66.1473C-2.07663e-07 61.7792 0 56.241 0 45.1651V40.4109C0 24.8483 -4.15326e-07 17.0669 3.50291 11.3507C5.46298 8.1522 8.1522 5.46298 11.3507 3.50291C17.0669 -4.15326e-07 24.8483 0 40.4109 0H54.6735C70.236 0 78.0172 -4.15326e-07 83.7337 3.50291C86.9323 5.46298 89.6213 8.1522 91.5815 11.3507C95.0844 17.0669 95.0844 24.8483 95.0844 40.4109V45.1651C95.0844 56.241 95.0844 61.7792 93.2749 66.1473C90.8621 71.9722 86.2349 76.5995 80.41 79.0122C77.2708 80.3125 73.5278 80.6781 67.5593 80.7813C63.5163 80.8507 61.4953 80.8854 59.8898 81.8191C58.2843 82.7529 57.2845 84.4416 55.2859 87.819Z" fill="#4CCFC3"/>
<path opacity="0.5" d="M55.2859 87.819L52.7086 92.1733C50.4114 96.0542 44.673 96.0542 42.3758 92.1733L39.7985 87.819C37.7995 84.4416 36.8 82.7533 35.1945 81.8191C33.589 80.8854 31.5676 80.8507 27.5249 80.7813C21.5567 80.6781 17.8135 80.3125 14.6743 79.0122C8.84969 76.5995 4.22208 71.9722 1.80946 66.1473C-2.07663e-07 61.7792 0 56.241 0 45.1651V40.4109C0 24.8483 -4.15326e-07 17.0669 3.50291 11.3507C5.46298 8.1522 8.1522 5.46298 11.3507 3.50291C17.0669 -4.15326e-07 24.8483 0 40.4109 0H54.6735C70.236 0 78.0172 -4.15326e-07 83.7337 3.50291C86.9323 5.46298 89.6213 8.1522 91.5815 11.3507C95.0844 17.0669 95.0844 24.8483 95.0844 40.4109V45.1651C95.0844 56.241 95.0844 61.7792 93.2749 66.1473C90.8621 71.9722 86.2349 76.5995 80.41 79.0122C77.2708 80.3125 73.5278 80.6781 67.5593 80.7813C63.5163 80.8507 61.4953 80.8854 59.8898 81.8191C58.2843 82.7529 57.2845 84.4416 55.2859 87.819Z" fill="#4CCFC3"/>
<path opacity="0.5" d="M55.2859 87.819L52.7086 92.1733C50.4114 96.0542 44.673 96.0542 42.3758 92.1733L39.7985 87.819C37.7995 84.4416 36.8 82.7533 35.1945 81.8191C33.589 80.8854 31.5676 80.8507 27.5249 80.7813C21.5567 80.6781 17.8135 80.3125 14.6743 79.0122C8.84969 76.5995 4.22208 71.9722 1.80946 66.1473C-2.07663e-07 61.7792 0 56.241 0 45.1651V40.4109C0 24.8483 -4.15326e-07 17.0669 3.50291 11.3507C5.46298 8.1522 8.1522 5.46298 11.3507 3.50291C17.0669 -4.15326e-07 24.8483 0 40.4109 0H54.6735C70.236 0 78.0172 -4.15326e-07 83.7337 3.50291C86.9323 5.46298 89.6213 8.1522 91.5815 11.3507C95.0844 17.0669 95.0844 24.8483 95.0844 40.4109V45.1651C95.0844 56.241 95.0844 61.7792 93.2749 66.1473C90.8621 71.9722 86.2349 76.5995 80.41 79.0122C77.2708 80.3125 73.5278 80.6781 67.5593 80.7813C63.5163 80.8507 61.4953 80.8854 59.8898 81.8191C58.2843 82.7529 57.2845 84.4416 55.2859 87.819Z" fill="#4CCFC3"/>
<path opacity="0.5" d="M55.2859 87.819L52.7086 92.1733C50.4114 96.0542 44.673 96.0542 42.3758 92.1733L39.7985 87.819C37.7995 84.4416 36.8 82.7533 35.1945 81.8191C33.589 80.8854 31.5676 80.8507 27.5249 80.7813C21.5567 80.6781 17.8135 80.3125 14.6743 79.0122C8.84969 76.5995 4.22208 71.9722 1.80946 66.1473C-2.07663e-07 61.7792 0 56.241 0 45.1651V40.4109C0 24.8483 -4.15326e-07 17.0669 3.50291 11.3507C5.46298 8.1522 8.1522 5.46298 11.3507 3.50291C17.0669 -4.15326e-07 24.8483 0 40.4109 0H54.6735C70.236 0 78.0172 -4.15326e-07 83.7337 3.50291C86.9323 5.46298 89.6213 8.1522 91.5815 11.3507C95.0844 17.0669 95.0844 24.8483 95.0844 40.4109V45.1651C95.0844 56.241 95.0844 61.7792 93.2749 66.1473C90.8621 71.9722 86.2349 76.5995 80.41 79.0122C77.2708 80.3125 73.5278 80.6781 67.5593 80.7813C63.5163 80.8507 61.4953 80.8854 59.8898 81.8191C58.2843 82.7529 57.2845 84.4416 55.2859 87.819Z" fill="#4CCFC3"/>
<path opacity="0.5" d="M55.2859 87.819L52.7086 92.1733C50.4114 96.0542 44.673 96.0542 42.3758 92.1733L39.7985 87.819C37.7995 84.4416 36.8 82.7533 35.1945 81.8191C33.589 80.8854 31.5676 80.8507 27.5249 80.7813C21.5567 80.6781 17.8135 80.3125 14.6743 79.0122C8.84969 76.5995 4.22208 71.9722 1.80946 66.1473C-2.07663e-07 61.7792 0 56.241 0 45.1651V40.4109C0 24.8483 -4.15326e-07 17.0669 3.50291 11.3507C5.46298 8.1522 8.1522 5.46298 11.3507 3.50291C17.0669 -4.15326e-07 24.8483 0 40.4109 0H54.6735C70.236 0 78.0172 -4.15326e-07 83.7337 3.50291C86.9323 5.46298 89.6213 8.1522 91.5815 11.3507C95.0844 17.0669 95.0844 24.8483 95.0844 40.4109V45.1651C95.0844 56.241 95.0844 61.7792 93.2749 66.1473C90.8621 71.9722 86.2349 76.5995 80.41 79.0122C77.2708 80.3125 73.5278 80.6781 67.5593 80.7813C63.5163 80.8507 61.4953 80.8854 59.8898 81.8191C58.2843 82.7529 57.2845 84.4416 55.2859 87.819Z" fill="#4CCFC3"/>
<path d="M42.7416 58.5182C36.4337 53.8695 26.1489 45.0124 26.1489 36.68C26.1489 23.9522 37.9159 19.2002 47.5429 29.0323C57.1697 19.2002 68.9369 23.9522 68.9369 36.68C68.9369 45.0124 58.6521 53.8695 52.3442 58.5182C50.1853 60.1099 49.1056 60.9053 47.5429 60.9053C45.9802 60.9053 44.9005 60.1099 42.7416 58.5182Z" fill="white"/>
</svg>
