<svg width="24" height="24" viewBox="0 0 24 24" fill="none" xmlns="http://www.w3.org/2000/svg">
<path d="M5.97422 23.4881C5.06295 23.4779 4.16025 23.3109 3.30574 22.9944C2.68175 22.7639 2.11718 22.3969 1.65333 21.9203C1.17516 21.4577 0.807422 20.8934 0.577442 20.2692C0.260947 19.4153 0.0940497 18.5133 0.0840756 17.6028C0.0140896 16.089 0 15.635 0 11.7994C0 7.96378 0.0154755 7.51136 0.0833827 5.99646C0.0945672 5.08627 0.26167 4.18471 0.577442 3.3309C0.808542 2.70721 1.17576 2.1428 1.65241 1.67866C2.11569 1.20123 2.68051 0.83408 3.30505 0.604404C4.15955 0.287856 5.06226 0.120834 5.97353 0.110671C7.48873 0.041424 7.94376 0.0273438 11.7798 0.0273438C15.6159 0.0273438 16.0707 0.042809 17.5866 0.110671C18.4976 0.121769 19.4 0.288763 20.2546 0.604404C20.8789 0.834383 21.4435 1.20141 21.907 1.67843C22.3845 2.14175 22.7519 2.7062 22.9822 3.33021C23.299 4.18414 23.4663 5.08624 23.4765 5.99692C23.5458 7.51182 23.5599 7.96539 23.5599 11.7998C23.5599 15.6343 23.5458 16.0879 23.4765 17.6028C23.4655 18.5133 23.2983 19.4152 22.9822 20.2692C22.7431 20.8886 22.3769 21.451 21.9071 21.9204C21.4373 22.3897 20.8744 22.7556 20.2546 22.9944C19.4001 23.311 18.4974 23.4781 17.5861 23.4883C16.0716 23.5576 15.6164 23.5717 11.7794 23.5717C7.94237 23.5717 7.4885 23.5583 5.97399 23.4883" fill="#939393"/>
<path d="M8.88716 11.8497C8.88721 11.273 9.05836 10.7093 9.37899 10.2299C9.69961 9.75047 10.1553 9.37681 10.6884 9.15619C11.2216 8.93557 11.8082 8.87789 12.3741 8.99045C12.94 9.10301 13.4599 9.38075 13.8678 9.78855C14.2758 10.1964 14.5536 10.7159 14.6661 11.2815C14.7786 11.8471 14.7208 12.4333 14.4999 12.966C14.279 13.4987 13.905 13.954 13.4251 14.2743C12.9453 14.5946 12.3812 14.7655 11.8042 14.7655C11.0304 14.7653 10.2885 14.4581 9.74142 13.9113C9.19438 13.3645 8.8871 12.6229 8.88716 11.8497ZM7.30982 11.8497C7.30982 12.738 7.57341 13.6064 8.06725 14.345C8.5611 15.0836 9.26302 15.6592 10.0843 15.9992C10.9055 16.3391 11.8092 16.4281 12.681 16.2548C13.5528 16.0815 14.3536 15.6537 14.9822 15.0256C15.6107 14.3974 16.0387 13.5971 16.2122 12.7259C16.3856 11.8547 16.2966 10.9516 15.9564 10.1309C15.6162 9.31021 15.0402 8.60875 14.3011 8.11523C13.562 7.62171 12.6931 7.3583 11.8042 7.3583C11.214 7.35827 10.6295 7.47442 10.0842 7.70012C9.53893 7.92583 9.04346 8.25665 8.62611 8.67372C8.20877 9.09079 7.87772 9.58593 7.65187 10.1309C7.42602 10.6758 7.30979 11.2599 7.30982 11.8497ZM15.4261 7.18033C15.426 7.38791 15.4875 7.59086 15.6029 7.76351C15.7182 7.93616 15.8822 8.07076 16.074 8.15028C16.2659 8.2298 16.4771 8.25069 16.6808 8.21028C16.8846 8.16987 17.0717 8.06999 17.2187 7.92327C17.3656 7.77655 17.4657 7.58958 17.5063 7.38601C17.547 7.18243 17.5263 6.97139 17.4469 6.77957C17.3674 6.58776 17.2329 6.42378 17.0602 6.30838C16.8876 6.19298 16.6845 6.13133 16.4768 6.13124C16.1984 6.13136 15.9314 6.24192 15.7345 6.43862C15.5376 6.63532 15.4268 6.90209 15.4266 7.18033M8.2686 18.9695C7.71359 18.9634 7.16377 18.8619 6.64321 18.6694C6.2657 18.524 5.92284 18.3012 5.63669 18.0153C5.35055 17.7295 5.12747 17.387 4.9818 17.0098C4.78911 16.4896 4.68754 15.9401 4.68153 15.3854C4.63903 14.4635 4.63072 14.1865 4.63072 11.8508C4.63072 9.51512 4.63996 9.23883 4.68153 8.31599C4.68826 7.76141 4.78981 7.21206 4.9818 6.69168C5.1273 6.31429 5.35032 5.97157 5.63648 5.6856C5.92264 5.39963 6.26558 5.17676 6.64321 5.03136C7.16375 4.8388 7.71359 4.7373 8.2686 4.73129C9.19113 4.68882 9.4683 4.68051 11.8046 4.68051C14.141 4.68051 14.4184 4.68951 15.3418 4.73152C15.8968 4.73825 16.4465 4.83973 16.9672 5.03159C17.3448 5.177 17.6878 5.39988 17.9739 5.68585C18.2601 5.97182 18.4831 6.31453 18.6286 6.69191C18.8213 7.2121 18.9229 7.76157 18.9289 8.31622C18.9714 9.23952 18.9797 9.51512 18.9797 11.8511C18.9797 14.187 18.9711 14.4631 18.9289 15.3859C18.9224 15.9405 18.8209 16.4899 18.6286 17.0102C18.4829 17.3874 18.2599 17.73 17.9737 18.0158C17.6876 18.3016 17.3447 18.5244 16.9672 18.6698C16.4467 18.8624 15.8968 18.9639 15.3418 18.9699C14.4193 19.0124 14.1421 19.0207 11.8046 19.0207C9.46714 19.0207 9.19089 19.0122 8.2686 18.9699M8.19608 3.15638C7.46985 3.17064 6.75131 3.30801 6.07109 3.56262C5.4896 3.7873 4.96152 4.13093 4.52068 4.57147C4.07985 5.01201 3.73599 5.53975 3.51117 6.12085C3.25642 6.80063 3.11897 7.51869 3.10465 8.24443C3.06146 9.17697 3.05176 9.47519 3.05176 11.8506C3.05176 14.226 3.06169 14.524 3.10465 15.4568C3.11896 16.1825 3.25642 16.9006 3.51117 17.5804C3.73601 18.1614 4.07986 18.6892 4.5207 19.1297C4.96153 19.5703 5.48961 19.9139 6.07109 20.1386C6.75134 20.3931 7.46986 20.5304 8.19608 20.5448C9.12969 20.5873 9.42764 20.5977 11.8046 20.5977C14.1816 20.5977 14.4798 20.5878 15.4132 20.5448C16.1394 20.5305 16.8579 20.3931 17.5382 20.1386C18.1196 19.9139 18.6477 19.5703 19.0886 19.1297C19.5294 18.6892 19.8732 18.1614 20.0981 17.5804C20.3532 16.9007 20.4906 16.1826 20.5046 15.4568C20.5471 14.5235 20.5568 14.226 20.5568 11.8506C20.5568 9.47519 20.5469 9.1772 20.5046 8.24443C20.4903 7.51868 20.3529 6.80062 20.0981 6.12085C19.8733 5.53986 19.5295 5.0122 19.0888 4.57167C18.6481 4.13115 18.1202 3.78745 17.5389 3.56262C16.8587 3.30784 16.1401 3.17047 15.4139 3.15638C14.4805 3.11367 14.1823 3.10352 11.8058 3.10352C9.42926 3.10352 9.13038 3.11344 8.19654 3.15638" fill="white"/>
</svg>
