<svg width="35" height="35" viewBox="0 0 35 35" fill="none" xmlns="http://www.w3.org/2000/svg">
<path d="M17.5173 12.9344C16.691 12.9344 15.8833 13.1846 15.1963 13.6533C14.5093 14.122 13.9738 14.7882 13.6576 15.5676C13.3414 16.3471 13.2587 17.2047 13.4199 18.0322C13.5811 18.8596 13.979 19.6197 14.5632 20.2162C15.1475 20.8128 15.8919 21.219 16.7023 21.3836C17.5127 21.5482 18.3527 21.4638 19.116 21.1409C19.8794 20.818 20.5319 20.2713 20.9909 19.5698C21.45 18.8684 21.695 18.0437 21.695 17.2C21.695 16.6398 21.5869 16.0852 21.377 15.5676C21.167 15.0501 20.8593 14.5799 20.4714 14.1838C20.0834 13.7877 19.6229 13.4735 19.116 13.2591C18.6092 13.0447 18.0659 12.9344 17.5173 12.9344ZM34.2448 8.7204C34.236 7.39214 33.9964 6.07602 33.5373 4.8332C33.1992 3.92377 32.676 3.09788 32.0024 2.41004C31.3287 1.7222 30.5199 1.18803 29.6292 0.8428C28.412 0.374038 27.123 0.129449 25.8221 0.1204C23.649 -1.15335e-07 23.0089 0 17.5173 0C12.0257 0 11.3856 -1.15335e-07 9.21251 0.1204C7.91163 0.129449 6.62264 0.374038 5.40544 0.8428C4.51476 1.18803 3.70589 1.7222 3.03223 2.41004C2.35857 3.09788 1.83542 3.92377 1.4973 4.8332C1.0382 6.07602 0.798655 7.39214 0.789793 8.7204C0.671875 10.9392 0.671875 11.5928 0.671875 17.2C0.671875 22.8072 0.671875 23.4608 0.789793 25.6796C0.807925 27.0125 1.04715 28.3327 1.4973 29.584C1.83392 30.4893 2.35663 31.3104 3.03024 31.992C3.70101 32.684 4.5116 33.2181 5.40544 33.5572C6.62264 34.026 7.91163 34.2706 9.21251 34.2796C11.3856 34.4 12.0257 34.4 17.5173 34.4C23.0089 34.4 23.649 34.4 25.8221 34.2796C27.123 34.2706 28.412 34.026 29.6292 33.5572C30.523 33.2181 31.3336 32.684 32.0044 31.992C32.678 31.3104 33.2007 30.4893 33.5373 29.584C33.996 28.3351 34.2355 27.0134 34.2448 25.6796C34.3627 23.4608 34.3627 22.8072 34.3627 17.2C34.3627 11.5928 34.3627 10.9392 34.2448 8.7204ZM29.9661 22.4804C29.912 23.5418 29.6902 24.5873 29.3091 25.5764C28.9821 26.4015 28.4959 27.151 27.8795 27.7803C27.2631 28.4097 26.5291 28.9061 25.721 29.24C24.7432 29.6074 23.7135 29.8107 22.672 29.842C21.3412 29.842 20.9875 29.842 17.5173 29.842C14.0471 29.842 13.6934 29.842 12.3626 29.842C11.3211 29.8107 10.2914 29.6074 9.31358 29.24C8.47822 28.923 7.72384 28.4174 7.10683 27.7608C6.49646 27.1438 6.02509 26.3983 5.7255 25.5764C5.36427 24.579 5.17063 23.5265 5.15276 22.4632C5.15276 21.1044 5.15276 20.7432 5.15276 17.2C5.15276 13.6568 5.15276 13.2956 5.15276 11.9368C5.17063 10.8735 5.36427 9.821 5.7255 8.8236C6.03593 7.97066 6.53118 7.2004 7.17421 6.5704C7.78121 5.95055 8.5105 5.46976 9.31358 5.16C10.2914 4.79262 11.3211 4.58932 12.3626 4.558C13.6934 4.558 14.0471 4.558 17.5173 4.558C20.9875 4.558 21.3412 4.558 22.672 4.558C23.7135 4.58932 24.7432 4.79262 25.721 5.16C26.5564 5.47696 27.3108 5.98263 27.9278 6.6392C28.5381 7.25625 29.0095 8.00167 29.3091 8.8236C29.6689 9.82204 29.868 10.8734 29.8987 11.9368C29.8987 13.2956 29.8987 13.6568 29.8987 17.2C29.8987 20.7432 30.0166 21.1044 29.9661 22.4632V22.4804ZM27.2708 9.6836C27.0702 9.12801 26.754 8.62347 26.344 8.20477C25.9339 7.78607 25.4397 7.46319 24.8956 7.2584C24.1485 6.99397 23.3616 6.86588 22.5709 6.88C21.257 6.88 20.8864 6.88 17.5173 6.88C14.1482 6.88 13.7776 6.88 12.4637 6.88C11.669 6.88793 10.882 7.03933 10.139 7.3272C9.6032 7.52269 9.11429 7.83239 8.70476 8.23571C8.29523 8.63903 7.97447 9.12673 7.7638 9.6664C7.51917 10.4324 7.39965 11.2343 7.41005 12.04C7.41005 13.3816 7.41005 13.76 7.41005 17.2C7.41005 20.64 7.41005 21.0184 7.41005 22.36C7.42675 23.1705 7.57474 23.9725 7.84803 24.7336C8.0486 25.2892 8.36482 25.7937 8.77489 26.2124C9.18495 26.6311 9.6791 26.954 10.2232 27.1588C10.942 27.4287 11.6983 27.5797 12.4637 27.606C13.7776 27.606 14.1482 27.606 17.5173 27.606C20.8864 27.606 21.257 27.606 22.5709 27.606C23.3656 27.5981 24.1526 27.4467 24.8956 27.1588C25.4397 26.954 25.9339 26.6311 26.344 26.2124C26.754 25.7937 27.0702 25.2892 27.2708 24.7336C27.5527 23.975 27.701 23.1714 27.7088 22.36C27.7088 21.0184 27.7088 20.64 27.7088 17.2C27.7088 13.76 27.7088 13.3816 27.7088 12.04C27.7093 11.2278 27.5607 10.4227 27.2708 9.6664V9.6836ZM17.5173 23.7704C16.673 23.7704 15.8371 23.6003 15.0573 23.2699C14.2775 22.9395 13.5692 22.4553 12.9731 21.8449C12.3769 21.2346 11.9045 20.5101 11.5829 19.7131C11.2614 18.916 11.097 18.062 11.0992 17.2C11.0992 15.8998 11.477 14.6288 12.1849 13.5479C12.8927 12.467 13.8987 11.6249 15.0755 11.1281C16.2523 10.6313 17.547 10.5022 18.7958 10.7571C20.0445 11.0121 21.191 11.6395 22.0903 12.5601C22.9896 13.4807 23.6011 14.6531 23.8475 15.9288C24.0939 17.2044 23.9641 18.526 23.4744 19.7263C22.9848 20.9266 22.1574 21.9516 21.097 22.6715C20.0365 23.3914 18.7907 23.7738 17.5173 23.7704ZM24.2555 11.9196C23.8831 11.8794 23.5385 11.6998 23.288 11.4156C23.0376 11.1314 22.899 10.7625 22.899 10.3802C22.899 9.99786 23.0376 9.62904 23.288 9.34481C23.5385 9.06058 23.8831 8.88105 24.2555 8.8408C24.6279 8.88105 24.9725 9.06058 25.2229 9.34481C25.4734 9.62904 25.612 9.99786 25.612 10.3802C25.612 10.7625 25.4734 11.1314 25.2229 11.4156C24.9725 11.6998 24.6279 11.8794 24.2555 11.9196Z" fill="white"/>
</svg>
