<svg width="84" height="82" viewBox="0 0 84 82" fill="none" xmlns="http://www.w3.org/2000/svg">
<path d="M83.1817 76.6216L68.73 36.2149C67.715 33.5566 65.4433 31.9133 62.8333 31.9133C60.2233 31.9133 58 33.5566 56.8883 36.3116L42.485 76.6216C41.8083 78.5066 42.775 80.5849 44.66 81.2616C46.545 81.9383 48.6233 80.9716 49.3 79.0866L52.2967 70.7249H73.3217L76.3183 79.0866C76.85 80.5849 78.2517 81.5033 79.75 81.5033C80.1367 81.5033 80.5717 81.4549 80.9583 81.3099C82.8433 80.6333 83.81 78.5549 83.1333 76.6699L83.1817 76.6216ZM54.955 63.4266L62.8817 41.2416L70.8083 63.4266H54.955ZM42.63 20.9416C31.7066 38.1966 21.8467 48.6366 9.86 55.5966C9.28 55.9349 8.65167 56.0799 8.07167 56.0799C6.815 56.0799 5.60667 55.4516 4.93 54.2916C3.915 52.5516 4.495 50.3283 6.235 49.3616C16.385 43.4649 24.6983 35.0066 34.0267 20.9899H3.625C1.64333 20.9899 0 19.3466 0 17.3649C0 15.3833 1.64333 13.7399 3.625 13.7399H21.75V4.16992C21.75 2.18826 23.3933 0.544922 25.375 0.544922C27.3566 0.544922 29 2.18826 29 4.16992V13.7399H47.125C49.1067 13.7399 50.75 15.3833 50.75 17.3649C50.75 19.3466 49.1067 20.9899 47.125 20.9899H42.5817L42.63 20.9416ZM42.8233 56.0799C42.195 56.0799 41.5667 55.9349 40.9867 55.5966C37.845 53.7599 34.8 51.7299 31.9483 49.6033C30.3533 48.3949 30.015 46.1233 31.2233 44.5283C32.4317 42.9333 34.7033 42.5949 36.2983 43.8033C38.9083 45.7849 41.76 47.6216 44.66 49.3133C46.4 50.3283 46.98 52.5516 45.965 54.2916C45.2883 55.4516 44.08 56.0799 42.8233 56.0799Z" fill="#34C8BB"/>
</svg>
