<svg width="14" height="14" viewBox="0 0 14 14" fill="none" xmlns="http://www.w3.org/2000/svg">
<path d="M7.17963 0.0253906C3.58649 0.0253906 0.672363 2.93595 0.672363 6.52471C0.672363 10.1135 3.58649 13.024 7.17963 13.024C10.7728 13.024 13.6869 10.1135 13.6869 6.52471C13.6869 2.93595 10.7728 0.0253906 7.17963 0.0253906ZM7.70304 11.8654C7.67474 11.8654 7.64645 11.8654 7.60401 11.8796V8.8136C8.33962 8.79947 9.00449 8.78534 9.61278 8.74295C9.07522 10.396 8.07084 11.4981 7.70304 11.8654ZM6.65622 11.8654C6.27427 11.484 5.28403 10.3819 4.74648 8.74295C5.34062 8.78534 6.01964 8.8136 6.75524 8.8136V11.8796C6.72695 11.8796 6.69865 11.8654 6.65622 11.8654ZM1.80406 6.52471C1.80406 6.17148 1.8465 5.81826 1.90308 5.47916C2.2143 5.42265 2.80844 5.33788 3.64307 5.2531C3.57234 5.66284 3.5299 6.08671 3.5299 6.53884C3.5299 6.99096 3.57234 7.41483 3.62892 7.81044C2.80844 7.72567 2.20016 7.64089 1.88894 7.58438C1.8465 7.23115 1.80406 6.87793 1.80406 6.52471ZM4.39282 6.52471C4.39282 6.04432 4.4494 5.5922 4.53428 5.16833C5.18501 5.12594 5.92061 5.08355 6.75524 5.08355V7.96586C5.93476 7.95173 5.18501 7.92347 4.52014 7.86696C4.44941 7.45722 4.39282 7.00509 4.39282 6.52471ZM7.68889 1.18396C8.07084 1.56545 9.04693 2.69576 9.59863 4.30646C9.00449 4.26408 8.33962 4.23582 7.60401 4.23582V1.16984C7.63231 1.16984 7.6606 1.18396 7.68889 1.18396ZM6.75524 1.16984V4.23582C6.01964 4.24995 5.35476 4.26408 4.76062 4.30646C5.29818 2.69576 6.28841 1.56545 6.65622 1.18396C6.69865 1.18396 6.72695 1.16984 6.75524 1.16984ZM7.60401 7.96586V5.08355C8.42449 5.09768 9.17424 5.12594 9.82497 5.16833C9.90985 5.5922 9.96643 6.04432 9.96643 6.52471C9.96643 7.00509 9.92399 7.45722 9.83912 7.88109C9.18839 7.92347 8.43864 7.95173 7.60401 7.96586ZM10.702 5.2531C11.5367 5.33788 12.1308 5.42265 12.442 5.47916C12.5128 5.81826 12.5552 6.17148 12.5552 6.52471C12.5552 6.87793 12.5128 7.23115 12.4562 7.57025C12.145 7.62677 11.5508 7.71154 10.7162 7.79631C10.7869 7.38657 10.8152 6.9627 10.8152 6.51058C10.8152 6.08671 10.7728 5.64871 10.702 5.2531ZM12.1874 4.57491C11.7913 4.5184 11.2254 4.44775 10.504 4.37711C10.1645 3.16202 9.57034 2.18712 9.07522 1.4948C10.504 2.0317 11.6357 3.16202 12.1874 4.57491ZM5.28403 1.4948C4.77477 2.17299 4.19477 3.14789 3.85526 4.36298C3.14795 4.41949 2.5821 4.50427 2.17186 4.56078C2.72357 3.16202 3.86941 2.0317 5.28403 1.4948ZM2.17186 8.4745C2.56796 8.53102 3.13381 8.60166 3.84112 8.67231C4.18063 9.8874 4.74648 10.8623 5.25574 11.5405C3.84112 10.9895 2.72357 9.87327 2.17186 8.4745ZM9.10351 11.5405C9.61278 10.8623 10.1786 9.90153 10.5181 8.68644C11.2254 8.62992 11.7913 8.54515 12.1874 8.48863C11.6357 9.87327 10.5181 10.9895 9.10351 11.5405Z" fill="#939393"/>
</svg>
