<svg width="24" height="24" viewBox="0 0 24 24" fill="none" xmlns="http://www.w3.org/2000/svg">
<path d="M23.8457 11.7207C23.8457 18.0717 18.6967 23.2207 12.3457 23.2207C5.99462 23.2207 0.845703 18.0717 0.845703 11.7207C0.845703 5.36962 5.99462 0.220703 12.3457 0.220703C18.6967 0.220703 23.8457 5.36962 23.8457 11.7207Z" fill="#939393"/>
<path d="M19.2158 12.646V17.3875H16.4672V12.9642C16.4672 11.8532 16.0708 11.0945 15.0748 11.0945C14.3161 11.0945 13.8646 11.606 13.6654 12.1005C13.5924 12.2766 13.5743 12.5219 13.5743 12.7701V17.3875H10.8247C10.8247 17.3875 10.8618 9.89535 10.8247 9.11975H13.5743V10.2917C13.5694 10.3007 13.5614 10.3096 13.5563 10.3186H13.5743V10.2917C13.9397 9.72929 14.5913 8.92544 16.0517 8.92544C17.8605 8.92544 19.2158 10.1075 19.2158 12.646ZM7.95002 5.13477C7.00909 5.13477 6.39453 5.75236 6.39453 6.56316C6.39453 7.35689 6.99111 7.99141 7.914 7.99141H7.93102C8.88994 7.99141 9.48651 7.35693 9.48651 6.56316C9.46848 5.75241 8.88994 5.13477 7.95002 5.13477ZM6.55769 17.3875H9.30532V9.11975H6.55769V17.3875Z" fill="white"/>
</svg>
