<svg width="35" height="35" viewBox="0 0 35 35" fill="none" xmlns="http://www.w3.org/2000/svg">
<path d="M18.887 15.2152H18.9128V15.1738L18.887 15.2152ZM18.887 15.2152H18.9128V15.1738L18.887 15.2152ZM18.887 15.2152H18.9128V15.1738L18.887 15.2152ZM18.887 15.2152H18.9128V15.1738L18.887 15.2152ZM18.887 15.2152H18.9128V15.1738L18.887 15.2152ZM18.887 15.2152H18.9128V15.1738L18.887 15.2152ZM18.887 15.2152H18.9128V15.1738L18.887 15.2152ZM18.887 15.2152H18.9128V15.1738L18.887 15.2152ZM18.887 15.2152H18.9128V15.1738L18.887 15.2152ZM18.887 15.2152H18.9128V15.1738L18.887 15.2152ZM18.887 15.2152H18.9128V15.1738L18.887 15.2152ZM18.887 15.2152H18.9128V15.1738L18.887 15.2152ZM18.887 15.2152H18.9128V15.1738L18.887 15.2152ZM18.887 15.2152H18.9128V15.1738L18.887 15.2152ZM18.887 15.2152H18.9128V15.1738L18.887 15.2152ZM18.887 15.2152H18.9128V15.1738L18.887 15.2152ZM17.2087 0C13.877 0 10.6201 1.00876 7.8499 2.89872C5.07968 4.78868 2.92056 7.47495 1.64557 10.6178C0.37058 13.7607 0.0369845 17.2191 0.686969 20.5555C1.33695 23.892 2.94133 26.9568 5.2972 29.3622C7.65308 31.7677 10.6546 33.4058 13.9223 34.0695C17.19 34.7332 20.5771 34.3925 23.6552 33.0907C26.7333 31.7889 29.3642 29.5843 31.2152 26.7558C33.0662 23.9273 34.0541 20.6018 34.0541 17.2C34.0493 12.6398 32.2729 8.26781 29.1148 5.04327C25.9568 1.81872 21.6749 0.00498437 17.2087 0ZM12.9964 24.9432C12.9955 25.0195 12.9651 25.0923 12.912 25.1458C12.8588 25.1994 12.7871 25.2294 12.7124 25.2294H9.46653C9.39218 25.2294 9.32088 25.1993 9.26831 25.1456C9.21574 25.0919 9.1862 25.0191 9.1862 24.9432V13.8067C9.18572 13.7688 9.19261 13.7312 9.20648 13.696C9.22034 13.6608 9.24092 13.6288 9.267 13.6019C9.29307 13.5749 9.32414 13.5535 9.3584 13.5388C9.39265 13.5242 9.42941 13.5167 9.46653 13.5167H12.7124C12.7497 13.5167 12.7867 13.5242 12.8211 13.5388C12.8556 13.5534 12.8869 13.5747 12.9133 13.6016C12.9396 13.6286 12.9605 13.6605 12.9748 13.6957C12.9891 13.7309 12.9964 13.7686 12.9964 13.8067V24.9432ZM10.9751 12.0291C10.5717 12.0291 10.1773 11.9069 9.84191 11.6781C9.50648 11.4492 9.24504 11.124 9.09065 10.7434C8.93627 10.3628 8.89588 9.94409 8.97458 9.54009C9.05328 9.13609 9.24755 8.76499 9.53281 8.47372C9.81808 8.18245 10.1815 7.9841 10.5772 7.90373C10.9729 7.82337 11.383 7.86462 11.7557 8.02225C12.1284 8.17988 12.447 8.44683 12.6711 8.78932C12.8953 9.13182 13.0149 9.53448 13.0149 9.9464C13.0154 10.22 12.9629 10.4911 12.8606 10.744C12.7583 10.9969 12.608 11.2267 12.4185 11.4202C12.229 11.6137 12.004 11.7671 11.7563 11.8716C11.5086 11.976 11.2431 12.0296 10.9751 12.0291ZM26.7324 24.9432C26.7315 25.0195 26.7011 25.0923 26.648 25.1458C26.5948 25.1994 26.5231 25.2294 26.4484 25.2294H23.2025C23.1657 25.2294 23.1293 25.222 23.0953 25.2076C23.0613 25.1933 23.0304 25.1722 23.0043 25.1456C22.9783 25.119 22.9576 25.0875 22.9436 25.0527C22.9295 25.018 22.9222 24.9808 22.9222 24.9432V18.9588C22.9222 17.3845 22.3726 16.3225 20.9931 16.3225C20.5633 16.3249 20.1447 16.4631 19.7947 16.7179C19.4447 16.9728 19.1805 17.3319 19.0382 17.7461C18.941 18.0522 18.8985 18.3737 18.9128 18.6952V24.9432C18.9128 25.0201 18.8829 25.0939 18.8296 25.1483C18.7764 25.2026 18.7041 25.2332 18.6288 25.2332H15.3829C15.3458 25.2332 15.309 25.2257 15.2748 25.211C15.2405 25.1964 15.2094 25.175 15.1834 25.148C15.1573 25.1211 15.1367 25.0891 15.1228 25.0539C15.109 25.0187 15.1021 24.9811 15.1026 24.9432C15.1026 23.3539 15.1432 15.637 15.1026 13.8218C15.1021 13.7839 15.109 13.7462 15.1228 13.7111C15.1367 13.6759 15.1573 13.6439 15.1834 13.6169C15.2094 13.59 15.2405 13.5685 15.2748 13.5539C15.309 13.5393 15.3458 13.5318 15.3829 13.5318H18.6214C18.6589 13.5313 18.696 13.5384 18.7307 13.5528C18.7654 13.5672 18.7969 13.5885 18.8233 13.6156C18.8498 13.6426 18.8707 13.6748 18.8848 13.7102C18.8989 13.7456 18.9059 13.7835 18.9054 13.8218V15.1889C19.2505 14.5773 19.7529 14.074 20.3583 13.7334C20.9637 13.3928 21.6488 13.228 22.3394 13.2568C24.8439 13.2568 26.7251 14.929 26.7251 18.5294L26.7324 24.9432ZM18.9128 15.2265V15.1851L18.887 15.2265H18.9128ZM18.887 15.2265H18.9128V15.1851L18.887 15.2265ZM18.887 15.2265H18.9128V15.1851L18.887 15.2265ZM18.887 15.2265H18.9128V15.1851L18.887 15.2265ZM18.887 15.2265H18.9128V15.1851L18.887 15.2265ZM18.887 15.2265H18.9128V15.1851L18.887 15.2265ZM18.887 15.2265H18.9128V15.1851L18.887 15.2265ZM18.887 15.2265H18.9128V15.1851L18.887 15.2265ZM18.887 15.2265H18.9128V15.1851L18.887 15.2265ZM18.887 15.2265H18.9128V15.1851L18.887 15.2265ZM18.887 15.2265H18.9128V15.1851L18.887 15.2265ZM18.887 15.2265H18.9128V15.1851L18.887 15.2265ZM18.887 15.2265H18.9128V15.1851L18.887 15.2265ZM18.887 15.2265H18.9128V15.1851L18.887 15.2265ZM18.887 15.2265H18.9128V15.1851L18.887 15.2265Z" fill="white"/>
</svg>
