<svg width="58" height="54" viewBox="0 0 58 54" fill="none" xmlns="http://www.w3.org/2000/svg">
<path d="M37.5 20H17.5V17.5H37.5V20ZM25.325 47.5L27.985 50H6.25C2.805 50 0 46.075 0 41.25C0 36.425 2.805 32.5 6.25 32.5H10V9.375C10 4.205 12.805 0 16.25 0H48.75C52.195 0 54.875 3.925 54.875 8.75C54.875 13.575 52.195 17.5 48.75 17.5H45V35.345L42.5 37.7925V9.375C42.4783 6.98862 43.0268 4.63157 44.1 2.5H16.25C14.48 2.5 12.5 5.44 12.5 9.375V32.5H38.925L37.15 34.565C35.6764 36.4748 34.9159 38.8392 35 41.25C35.0005 41.8286 35.0398 42.4066 35.1175 42.98L32.5375 40.5525C32.5993 38.6277 33.0607 36.7369 33.8925 35H6.25C4.2525 35 2.5 37.92 2.5 41.25C2.5 44.58 4.2525 47.5 6.25 47.5H25.325ZM45 15H48.75C50.7475 15 52.625 12.08 52.625 8.75C52.625 5.42 50.7475 2.5 48.75 2.5H47.0575C45.6591 4.51507 44.9384 6.923 45 9.375V15ZM17.5 27.5H37.5V25H17.5V27.5ZM37.5 10H17.5V12.5H37.5V10ZM53.7275 32.0475L36.2325 49.175C33.4676 46.5751 31.9174 45.1174 29.1525 42.5175L27.44 44.3375L36.265 52.64L55.4775 33.835L53.7275 32.0475Z" fill="#8860A4"/>
<path d="M28 43.0833L36.4528 51L56 32" stroke="#4CCFC3" stroke-width="3"/>
</svg>
