<svg width="40" height="40" viewBox="0 0 40 40" fill="none" xmlns="http://www.w3.org/2000/svg">
<g clip-path="url(#clip0_198_1722)">
<path d="M32.8549 14.2849C32.8549 22.8563 19.9978 32.8563 19.9978 32.8563C19.9978 32.8563 7.14062 22.8563 7.14062 14.2849C7.14062 7.28202 12.9949 1.42773 19.9978 1.42773C27.0006 1.42773 32.8549 7.28202 32.8549 14.2849Z" stroke="#34C8BB" stroke-width="3" stroke-linecap="round" stroke-linejoin="round"/>
<path d="M20.0006 18.5714C22.3675 18.5714 24.2863 16.6527 24.2863 14.2857C24.2863 11.9188 22.3675 10 20.0006 10C17.6336 10 15.7148 11.9188 15.7148 14.2857C15.7148 16.6527 17.6336 18.5714 20.0006 18.5714Z" stroke="#34C8BB" stroke-width="3" stroke-linecap="round" stroke-linejoin="round"/>
<path d="M31.6486 28.5703H34.2849L38.5706 38.5703H1.42773L5.71345 28.5703H8.34973" stroke="#34C8BB" stroke-width="3" stroke-linecap="round" stroke-linejoin="round"/>
</g>
<defs>
<clipPath id="clip0_198_1722">
<rect width="40" height="40" fill="white"/>
</clipPath>
</defs>
</svg>
