<svg width="75" height="104" viewBox="0 0 75 104" fill="none" xmlns="http://www.w3.org/2000/svg">
<path d="M54.4249 77.7128V93.7593L62.1158 96.9591V73.5078C59.6999 75.164 57.1233 76.5728 54.4249 77.7128ZM12.8842 73.5078V96.799L20.5751 93.5992V77.7128C17.8767 76.5729 15.3001 75.1641 12.8842 73.5078ZM37.4999 81.1265C33.8682 81.1285 30.2505 80.6767 26.731 79.7817V104L37.4999 99.5197L48.2688 104V79.7817C44.7492 80.6767 41.1316 81.1284 37.4999 81.1265ZM37.4999 0C16.8224 0 0 16.8163 0 37.4864C0 58.1566 16.8224 74.9727 37.4999 74.9727C58.1774 74.9727 75 58.1564 75 37.4862C75 16.8161 58.1776 0 37.4999 0ZM37.4999 67.0514C21.1073 67.0514 7.77072 53.7198 7.77072 37.3331C7.77072 20.9462 21.1073 7.61453 37.4999 7.61453C53.8925 7.61453 67.2291 20.9462 67.2291 37.3331C67.2291 53.72 53.8927 67.0514 37.4999 67.0514ZM37.4999 13.7682C24.5017 13.7682 13.9266 24.3392 13.9266 37.3331C13.9266 50.327 24.5017 60.8976 37.4999 60.8976C50.4981 60.8976 61.0732 50.3266 61.0732 37.3329C61.0732 24.3392 50.4983 13.7682 37.4999 13.7682ZM47.1886 51.0858L37.4999 45.9941L27.8114 51.0858L29.6617 40.3015L21.8235 32.6641L32.6558 31.0905L37.4999 21.2783L42.3442 31.0905L53.1765 32.6641L45.3383 40.3015L47.1886 51.0858Z" fill="#4CCFC3"/>
</svg>
