<svg width="57" height="62" viewBox="0 0 57 62" fill="none" xmlns="http://www.w3.org/2000/svg">
<rect x="2" y="41.0605" width="8.77599" height="18.1005" rx="2" stroke="#8E669F" stroke-width="3" stroke-linecap="round"/>
<path d="M11.873 44.3515L21.4718 41.0605L33.1087 44.8649C34.5555 45.3379 35.3411 46.8979 34.8597 48.3419V48.3419C34.4193 49.6631 33.0593 50.4451 31.6959 50.1611L20.9233 47.9168" stroke="#8E669F" stroke-width="3" stroke-linecap="round"/>
<path d="M33.2658 50.1113L48.4654 47.3052C49.9468 47.0317 51.3885 47.9466 51.7718 49.4034V49.4034C52.16 50.8785 51.3301 52.4003 49.8798 52.8729L28.0551 59.9843L17.9078 55.3221L10.7773 56.6933" stroke="#8E669F" stroke-width="3" stroke-linecap="round"/>
<path d="M52.0312 20.1211C52.0313 19.2927 51.3597 18.6211 50.5313 18.6211C49.7028 18.6211 49.0313 19.2927 49.0312 20.1211L52.0312 20.1211ZM49.0312 20.1211L49.0312 36.2998L52.0312 36.2998L52.0312 20.1211L49.0312 20.1211Z" fill="#00BAAA"/>
<path d="M46.002 32.416L50.532 36.9461L55.062 32.416" stroke="#00BAAA" stroke-width="3" stroke-linecap="round" stroke-linejoin="round"/>
<circle cx="28.9983" cy="17.5316" r="15.5316" stroke="#00BAAA" stroke-width="3" stroke-linecap="round"/>
<path d="M36.1168 21.8376C36.1168 23.4394 35.5896 24.7933 34.5352 25.8992C33.4808 27.0052 32.0027 27.6536 30.1009 27.8443V29.2895C30.1009 29.9447 29.5698 30.4758 28.9147 30.4758C28.2596 30.4758 27.7285 29.9447 27.7285 29.2895V27.8729C26.241 27.7775 24.9794 27.4438 23.9438 26.8718C23.2829 26.4875 22.6698 26.0187 22.1044 25.4653C21.58 24.9521 21.6525 24.113 22.1937 23.6175C22.7892 23.0723 23.7128 23.1579 24.3134 23.6974C24.6567 24.0057 25.0136 24.2725 25.3842 24.4977C26.1374 24.9553 26.9847 25.2318 27.9262 25.3272V18.4338C25.8173 17.8999 24.2733 17.1943 23.2942 16.3172C22.3339 15.4209 21.8538 14.2101 21.8538 12.6846C21.8538 11.14 22.3716 9.88144 23.4072 8.90893C24.4616 7.91735 25.902 7.34529 27.7285 7.19274V5.77608C27.7285 5.12094 28.2596 4.58984 28.9147 4.58984C29.5698 4.58984 30.1009 5.12094 30.1009 5.77608V7.22134C32.0852 7.37592 33.7292 8.0756 35.033 9.32037C35.5558 9.81956 35.4585 10.6487 34.9073 11.1164C34.3085 11.6246 33.4156 11.5022 32.8231 10.9866C31.9987 10.2694 31.0442 9.84376 29.9597 9.70982V16.0597C32.0874 16.5555 33.6408 17.2611 34.6199 18.1764C35.6179 19.0726 36.1168 20.293 36.1168 21.8376ZM24.8194 12.5415C24.8194 13.3806 25.0641 14.0289 25.5537 14.4866C26.0433 14.9442 26.8341 15.3161 27.9262 15.6021V9.70982C26.9659 9.80516 26.2033 10.1103 25.6384 10.6251C25.0924 11.1209 24.8194 11.7597 24.8194 12.5415ZM29.9597 25.2986C30.9765 25.1651 31.7579 24.8123 32.3039 24.2403C32.8688 23.6491 33.1512 22.915 33.1512 22.0378C33.1512 21.2178 32.9159 20.579 32.4452 20.1214C31.9744 19.6447 31.1459 19.2442 29.9597 18.9201V25.2986Z" fill="#00BAAA"/>
</svg>
