<svg width="57" height="56" viewBox="0 0 57 56" fill="none" xmlns="http://www.w3.org/2000/svg">
<path d="M36.0943 35.4248C36.0943 37.5766 35.386 39.3955 33.9695 40.8813C32.553 42.3671 30.5673 43.238 28.0125 43.4942V45.4358C28.0125 46.3159 27.299 47.0294 26.4189 47.0294C25.5387 47.0294 24.8253 46.3159 24.8253 45.4358V43.5326C22.8269 43.4046 21.1321 42.9563 19.7409 42.1877C18.8531 41.6716 18.0294 41.0418 17.2698 40.2983C16.5653 39.6089 16.6628 38.4816 17.3898 37.816C18.1898 37.0835 19.4305 37.1985 20.2375 37.9233C20.6986 38.3375 21.1781 38.6959 21.676 38.9984C22.6878 39.6132 23.8261 39.9846 25.0909 40.1127V30.8521C22.2578 30.1348 20.1836 29.187 18.8682 28.0086C17.5782 26.8045 16.9331 25.1778 16.9331 23.1285C16.9331 21.0535 17.6288 19.3627 19.02 18.0562C20.4365 16.7241 22.3716 15.9556 24.8253 15.7507V13.8475C24.8253 12.9674 25.5387 12.2539 26.4189 12.2539C27.299 12.2539 28.0125 12.9674 28.0125 13.8475V15.7891C30.6782 15.9968 32.8868 16.9367 34.6382 18.609C35.3406 19.2796 35.21 20.3935 34.4695 21.0218C33.6649 21.7045 32.4655 21.54 31.6695 20.8474C30.562 19.8839 29.2797 19.3121 27.8228 19.1322V27.6627C30.6811 28.3288 32.768 29.2766 34.0833 30.5062C35.424 31.7103 36.0943 33.3498 36.0943 35.4248ZM20.9171 22.9363C20.9171 24.0635 21.246 24.9345 21.9037 25.5493C22.5613 26.1641 23.6237 26.6636 25.0909 27.0479V19.1322C23.8008 19.2602 22.7763 19.6701 22.0175 20.3618C21.2839 21.0278 20.9171 21.886 20.9171 22.9363ZM27.8228 40.0743C29.1887 39.895 30.2384 39.4211 30.972 38.6526C31.7309 37.8584 32.1103 36.8721 32.1103 35.6938C32.1103 34.5922 31.7941 33.734 31.1617 33.1192C30.5293 32.4788 29.4164 31.9408 27.8228 31.5053V40.0743Z" fill="#8E669F"/>
<path d="M48.8307 19.3701C50.2319 22.4546 51.018 25.8893 51.018 29.495C51.018 43.029 40.0473 53.9997 26.5133 53.9997C12.9793 53.9997 2 43.029 2 29.495C2 15.961 12.9707 4.99023 26.5047 4.99023C29.0423 4.99023 31.486 5.37472 33.7929 6.09243" stroke="#8E669F" stroke-width="3" stroke-miterlimit="10" stroke-linecap="round"/>
<path d="M35.75 11.1316L42.0157 18.234L54.5472 2" stroke="#00BBAB" stroke-width="3" stroke-miterlimit="10" stroke-linecap="round" stroke-linejoin="round"/>
</svg>
