<svg width="65" height="60" viewBox="0 0 65 60" fill="none" xmlns="http://www.w3.org/2000/svg">
<path d="M41.8427 44.9857L41.8427 45.043L41.8459 45.1002C42.0925 49.4796 40.5639 52.5306 37.5328 54.5979C34.3502 56.7686 29.2906 58 22.2652 58C15.268 58 10.1568 56.787 6.85249 54.6201C3.68126 52.5405 2 49.4744 2 45.1307V40.9061C2 37.5025 4.77709 34.7249 8.22565 34.7249H35.6214C39.0692 34.7249 41.8459 37.5013 41.847 40.904C41.847 40.9041 41.847 40.9041 41.847 40.9042C41.847 40.9048 41.847 40.9055 41.847 40.9061L41.8427 44.9857ZM21.9351 2C28.4135 2 33.6467 7.22052 33.6467 13.6376C33.6467 20.0546 28.4135 25.2751 21.9351 25.2751C15.4567 25.2751 10.2234 20.0546 10.2234 13.6376C10.2234 7.22052 15.4567 2 21.9351 2Z" stroke="#4CCFC3" stroke-width="4"/>
<path d="M49.3533 7.45312C54.3161 7.45312 58.3208 11.4517 58.3208 16.3614C58.3208 21.2711 54.3161 25.2697 49.3533 25.2697C44.3904 25.2697 40.3857 21.2711 40.3857 16.3614C40.3857 11.4517 44.3904 7.45312 49.3533 7.45312Z" stroke="#A588BA" stroke-width="4"/>
<path d="M45.9678 35.3242H55.9033C59.7692 35.3242 62.9033 38.4582 62.9033 42.3242V45.3898C62.9033 48.7995 60.4466 51.7131 57.086 52.2892L45.9678 54.1952" stroke="#AC90BF" stroke-width="4" stroke-linecap="round" stroke-linejoin="round"/>
</svg>
