<svg width="59" height="55" viewBox="0 0 59 55" fill="none" xmlns="http://www.w3.org/2000/svg">
<rect x="1.5" y="1.5" width="39.6531" height="52" rx="1.5" stroke="#8E669F" stroke-width="3"/>
<rect x="7.11133" y="13.8477" width="4.85714" height="4.85714" stroke="#8E669F" stroke-width="3"/>
<rect x="7.11133" y="27.3164" width="4.85714" height="4.85714" stroke="#8E669F" stroke-width="3"/>
<rect x="7.11133" y="40.7852" width="4.85714" height="4.85714" stroke="#8E669F" stroke-width="3"/>
<line x1="15.7148" y1="16.459" x2="34.7965" y2="16.459" stroke="#8E669F" stroke-width="3"/>
<line x1="15.7148" y1="29.9297" x2="34.7965" y2="29.9297" stroke="#8E669F" stroke-width="3"/>
<line x1="15.7148" y1="43.3984" x2="25.8169" y2="43.3984" stroke="#8E669F" stroke-width="3"/>
<mask id="path-8-inside-1_273_1647" fill="white">
<path fill-rule="evenodd" clip-rule="evenodd" d="M53.1117 8.23438C51.6769 7.40595 49.8421 7.89758 49.0137 9.33245L32.5545 37.8406L40.331 42.3304L56.7902 13.8222C57.6187 12.3874 57.127 10.5526 55.6921 9.72417L53.1117 8.23438ZM32.5545 37.8407L31.953 47.8621L40.331 42.3305L32.5545 37.8407Z"/>
</mask>
<path fill-rule="evenodd" clip-rule="evenodd" d="M53.1117 8.23438C51.6769 7.40595 49.8421 7.89758 49.0137 9.33245L32.5545 37.8406L40.331 42.3304L56.7902 13.8222C57.6187 12.3874 57.127 10.5526 55.6921 9.72417L53.1117 8.23438ZM32.5545 37.8407L31.953 47.8621L40.331 42.3305L32.5545 37.8407Z" fill="white"/>
<path d="M32.5545 37.8406L29.9564 36.3406L28.4564 38.9387L31.0545 40.4387L32.5545 37.8406ZM40.331 42.3304L38.831 44.9285L41.4291 46.4285L42.9291 43.8304L40.331 42.3304ZM31.953 47.8621L28.9584 47.6824L28.5989 53.6716L33.6059 50.3657L31.953 47.8621ZM32.5545 37.8407L34.0545 35.2426L29.8507 32.8156L29.5599 37.6609L32.5545 37.8407ZM40.331 42.3305L41.984 44.834L46.0348 42.1595L41.831 39.7324L40.331 42.3305ZM51.6117 10.8325L51.6117 10.8325L54.6117 5.6363C51.742 3.97944 48.0724 4.9627 46.4156 7.83245L51.6117 10.8325ZM35.1526 39.3406L51.6117 10.8325L46.4156 7.83245L29.9564 36.3406L35.1526 39.3406ZM41.831 39.7323L34.0545 35.2425L31.0545 40.4387L38.831 44.9285L41.831 39.7323ZM54.1921 12.3222L37.733 40.8304L42.9291 43.8304L59.3883 15.3222L54.1921 12.3222ZM54.1921 12.3222L54.1921 12.3222L59.3883 15.3222C61.0452 12.4525 60.0619 8.78295 57.1921 7.12609L54.1921 12.3222ZM51.6117 10.8325L54.1921 12.3222L57.1921 7.12609L54.6117 5.6363L51.6117 10.8325ZM34.9476 48.0419L35.5491 38.0204L29.5599 37.6609L28.9584 47.6824L34.9476 48.0419ZM38.6781 39.8269L30.3 45.3586L33.6059 50.3657L41.984 44.834L38.6781 39.8269ZM31.0545 40.4388L38.831 44.9286L41.831 39.7324L34.0545 35.2426L31.0545 40.4388Z" fill="#00BAAA" mask="url(#path-8-inside-1_273_1647)"/>
<line x1="47.4414" y1="12.0525" x2="54.7554" y2="16.2753" stroke="#00BAAA" stroke-width="3"/>
<line x1="33.3027" y1="36.5428" x2="40.6168" y2="40.7655" stroke="#00BAAA" stroke-width="3"/>
</svg>
