<svg width="44" height="44" viewBox="0 0 44 44" fill="none" xmlns="http://www.w3.org/2000/svg">
<path d="M16.6087 40.4334C14.7178 41.655 12.4645 42.1875 10.2278 41.9413C7.99101 41.6947 5.90717 40.6846 4.32668 39.0802L2.94494 37.7271C2.33918 37.1064 2 36.2732 2 35.4054C2 34.5376 2.33918 33.704 2.94494 33.0837L8.8096 27.2714C9.42403 26.6666 10.251 26.3278 11.1125 26.3278C11.9739 26.3278 12.801 26.6666 13.4154 27.2714C14.035 27.8781 14.8671 28.2178 15.7336 28.2178C16.6001 28.2178 17.4322 27.8781 18.0518 27.2714L27.2633 18.0457C27.5706 17.7424 27.8146 17.381 27.9812 16.9824C28.1477 16.5838 28.2335 16.156 28.2335 15.7239C28.2335 15.2918 28.1477 14.8641 27.9812 14.4655C27.8146 14.0669 27.5706 13.7054 27.2633 13.4021C26.6595 12.7868 26.3212 11.9585 26.3212 11.0957C26.3212 10.2329 26.6595 9.40468 27.2633 8.78931L33.0972 2.94639C33.7169 2.33969 34.5489 2 35.4154 2C36.2821 2 37.1141 2.33969 37.7338 2.94639L39.0849 4.33025C40.6864 5.91317 41.6951 8.00022 41.9412 10.2404C42.1874 12.4806 41.6557 14.7373 40.4357 16.6311C34.0797 26.0128 25.9923 34.0917 16.6087 40.4334Z" stroke="#34C8BB" stroke-width="3" stroke-linecap="round" stroke-linejoin="round"/>
</svg>
