<svg width="18" height="18" viewBox="0 0 18 18" fill="none" xmlns="http://www.w3.org/2000/svg">
<path d="M13.2473 10.7238L11.8247 11.5229C11.6539 11.6187 11.4565 11.6562 11.2624 11.6296C11.0683 11.603 10.8882 11.5138 10.7497 11.3757L6.00156 6.64189C5.86308 6.50375 5.7737 6.32426 5.74704 6.13078C5.72039 5.9373 5.75792 5.74043 5.85392 5.57019L6.65537 4.15189C6.79964 3.89662 6.85612 3.60129 6.81619 3.31101C6.77626 3.02073 6.64212 2.75147 6.43426 2.54434L4.30204 0.418585C4.17707 0.293931 4.02869 0.195047 3.86537 0.127581C3.70206 0.0601153 3.52701 0.0253906 3.35023 0.0253906C3.17345 0.0253906 2.9984 0.0601153 2.83509 0.127581C2.67178 0.195047 2.52339 0.293931 2.39842 0.418585L1.43028 1.38311C0.864147 1.94752 0.503528 2.68443 0.40577 3.47667C0.308011 4.2689 0.478725 5.07098 0.890767 5.75536L1.37654 6.56253C3.85725 10.6844 7.35871 14.1017 11.545 16.4866L11.641 16.5415C13.0711 17.3561 14.8379 17.1187 15.983 15.9779L16.994 14.9699C17.119 14.8453 17.2182 14.6974 17.2859 14.5346C17.3535 14.3718 17.3884 14.1972 17.3884 14.021C17.3884 13.8447 17.3535 13.6702 17.2859 13.5074C17.2182 13.3446 17.119 13.1967 16.994 13.0721L14.8604 10.945C14.6527 10.7375 14.3825 10.6035 14.0912 10.5636C13.7999 10.5236 13.5035 10.5799 13.2473 10.7238Z" fill="#939393"/>
</svg>
