<svg width="66" height="80" viewBox="0 0 66 80" fill="none" xmlns="http://www.w3.org/2000/svg">
<path fill-rule="evenodd" clip-rule="evenodd" d="M7.27273 30.9091C7.27273 18.5226 18.2179 7.27273 32.7273 7.27273C47.2367 7.27273 58.1818 18.5226 58.1818 30.9091C58.1818 38.7087 53.4098 47.4204 47.1295 55.4949C42.1662 61.8764 36.6447 67.3924 32.7273 71.2524C28.8098 67.3924 23.2883 61.8764 18.3249 55.4949C12.0447 47.4204 7.27273 38.7087 7.27273 30.9091ZM32.7273 0C14.5093 0 0 14.2047 0 30.9091C0 41.2913 6.13713 51.6705 12.5842 59.9596C18.1632 67.1327 24.4342 73.2996 28.3538 77.1538C29.0295 77.8186 29.6356 78.4146 30.156 78.9349C30.8378 79.6167 31.7629 80 32.7273 80C33.6916 80 34.6167 79.6167 35.2985 78.9349C35.8189 78.4146 36.4251 77.8185 37.1007 77.1542C41.02 73.2996 47.2913 67.1327 52.8705 59.9596C59.3175 51.6705 65.4545 41.2913 65.4545 30.9091C65.4545 14.2047 50.9451 0 32.7273 0ZM32.7273 41.8182C37.748 41.8182 41.8182 37.748 41.8182 32.7273C41.8182 27.7065 37.748 23.6364 32.7273 23.6364C27.7065 23.6364 23.6364 27.7065 23.6364 32.7273C23.6364 37.748 27.7065 41.8182 32.7273 41.8182Z" fill="#34C8BB"/>
</svg>
