<svg width="56" height="56" viewBox="0 0 56 56" fill="none" xmlns="http://www.w3.org/2000/svg">
<g clip-path="url(#clip0_73_1640)">
<path d="M45.849 20.0642C45.849 31.9689 27.9919 45.8578 27.9919 45.8578C27.9919 45.8578 10.1348 31.9689 10.1348 20.0642C10.1348 10.338 18.2657 2.20703 27.9919 2.20703C37.7181 2.20703 45.849 10.338 45.849 20.0642Z" stroke="#8860A4" stroke-width="3" stroke-linecap="round" stroke-linejoin="round"/>
<path d="M27.9934 26.018C31.2808 26.018 33.9458 23.3531 33.9458 20.0657C33.9458 16.7782 31.2808 14.1133 27.9934 14.1133C24.706 14.1133 22.041 16.7782 22.041 20.0657C22.041 23.3531 24.706 26.018 27.9934 26.018Z" stroke="#8860A4" stroke-width="3" stroke-linecap="round" stroke-linejoin="round"/>
<path d="M44.1726 39.9062H47.8341L53.7865 53.7951H2.19922L8.1516 39.9062H11.8131" stroke="#8860A4" stroke-width="3" stroke-linecap="round" stroke-linejoin="round"/>
</g>
<defs>
<clipPath id="clip0_73_1640">
<rect width="55.5555" height="55.5555" fill="white" transform="translate(0.214844 0.222656)"/>
</clipPath>
</defs>
</svg>
