<svg width="66" height="65" viewBox="0 0 66 65" fill="none" xmlns="http://www.w3.org/2000/svg">
<path fill-rule="evenodd" clip-rule="evenodd" d="M18.7125 5.17725V3.73717C18.7125 3.39978 18.8293 3.12758 19.0623 2.91934C19.2953 2.68577 19.5674 2.56988 19.8774 2.56988C20.214 2.56988 20.4855 2.68637 20.6926 2.91934C20.9262 3.12758 21.0424 3.39978 21.0424 3.73717V5.17725C21.0424 5.51464 20.9262 5.78684 20.6926 5.99447C20.4855 6.22805 20.214 6.34514 19.8774 6.34514C19.5674 6.34514 19.2953 6.22805 19.0623 5.99447C18.8293 5.78746 18.7125 5.51524 18.7125 5.17725ZM17.3146 6.54008C17.6253 6.54008 17.8968 6.65717 18.1298 6.89074C18.3369 7.09776 18.441 7.36997 18.441 7.70736C18.441 8.0188 18.3369 8.27833 18.1304 8.48596C17.8974 8.71953 17.6259 8.83662 17.3152 8.83662H16.0335C15.6976 8.83662 15.4255 8.71953 15.2184 8.48596C14.9854 8.27833 14.8686 8.01941 14.8686 7.70736C14.8686 7.36997 14.9854 7.09777 15.2184 6.89014C15.4255 6.65657 15.6976 6.53948 16.0335 6.53948L17.3146 6.54008ZM20.692 9.45894C20.9256 9.69252 21.0418 9.96532 21.0418 10.2762V11.7169C21.0418 12.0017 20.9256 12.2613 20.692 12.4954C20.4849 12.729 20.2134 12.8449 19.8768 12.8449C19.5668 12.8449 19.2947 12.7284 19.0617 12.4954C18.8287 12.2613 18.7119 12.0023 18.7119 11.7169V10.2762C18.7119 9.96533 18.8287 9.69253 19.0617 9.45894C19.2947 9.22535 19.5668 9.10828 19.8768 9.10828C20.214 9.10828 20.4849 9.22537 20.692 9.45894ZM21.5469 7.70741C21.5469 7.37002 21.6498 7.09782 21.8569 6.89019C22.064 6.65661 22.3361 6.53953 22.6727 6.53953H23.9532C24.2897 6.53953 24.5612 6.65662 24.7683 6.89019C25.0019 7.09782 25.1181 7.37002 25.1181 7.70741C25.1181 8.01884 25.0019 8.27837 24.7683 8.486C24.5612 8.71958 24.2897 8.83667 23.9532 8.83667H22.6727C22.3361 8.83667 22.064 8.71958 21.8569 8.486C21.6498 8.27837 21.5469 8.01946 21.5469 7.70741ZM31.0969 7.70741C34.5651 5.52804 38.3435 3.81513 42.4331 2.56993C48.2047 0.831067 54.8179 -0.0253851 62.2728 0.000572699L62.5058 0.0404075C64.6026 0.506952 65.767 1.68749 66 3.5821V3.73782C65.767 11.6517 64.5118 18.6969 62.2336 24.8718C60.7063 28.8419 58.7792 32.4615 56.4494 35.7309C54.249 38.6371 51.8035 41.2059 49.1119 43.4378C47.1962 54.5951 42.1621 61.7056 34.0095 64.7664H33.9324C33.3882 64.9227 32.8963 65 32.4569 65C30.8001 65 29.5966 64.1568 28.8459 62.4699L28.7688 62.1591L27.6039 53.635L25.5071 54.1414C25.0929 54.2193 24.7437 54.1022 24.459 53.7913L10.8321 39.2727C10.5214 38.9619 10.4299 38.5986 10.5599 38.1833L11.065 36.3539L2.63966 34.836C2.45905 34.7841 2.35549 34.7454 2.32962 34.7195C1.32061 34.2004 0.634308 33.487 0.27182 32.5787C-0.0906066 31.6963 -0.0906066 30.6841 0.27182 29.5423L0.31035 29.465C3.6498 21.4214 10.9481 16.6853 22.206 15.2586C24.6653 12.4815 27.4473 10.0945 30.5531 8.09668L31.0969 7.70741ZM32.145 9.73119L31.9511 9.96537C28.9235 11.8587 26.206 14.1812 23.7985 16.9316L23.6438 17.126C21.1845 19.929 19.0882 23.0813 17.3539 26.5843L16.5773 28.2188C16.2149 28.9201 15.8651 29.7114 15.5292 30.5937L17.3925 32.5396C17.5996 32.7732 17.7031 33.0581 17.7031 33.3955C17.6772 33.7069 17.5478 33.9791 17.3148 34.2127C17.0824 34.421 16.8103 34.5248 16.4996 34.5248C16.1631 34.4988 15.8784 34.369 15.6454 34.1355L14.6364 32.9676L13.6659 35.8086V35.887L12.9278 38.1443L25.6619 51.7672L28.2241 51.1057H28.2626L30.5533 50.4049L18.2858 37.0163C18.1045 36.7821 18.0142 36.5099 18.0142 36.1985C18.0401 35.8876 18.1563 35.6281 18.3628 35.4199C18.5964 35.2122 18.8679 35.109 19.1786 35.109C19.5145 35.135 19.7866 35.2648 19.9937 35.4983L32.9608 49.6265L34.8627 48.965C35.9499 48.5497 36.8693 48.1604 37.62 47.7971C41.2689 46.1101 44.5042 44.151 47.326 41.9203C50.1465 39.6624 52.5534 37.1456 54.5467 34.3692C56.7724 31.2815 58.5972 27.8436 60.0211 24.055C62.2462 18.1908 63.4635 11.431 63.6706 3.77702C63.5664 3.02438 63.0493 2.53127 62.1174 2.2977C54.9737 2.27175 48.6193 3.10224 43.0559 4.78857C39.0958 5.9818 35.4981 7.61627 32.2628 9.69243L32.145 9.73119ZM34.4357 11.0934C37.2315 8.36893 40.4018 6.77314 43.9471 6.30668L44.4907 6.3453C52.5922 9.38175 57.2248 14.3371 58.3898 21.2134C58.4416 21.3691 58.4416 21.5248 58.3898 21.6812C57.5355 25.34 55.827 28.5569 53.2647 31.3333C53.0835 31.5934 52.8246 31.7226 52.4881 31.7226L52.2943 31.6839C51.8801 31.632 51.5959 31.425 51.4406 31.0611C47.8169 24.029 42.2133 17.9578 34.6293 12.8458C34.2927 12.6382 34.1248 12.3533 34.1248 11.99C34.0989 11.6779 34.2024 11.3804 34.4354 11.0943L34.4357 11.0934ZM30.1263 16.6986C27.823 18.6192 25.8044 20.7593 24.0699 23.1204C23.8104 23.4578 23.4878 23.6267 23.0994 23.6267C22.8665 23.6267 22.6461 23.5483 22.439 23.3932C22.1807 23.2115 22.0248 22.9514 21.9737 22.6146C21.9219 22.3285 21.9863 22.0569 22.1675 21.7968C24.1085 19.228 26.2697 16.9315 28.6507 14.9077C28.8843 14.7261 29.1558 14.6488 29.4664 14.6742C29.8024 14.7001 30.0745 14.8299 30.2816 15.0635C30.4628 15.297 30.5399 15.5692 30.5146 15.8807C30.4887 16.2187 30.3593 16.491 30.1263 16.6986ZM34.7468 27.3629L36.8436 25.4556C37.1019 25.248 37.3866 25.1448 37.6973 25.1448C38.0338 25.1708 38.3053 25.2999 38.5124 25.5341C38.7189 25.7677 38.8231 26.0399 38.8231 26.3513C38.7972 26.6881 38.6678 26.9609 38.4348 27.1686L36.2995 29.0758C36.04 29.2835 35.7944 29.3867 35.5614 29.3867C35.2248 29.3867 34.9274 29.2702 34.668 29.0372C34.4615 28.7771 34.3585 28.4922 34.3585 28.1801C34.3844 27.8434 34.5138 27.5706 34.7468 27.3629ZM10.715 28.9973C10.4044 29.0758 10.107 29.0498 9.82162 28.9201C9.56335 28.7644 9.38154 28.5308 9.2786 28.2193C9.17445 27.9085 9.20034 27.6098 9.35566 27.3249C9.51098 27.0659 9.74396 26.8831 10.0546 26.7799L15.5294 25.1056C16.8496 22.5368 18.3499 20.1498 20.0326 17.9443C11.1032 19.5268 5.24071 23.6527 2.44607 30.3209C2.26486 30.8919 2.23896 31.3464 2.36901 31.6832C2.47196 32.0465 2.75731 32.3453 3.22269 32.5788L11.7637 34.136L14.1712 27.9471L10.715 28.9973ZM11.6084 44.4499L4.8531 51.2225C4.62012 51.456 4.36125 51.5719 4.07648 51.5719C3.73994 51.5719 3.45519 51.4554 3.2222 51.2225C3.01509 50.9883 2.91216 50.7161 2.91216 50.4046C2.91216 50.0678 3.0151 49.7818 3.2222 49.5488L9.97754 42.7763C10.2105 42.5946 10.4953 42.5041 10.8318 42.5041C11.1419 42.5041 11.4007 42.5946 11.6084 42.7763C11.8156 43.0098 11.9185 43.2953 11.9185 43.6327C11.9185 43.9436 11.8155 44.2164 11.6084 44.4499ZM16.034 47.9138C16.3446 47.9138 16.6161 48.017 16.8497 48.2246C17.0568 48.4582 17.1598 48.7437 17.1598 49.081C17.1598 49.3919 17.0568 49.6514 16.8497 49.8596L2.25172 64.4947C2.01874 64.7283 1.74723 64.8448 1.43657 64.8448C1.10004 64.8448 0.828529 64.7277 0.621424 64.4941C0.414319 64.2606 0.31078 63.9878 0.31078 63.6769C0.31078 63.3655 0.414932 63.0933 0.621424 62.8591L15.1803 48.2246C15.4127 48.0176 15.698 47.9138 16.034 47.9138ZM35.6395 51.1053C35.0964 51.3389 34.203 51.663 32.961 52.0783C32.3133 52.3119 31.2657 52.6233 29.8155 53.0126L31.0586 61.6531C31.2916 62.1462 31.5758 62.4577 31.9123 62.5874C32.223 62.7431 32.6631 62.7431 33.2326 62.5874C39.9879 60.07 44.349 54.3749 46.3159 45.5001C44.1937 47.0054 41.7735 48.3936 39.0561 49.6653L37.0375 55.3091C36.9333 55.5939 36.7268 55.8148 36.4156 55.9706C36.1314 56.1003 35.846 56.1136 35.5619 56.0092C35.2771 55.906 35.07 55.6984 34.9412 55.3863C34.7859 55.1002 34.76 54.8027 34.8629 54.4906L36.1061 50.9496L35.6395 51.1053ZM21.7795 53.3233C21.9866 53.5575 22.0902 53.8424 22.0902 54.1798C22.0902 54.4906 21.986 54.7634 21.7795 54.997L15.0242 61.7309C14.843 61.9385 14.5841 62.0417 14.2476 62.0417C13.8851 62.0417 13.601 61.9385 13.3939 61.7309C13.1868 61.4967 13.0832 61.2245 13.0832 60.9131C13.0832 60.5763 13.1874 60.2902 13.3939 60.0572L20.1492 53.3233C20.3822 53.1157 20.6664 53.0125 21.0029 53.0125C21.3142 53.0125 21.573 53.1157 21.7795 53.3233ZM56.1003 21.4076C55.0131 15.5435 50.962 11.2751 43.9483 8.60317C41.4638 8.99246 39.1864 10.0559 37.1153 11.7941C43.8707 16.5163 49.0595 22.0957 52.6829 28.5307C54.2873 26.481 55.4264 24.1066 56.1 21.4075L56.1003 21.4076Z" fill="#6A398E"/>
</svg>
