<svg width="60" height="60" viewBox="0 0 60 60" fill="none" xmlns="http://www.w3.org/2000/svg">
<path d="M22.5047 55.6024C19.8784 57.299 16.7489 58.0386 13.6423 57.6966C10.5357 57.3542 7.64146 55.9512 5.44634 53.723L3.52726 51.8436C2.68592 50.9816 2.21484 49.8243 2.21484 48.619C2.21484 47.4137 2.68592 46.256 3.52726 45.3944L11.6726 37.3218C12.526 36.4819 13.6746 36.0112 14.8711 36.0112C16.0675 36.0112 17.2162 36.4819 18.0695 37.3218C18.93 38.1645 20.0858 38.6363 21.2893 38.6363C22.4928 38.6363 23.6485 38.1645 24.509 37.3218L37.3028 24.5084C37.7296 24.0871 38.0685 23.5851 38.2998 23.0315C38.5311 22.478 38.6503 21.8838 38.6503 21.2837C38.6503 20.6835 38.5311 20.0894 38.2998 19.5358C38.0685 18.9822 37.7296 18.4802 37.3028 18.059C36.4641 17.2043 35.9942 16.0539 35.9942 14.8556C35.9942 13.6573 36.4641 12.5069 37.3028 11.6522L45.4054 3.53709C46.2661 2.69445 47.4216 2.22266 48.6251 2.22266C49.8289 2.22266 50.9845 2.69445 51.8452 3.53709L53.7216 5.45912C55.946 7.65762 57.3469 10.5563 57.6887 13.6676C58.0306 16.779 57.2922 19.9134 55.5977 22.5437C46.7699 35.5738 35.5375 46.7944 22.5047 55.6024Z" stroke="#8860A4" stroke-width="3" stroke-linecap="round" stroke-linejoin="round"/>
</svg>
