<svg width="64" height="65" viewBox="0 0 64 65" fill="none" xmlns="http://www.w3.org/2000/svg">
<path d="M58.5296 55.0912C53.5914 50.4517 44.4796 52.5048 41.2591 62.1898C41.183 62.4182 41.2216 62.6694 41.3614 62.8654C41.3886 62.9035 41.4313 62.9228 41.4642 62.9546H41.4585L42.6944 64.1905L63.2567 64.27C63.7135 64.2717 64.0487 63.8314 63.9169 63.3938C62.8879 59.9851 61.4656 57.1527 58.5298 55.0913L58.5296 55.0912ZM57.837 56.5049C58.92 57.6481 59.9432 59.5119 60.7593 61.8109L43.048 61.6824C46.2561 53.6935 53.928 52.3775 57.837 56.5049Z" fill="#6A398E"/>
<path d="M47.3468 46.7943C47.1514 49.2125 49.2077 51.711 51.9703 51.711C56.458 51.711 58.9086 46.7239 55.9779 43.8272C53.2362 41.1225 47.7519 41.7981 47.3468 46.7943ZM55.5392 47.9324C55.0238 49.3728 53.0515 50.4257 51.4749 50.1665C49.9555 49.9261 48.7281 48.4067 48.8486 46.9157C48.9679 45.4355 49.6463 44.4259 50.8094 43.9934C53.1487 43.1252 56.6135 44.9213 55.5392 47.9322V47.9324Z" fill="#6A398E"/>
<path d="M16.6009 56.5669C11.9604 51.8616 3.12195 53.7594 0.0387699 63.0292C-0.0720301 63.3616 0.0512697 63.769 0.452429 63.9463L1.43145 64.9253L20.7704 65.0003C21.2 65.002 21.5153 64.5878 21.3914 64.1764C20.4619 61.0978 19.209 58.5273 16.6014 56.5671L16.6009 56.5669ZM15.64 57.7278C16.6446 58.7886 17.5947 60.5131 18.3578 62.6422L1.83062 62.5217C4.85751 55.0765 12.0095 53.8942 15.6403 57.7278L15.64 57.7278Z" fill="#6A398E"/>
<path d="M10.1566 53.2334C12.1066 53.2334 14.2289 51.9719 14.8885 50.1265C17.091 43.9671 6.33591 41.4909 5.76425 48.5616C5.57789 50.86 7.5313 53.2334 10.1564 53.2334H10.1566ZM13.4703 49.6207C12.9856 50.9759 11.1384 51.9248 9.69692 51.6923C8.28947 51.4696 7.1531 50.0628 7.26438 48.6836C7.65701 43.8408 14.8885 45.6484 13.4703 49.6207Z" fill="#6A398E"/>
<path d="M26.0712 36.3005C27.3378 44.8138 37.0075 45.9685 38.3382 36.5954C40.2894 36.2306 40.4701 33.5776 39.3695 32.6924C40.9025 26.6683 34.6635 22.4681 30.5283 26.2114C27.9798 25.6273 25.0672 27.908 25.6008 32.3162C23.9297 32.8901 24.0695 35.4379 26.0712 36.3005ZM28.8185 39.5358C27.9952 38.3568 27.5486 36.8147 27.4281 34.7323C29.793 34.776 33.1028 33.2828 34.8619 31.2322C35.2409 32.6016 35.8688 33.8772 37.0205 34.7039C36.9268 36.0801 36.7756 37.513 36.2296 38.7983C35.6455 40.1739 34.6147 41.1933 33.4733 41.5274C31.6943 42.0468 29.7828 40.9205 28.8185 39.5358ZM28.1731 28.2597C28.8174 27.6762 29.7549 27.4733 30.4492 27.7625C30.7475 27.8881 31.0907 27.8086 31.3038 27.5654C32.2203 26.5261 34.0187 26.0664 35.3171 26.542C37.7876 27.446 38.7899 30.574 37.595 33.2258C36.5853 32.2792 36.1983 30.6779 35.9478 29.0471C35.8944 28.6983 35.6057 28.4335 35.2534 28.4107C34.9017 28.392 34.5807 28.6119 34.4812 28.95C33.821 31.2075 29.6685 33.3848 27.2929 33.2348C26.894 31.4625 26.8298 29.4734 28.1731 28.2597Z" fill="#6A398E"/>
<path d="M43.3943 55.3557C44.0131 55.2012 44.2415 54.6699 44.1437 54.1994C41.4391 41.1893 24.6332 41.0773 19.3079 53.7142C19.1044 54.2381 19.4169 54.8665 20.0476 54.9699C20.1147 54.9785 20.1931 54.9853 20.2613 54.9944L20.596 55.7029C26.57 56.1836 35.0585 56.2302 41.6092 56.1666C42.1785 56.1609 42.9445 55.8245 43.394 55.3557L43.3943 55.3557ZM39.4407 48.5322C41.3328 50.3811 42.0805 52.0074 42.5419 53.933C37.8491 54.0194 28.6493 54.4216 21.021 53.571C24.8189 45.6026 34.3107 43.519 39.4407 48.5322Z" fill="#6A398E"/>
<path d="M8.45439 18.2539C10.8891 21.1312 11.3141 22.9887 13.0802 22.7989C13.1097 22.804 13.133 22.8251 13.1631 22.8268C13.4211 22.8432 13.6836 22.7211 13.8359 22.4915C14.5495 21.4182 15.1979 20.2852 15.8104 19.1317H27.0022C27.8852 20.001 28.8392 20.9437 29.5466 21.7204C30.4535 22.7171 31.6734 22.3261 31.5735 22.3261C31.936 22.3261 32.2371 22.071 32.3099 21.7301C32.4917 20.8749 32.7468 20.0311 33.0355 19.1959H46.6468C47.1036 20.03 47.5548 20.8687 47.9758 21.7193C48.2497 22.2728 48.7582 22.6853 49.369 22.7932C49.3719 22.7938 49.3736 22.7938 49.3764 22.7944C49.6486 22.9421 49.7912 22.8768 49.9117 22.8466C49.9145 22.8466 49.9173 22.8472 49.9196 22.8472C49.9196 22.8466 49.919 22.8455 49.919 22.8449C50.3145 22.741 50.1793 22.9001 53.2197 18.226C54.6823 18.118 56.8704 18.7078 57.9847 17.351C58.483 16.7441 58.5677 15.9077 58.6154 15.1241C58.8182 11.7854 58.7245 8.43686 58.6302 5.0936C58.5927 3.75775 58.4875 2.02308 57.4278 1.14508C57.0795 0.7479 56.5784 0.48767 56.0068 0.466637C39.3516 -0.154406 23.1487 -0.154974 7.84629 0.461523C6.77693 0.50357 5.93945 1.37804 5.93945 2.45084V15.5997C5.93945 16.3157 6.21901 16.9867 6.72584 17.4919C7.1929 17.9567 7.80258 18.2169 8.45493 18.2538L8.45439 18.2539ZM7.44469 2.45105C7.44469 2.18911 7.64696 1.97661 7.90607 1.96581C23.1707 1.34988 39.3342 1.35386 55.9502 1.96979C56.2087 1.97945 56.4189 2.19707 56.4189 2.4539V15.3322C56.4189 15.9703 55.8996 16.4919 55.2615 16.4948C54.1643 16.5056 53.1353 16.4925 52.8733 16.5209C52.3341 16.5777 52.3989 16.7806 50.0079 20.3813C49.1897 17.2744 49.2153 16.5374 48.421 16.5374C32.9193 16.5374 32.5003 16.4305 32.2254 17.0737C31.826 18.0073 31.5021 18.9051 31.2248 19.8676C28.8349 16.7259 28.919 16.7811 28.5969 16.6902C28.3151 16.6112 15.8453 16.7237 15.7123 16.7458C15.0225 16.8606 15.2441 17.3771 13.2923 20.5499C11.5315 16.9947 11.6087 16.9527 11.2218 16.8055C11.015 16.7271 11.0133 16.7515 8.60978 16.764C7.97566 16.764 7.4461 16.2521 7.4461 15.6003L7.44469 2.45105Z" fill="#6A398E"/>
<path d="M12.8371 6.37104H46.7236C47.7196 6.37104 47.7202 4.86523 46.7236 4.86523H12.8371C11.841 4.86523 11.8405 6.37104 12.8371 6.37104Z" fill="#6A398E"/>
<path d="M29.9015 9.86133H16.2941C15.2981 9.86133 15.2975 11.3671 16.2941 11.3671H29.9015C30.3174 11.3671 30.6544 11.0296 30.6544 10.6143C30.6544 10.1989 30.3174 9.86133 29.9015 9.86133Z" fill="#6A398E"/>
<path d="M39.6165 9.73242H36.2766C35.2805 9.73242 35.2799 11.2382 36.2766 11.2382H39.6165C40.0324 11.2382 40.3694 10.9007 40.3694 10.4854C40.3694 10.07 40.0318 9.73242 39.6165 9.73242Z" fill="#6A398E"/>
</svg>
