<svg width="65" height="65" viewBox="0 0 65 65" fill="none" xmlns="http://www.w3.org/2000/svg">
<path d="M54.1643 45.2118V37.9172C54.1643 37.6296 54.0503 37.3543 53.8471 37.1511C53.6439 36.9479 53.3687 36.834 53.0811 36.834H11.9152C11.3169 36.834 10.832 37.3189 10.832 37.9172V52.6267C10.8299 54.5517 11.4002 56.4342 12.4699 58.0346L14.6233 61.2594C14.9786 61.7932 15.1673 62.4211 15.1652 63.0624V63.9171C15.1652 64.2042 15.2791 64.4799 15.4823 64.6831C15.6855 64.8858 15.9613 65.0003 16.2483 65.0003H46.5812C46.8683 65.0003 47.1441 64.8858 47.3473 64.6831C47.5505 64.4799 47.6644 64.2042 47.6644 63.9171V62.8334H48.7476C50.184 62.8318 51.5606 62.2604 52.576 61.2455C53.5915 60.23 54.1623 58.8528 54.1639 57.4171V55.0131L57.6758 54.1347H57.6764C58.0054 54.0525 58.2768 53.8208 58.4102 53.509C58.5429 53.1972 58.5225 52.8408 58.3542 52.5468L54.1643 45.2118ZM52.8188 53.1198V53.1203C52.3382 53.2402 52.0001 53.6708 51.9979 54.1664V56.2489C51.3969 56.1172 50.8465 55.8162 50.4111 55.3819L49.5139 54.4836V54.4842C49.3118 54.275 49.0344 54.1557 48.7441 54.1536C48.4533 54.1509 48.1743 54.2654 47.9685 54.4707C47.7631 54.6761 47.6492 54.9556 47.6513 55.2459C47.654 55.5367 47.7733 55.8141 47.9819 56.0157L48.8791 56.9139C49.6789 57.7116 50.71 58.2363 51.8254 58.4132C51.6163 59.0658 51.2061 59.6351 50.653 60.0404C50.1004 60.4451 49.4333 60.6645 48.7478 60.6666H46.5815C45.9832 60.6666 45.4978 61.1515 45.4978 61.7498V62.833H17.3323C17.2926 61.8423 16.9797 60.8816 16.4282 60.0576L14.2791 56.8327H14.2785C13.4448 55.5883 12.9991 54.1239 12.9991 52.6264V39.0004H51.9976V45.4999C51.9971 45.6902 52.046 45.8767 52.1406 46.0418L55.7642 52.3833L52.8188 53.1198Z" fill="#6A398E"/>
<path d="M48.7492 45.5C48.1509 45.5 47.666 45.9854 47.666 46.5837V48.75C47.666 49.3483 48.1509 49.8332 48.7492 49.8332C49.3475 49.8332 49.8324 49.3483 49.8324 48.75V46.5837C49.8324 46.2961 49.7184 46.0209 49.5152 45.8177C49.312 45.6145 49.0368 45.5 48.7492 45.5Z" fill="#6A398E"/>
<path d="M21.6654 17.3332C25.1063 17.3311 28.5154 17.9874 31.709 19.2669L32.0955 19.4217V19.4222C32.3541 19.526 32.6428 19.526 32.9013 19.4222L33.2878 19.2685H33.2884C36.4814 17.9875 39.8907 17.3306 43.3314 17.3333C43.6185 17.3333 43.8943 17.2194 44.0975 17.0162C44.3007 16.813 44.4146 16.5378 44.4146 16.2502V1.08372C44.4146 0.796133 44.3007 0.520904 44.0975 0.317703C43.8943 0.114502 43.6185 7.6308e-06 43.3314 7.6308e-06C39.6207 -0.00268025 35.9432 0.704742 32.4986 2.08362C29.0534 0.704728 25.376 -0.00260704 21.6652 7.6308e-06C21.0669 7.6308e-06 20.582 0.485414 20.582 1.08372V16.2502C20.582 16.5378 20.696 16.813 20.8992 17.0162C21.1024 17.2194 21.3782 17.3333 21.6652 17.3333L21.6654 17.3332ZM42.2483 15.1862C39.2907 15.3028 36.3681 15.8705 33.5818 16.8698V3.99803C36.3507 2.92077 39.2793 2.3095 42.2483 2.18868V15.1862ZM22.7484 2.18648H22.7479C25.7168 2.30743 28.6453 2.91862 31.4144 3.99582V16.8698C28.6283 15.8704 25.7062 15.3027 22.7479 15.1862L22.7484 2.18648Z" fill="#6A398E"/>
<path d="M35.749 8.6659C35.8377 8.66643 35.9264 8.65568 36.0124 8.63364L40.3456 7.55047C40.6299 7.4865 40.8767 7.31018 41.0299 7.06183C41.1831 6.81348 41.2293 6.51406 41.1589 6.2313C41.0885 5.94801 40.9062 5.70557 40.6547 5.55828C40.4031 5.411 40.1026 5.37175 39.8214 5.44862L35.4883 6.5318C34.9577 6.66511 34.6099 7.17202 34.676 7.71442C34.7427 8.25682 35.2028 8.66481 35.749 8.6659Z" fill="#6A398E"/>
<path d="M39.8196 9.7826L35.4864 10.8658C34.9558 10.9991 34.6075 11.506 34.6742 12.0489C34.7408 12.5913 35.2015 12.9993 35.7482 12.9999C35.8369 13.0004 35.9256 12.9897 36.0116 12.9676L40.3448 11.8845C40.6292 11.8205 40.8759 11.6442 41.0291 11.3958C41.1823 11.1475 41.2286 10.848 41.1581 10.5653C41.0877 10.282 40.9055 10.0396 40.6539 9.89227C40.4023 9.74498 40.1018 9.70573 39.8207 9.78261L39.8196 9.7826Z" fill="#6A398E"/>
<path d="M24.6531 7.55243L28.9863 8.6356C29.0723 8.65764 29.1599 8.66839 29.2486 8.66786C29.7953 8.66678 30.2554 8.25877 30.3216 7.71638C30.3877 7.17399 30.0399 6.66707 29.5099 6.53375L25.1767 5.45058C24.895 5.37371 24.5945 5.41295 24.3429 5.56024C24.0914 5.70752 23.9097 5.94996 23.8387 6.23325C23.7683 6.51601 23.815 6.81543 23.9677 7.06378C24.1209 7.31213 24.3676 7.48845 24.652 7.55242L24.6531 7.55243Z" fill="#6A398E"/>
<path d="M29.5118 10.8658L25.1786 9.78261C24.8969 9.70574 24.5964 9.74498 24.3449 9.89227C24.0933 10.0396 23.9116 10.282 23.8406 10.5653C23.7702 10.848 23.817 11.1475 23.9697 11.3958C24.1229 11.6442 24.3696 11.8205 24.654 11.8845L28.9872 12.9676C29.0732 12.9897 29.1608 13.0004 29.2495 12.9999C29.7962 12.9988 30.2563 12.5908 30.3224 12.0484C30.3886 11.506 30.0408 10.9986 29.5107 10.8658L29.5118 10.8658Z" fill="#6A398E"/>
<path d="M32.4999 21.668C31.9016 21.668 31.4162 22.1529 31.4162 22.7512V28.8025L30.0153 27.4015L30.0159 27.4021C29.5907 26.9914 28.9149 26.9973 28.4973 27.415C28.0791 27.8332 28.0732 28.5089 28.4839 28.9336L31.7339 32.1836C32.1569 32.6066 32.8423 32.6066 33.2654 32.1836L36.5154 28.9336C36.9261 28.5089 36.9202 27.8332 36.5025 27.415C36.0843 26.9973 35.4086 26.9914 34.984 27.4021L33.583 28.803V22.7511C33.583 22.4641 33.4691 22.1883 33.2659 21.9851C33.0627 21.7825 32.787 21.668 32.4999 21.668Z" fill="#6A398E"/>
<path d="M14.0849 29.4131L21.3526 22.1454C21.7633 21.7202 21.7573 21.0445 21.3391 20.6269C20.9214 20.2092 20.2457 20.2033 19.8206 20.6134L12.5529 27.8811V27.8816C12.168 28.2488 11.5622 28.2488 11.1773 27.8816C11.1773 27.8816 11.0687 27.7516 11.0526 27.729C10.7994 27.343 10.8515 26.8323 11.1773 26.5055L18.445 19.2378C18.868 18.8148 18.868 18.1289 18.445 17.7063L9.72311 8.98448C9.2936 8.57809 8.62112 8.57809 8.1916 8.98448L0.921174 16.2501C0.332558 16.8392 0.00195312 17.6381 0.00195312 18.4708C0.00195312 19.304 0.332544 20.1027 0.921174 20.692L9.64302 29.4133C10.2322 30.0019 11.031 30.3331 11.8637 30.3331C12.6969 30.3331 13.4957 30.0019 14.0849 29.4133L14.0849 29.4131ZM9.06569 25.7723L2.45746 19.164C2.07956 18.784 2.07956 18.1696 2.45746 17.7895L8.95698 11.29L16.143 18.4718L9.64298 24.9719C9.40915 25.2062 9.21406 25.4761 9.06569 25.7723Z" fill="#6A398E"/>
<path d="M44.0512 21.9297L50.5955 29.9356C50.9745 30.399 51.6571 30.4672 52.1205 30.0888C52.5839 29.7098 52.6522 29.0271 52.2737 28.5637L45.7295 20.559V20.5595C45.3763 20.1257 45.429 19.4904 45.8483 19.1205L45.9101 19.0705V19.0711C46.3079 18.7786 46.8664 18.8544 47.1712 19.2431L53.7155 27.2478C53.9004 27.4741 54.1686 27.6166 54.46 27.6418C54.7508 27.665 55.0389 27.572 55.2615 27.3833L64.6203 19.3238L64.6198 19.3232C65.0654 18.94 65.124 18.2712 64.752 17.8165L58.2078 9.81176C57.6815 9.16024 56.9128 8.75117 56.0779 8.67913C55.2474 8.60172 54.4212 8.86942 53.7933 9.4188L44.4355 17.4783H44.436C43.8082 18.0266 43.4179 18.7964 43.3459 19.6263C43.2744 20.4563 43.5271 21.282 44.0512 21.9297ZM55.2093 11.0599C55.3985 10.8948 55.6474 10.8142 55.8973 10.8373C56.1478 10.8604 56.3774 10.9852 56.5333 11.1824L62.4082 18.3711L54.6916 25.0158L48.8494 17.8749C48.6323 17.6093 48.3732 17.382 48.0824 17.2008L55.2093 11.0599Z" fill="#6A398E"/>
<path d="M19.5569 32.1568C19.3671 32.7239 19.6741 33.3378 20.2412 33.527L23.4912 34.6102C24.0589 34.7989 24.6717 34.4919 24.8604 33.9248L25.9436 30.6748C26.1328 30.1066 25.8253 29.4921 25.2571 29.3035C24.6884 29.1142 24.0745 29.4217 23.8853 29.9899L23.6218 30.7774H23.6224C22.8085 29.2352 21.5362 27.9837 19.9804 27.1963C19.4445 26.9292 18.794 27.1463 18.5264 27.6817C18.2592 28.2171 18.4764 28.8681 19.0118 29.1352C20.1396 29.7066 21.0658 30.6081 21.6668 31.7203L20.9217 31.4709C20.3557 31.2854 19.7456 31.5918 19.5569 32.1568Z" fill="#6A398E"/>
<path d="M45.9837 29.1411C46.5191 28.8739 46.7368 28.2229 46.4691 27.6876C46.2019 27.1522 45.5509 26.935 45.0156 27.2022C43.4593 27.9897 42.1869 29.2411 41.3731 30.7833L41.1097 29.9958H41.1102C40.921 29.4276 40.3071 29.1201 39.7384 29.3093C39.1702 29.498 38.8627 30.1124 39.0519 30.6806L40.1351 33.9307C40.3243 34.4978 40.9371 34.8047 41.5042 34.616L44.7543 33.5329C45.3225 33.3437 45.6299 32.7298 45.4413 32.1616C45.252 31.5934 44.6382 31.2859 44.0694 31.4746L43.3244 31.724C43.927 30.6123 44.8548 29.7109 45.9837 29.1411Z" fill="#6A398E"/>
<path d="M63.915 34.6663H62.8313V33.5832C62.8313 32.9849 62.3464 32.5 61.7481 32.5C61.1498 32.5 60.6649 32.9849 60.6649 33.5832V34.6663H59.5818C58.9835 34.6663 58.498 35.1512 58.498 35.7495C58.498 36.3478 58.9835 36.8332 59.5818 36.8332H60.6649V37.9164C60.6649 38.5147 61.1498 38.9996 61.7481 38.9996C62.3464 38.9996 62.8313 38.5147 62.8313 37.9164V36.8332H63.915C64.5133 36.8332 64.9982 36.3478 64.9982 35.7495C64.9982 35.1512 64.5133 34.6663 63.915 34.6663Z" fill="#6A398E"/>
<path d="M48.7492 4.33324H49.8324V5.41695C49.8324 6.01525 50.3178 6.50012 50.9161 6.50012C51.5144 6.50012 51.9993 6.01525 51.9993 5.41695V4.33324H53.0824C53.6807 4.33324 54.1656 3.84837 54.1656 3.25006C54.1656 2.65176 53.6807 2.16689 53.0824 2.16689H51.9993V1.08371C51.9993 0.485406 51.5144 0 50.9161 0C50.3178 0 49.8324 0.485406 49.8324 1.08371V2.16689H48.7492C48.1509 2.16689 47.666 2.65176 47.666 3.25006C47.666 3.84837 48.1509 4.33324 48.7492 4.33324Z" fill="#6A398E"/>
<path d="M12.9992 8.66722H14.0824V9.75039L14.0829 9.75093C14.0829 10.3492 14.5678 10.8341 15.1661 10.8341C15.7644 10.8341 16.2492 10.3492 16.2492 9.75093V8.66722H17.3324C17.9307 8.66722 18.4161 8.18235 18.4161 7.58404C18.4161 6.98574 17.9307 6.50087 17.3324 6.50087H16.2492V5.4177C16.2492 4.81939 15.7644 4.33398 15.1661 4.33398C14.5678 4.33398 14.0829 4.81939 14.0829 5.4177V6.50087H12.9992C12.4009 6.50087 11.916 6.98574 11.916 7.58404C11.916 8.18235 12.4009 8.66722 12.9992 8.66722Z" fill="#6A398E"/>
<path d="M5.41694 45.4984H4.33323V44.4152C4.33323 43.8169 3.84837 43.332 3.25006 43.332C2.65176 43.332 2.16688 43.8169 2.16688 44.4152V45.4984H1.08371C0.485406 45.4984 0 45.9838 0 46.5821C0 47.1804 0.485406 47.6653 1.08371 47.6653H2.16688V48.7484C2.16688 49.3467 2.65176 49.8316 3.25006 49.8316C3.84837 49.8316 4.33323 49.3467 4.33323 48.7484V47.6653H5.41694C6.01525 47.6653 6.50012 47.1804 6.50012 46.5821C6.50012 45.9838 6.01525 45.4984 5.41694 45.4984Z" fill="#6A398E"/>
</svg>
