<svg width="65" height="64" viewBox="0 0 65 64" fill="none" xmlns="http://www.w3.org/2000/svg">
<path d="M42.3649 63.0496H5.44103C3.99896 63.047 2.6167 62.4726 1.59708 61.453C0.576905 60.4328 0.00306311 59.0506 0 57.6085V5.44102C0.00312131 3.99896 0.576932 2.6167 1.59708 1.59708C2.61673 0.576905 3.99896 0.00306311 5.44103 0H42.3649C43.8069 0.00312145 45.1897 0.576932 46.2094 1.59708C47.229 2.61673 47.8034 3.99896 47.8059 5.44102V17.3616C47.8059 17.9406 47.3367 18.4099 46.7576 18.4099C46.1786 18.4099 45.7094 17.9406 45.7094 17.3616V5.44102C45.7094 4.55456 45.3567 3.70344 44.7298 3.07657C44.1024 2.44917 43.2518 2.09697 42.3648 2.09697H5.44093C4.55393 2.09697 3.70335 2.44916 3.07647 3.07657C2.44908 3.70344 2.09687 4.55459 2.09687 5.44102V57.6085C2.09687 58.4955 2.44907 59.3461 3.07647 59.973C3.70335 60.6004 4.55396 60.9526 5.44093 60.9526H42.3648C43.2518 60.9526 44.1024 60.6004 44.7298 59.973C45.3566 59.3461 45.7094 58.4955 45.7094 57.6085V31.7345C45.7094 31.1555 46.1786 30.6858 46.7576 30.6858C47.3367 30.6858 47.8059 31.1555 47.8059 31.7345V57.6085C47.8033 59.0506 47.229 60.4329 46.2094 61.453C45.1897 62.4726 43.8069 63.047 42.3649 63.0496Z" fill="#6A398E"/>
<path d="M24.8996 47.4606C24.5609 47.4595 24.2436 47.2941 24.0475 47.0173C23.8519 46.7406 23.8024 46.3863 23.9143 46.0663L27.8248 34.9642C27.8779 34.8164 27.9601 34.6812 28.0657 34.5657L51.2455 11.3965C51.6544 10.9902 52.3151 10.9902 52.724 11.3965L59.9162 18.5887H59.9157C60.322 18.9976 60.322 19.6578 59.9157 20.0667L36.6946 43.2359C36.5875 43.3503 36.4543 43.4367 36.3065 43.4871L25.2459 47.3977C25.1351 47.4382 25.018 47.4596 24.8999 47.4606L24.8996 47.4606ZM29.7221 35.9281L26.5769 44.7345L35.3833 41.5892L57.6615 19.3217L51.9582 13.6185L29.7221 35.9281Z" fill="#6A398E"/>
<path d="M36.0007 43.5505C35.7203 43.5494 35.4524 43.436 35.2563 43.2362L28.0641 36.055V36.0545C27.6531 35.6435 27.6531 34.9771 28.0641 34.566C28.4751 34.1551 29.142 34.1551 29.553 34.566L36.6926 41.7577C37.0989 42.1666 37.0989 42.8273 36.6926 43.2363C36.509 43.4241 36.2624 43.5359 36.0007 43.5505Z" fill="#6A398E"/>
<path d="M32.4061 39.9125C32.1277 39.9141 31.8598 39.8043 31.6616 39.6082C31.4634 39.4115 31.3516 39.1436 31.3516 38.8637C31.3516 38.5844 31.4634 38.3165 31.6616 38.1193L54.8308 14.9502V14.9507C55.0279 14.7519 55.2958 14.6406 55.5752 14.6406C55.8546 14.6406 56.1225 14.752 56.3196 14.9507C56.7259 15.3596 56.7259 16.0197 56.3196 16.4287L33.1505 39.6511C32.946 39.8321 32.6792 39.9258 32.4061 39.9133V39.9125Z" fill="#6A398E"/>
<path d="M59.1714 20.3703C58.8931 20.3724 58.6252 20.2627 58.427 20.0665C58.0207 19.6576 58.0207 18.9975 58.427 18.5885L62.6205 14.395C62.8031 14.2108 62.9051 13.9622 62.9041 13.7031C62.8978 13.445 62.7969 13.199 62.6205 13.0112L58.2906 8.69165C57.8968 8.34986 57.3116 8.34986 56.9177 8.69165L52.7241 12.8852C52.3152 13.2915 51.6546 13.2915 51.2456 12.8852C51.0474 12.688 50.9355 12.4201 50.9355 12.1407C50.9355 11.8614 51.0474 11.5929 51.2456 11.3963L55.4391 7.20276C56.0239 6.64508 56.8012 6.33398 57.6096 6.33398C58.4175 6.33398 59.1946 6.64508 59.7794 7.20276L64.1094 11.5327C64.6889 12.1049 65.0104 12.8884 65.0005 13.7031C65.0031 14.5178 64.678 15.2996 64.0989 15.873L59.9054 20.0665C59.7103 20.26 59.4466 20.3693 59.1714 20.3703Z" fill="#6A398E"/>
<path d="M38.4754 13.1576H9.34123C8.76221 13.1576 8.29297 12.6878 8.29297 12.1088C8.29297 11.5298 8.76221 11.0605 9.34123 11.0605H38.4754C39.0545 11.0605 39.5242 11.5298 39.5242 12.1088C39.5242 12.6878 39.0545 13.1576 38.4754 13.1576Z" fill="#6A398E"/>
<path d="M30.3187 26.1049H9.351C8.77198 26.1049 8.30273 25.6356 8.30273 25.0566C8.30273 24.4776 8.77198 24.0078 9.351 24.0078H30.3187C30.8977 24.0078 31.3669 24.4776 31.3669 25.0566C31.3669 25.6356 30.8977 26.1049 30.3187 26.1049Z" fill="#6A398E"/>
<path d="M20.4019 39.0404H9.34123C8.76221 39.0404 8.29297 38.5712 8.29297 37.9921C8.29297 37.4131 8.76221 36.9434 9.34123 36.9434H20.4019C20.9809 36.9434 21.4501 37.4131 21.4501 37.9921C21.4501 38.5712 20.9809 39.0404 20.4019 39.0404Z" fill="#6A398E"/>
<path d="M38.4754 51.9891H9.34123C8.76221 51.9891 8.29297 51.5199 8.29297 50.9408C8.29297 50.3618 8.76221 49.8926 9.34123 49.8926H38.4754C39.0545 49.8926 39.5242 50.3618 39.5242 50.9408C39.5242 51.5199 39.0545 51.9891 38.4754 51.9891Z" fill="#6A398E"/>
</svg>
