<svg width="57" height="65" viewBox="0 0 57 65" fill="none" xmlns="http://www.w3.org/2000/svg">
<path d="M27.0687 63.6641C27.0687 64.3766 26.4453 65 25.7329 65H8.81532C3.91784 65 0 60.3697 0 54.7604L0.000690368 5.78734C0.000690368 2.58191 2.31556 0 5.07632 0H50.2195C50.932 0 51.5554 0.623393 51.5554 1.33586C51.5554 2.04833 50.932 2.67173 50.2195 2.67173L5.07632 2.67104C3.74046 2.67104 2.67238 4.09595 2.67238 5.78739C2.67238 7.47948 3.74108 8.90374 5.07632 8.90374H50.3079C51.0203 8.90374 51.6438 9.52713 51.6438 10.2396V32.4993C51.6438 33.2117 51.0204 33.8351 50.3079 33.8351C49.5961 33.8344 48.8837 33.2111 48.8837 32.4993V11.5739H5.0748C4.18422 11.5739 3.38271 11.3068 2.67086 10.8615V54.7587C2.67086 58.9438 5.43092 62.3272 8.8145 62.3272H25.732C26.5335 62.3272 27.0679 62.9506 27.0679 63.6631L27.0687 63.6641ZM4.89741 4.45112C4.18496 4.45112 3.56155 5.07452 3.56155 5.78698C3.56155 6.49945 4.18494 7.12285 4.89741 7.12285H47.7254C48.4379 7.12285 49.0613 6.49945 49.0613 5.78698C49.0613 5.07452 48.4379 4.45112 47.7254 4.45112H4.89741ZM56.8979 50.6636C56.8979 58.5883 50.4872 64.999 42.5625 64.999C34.6377 64.999 28.227 58.5883 28.227 50.6636C28.227 42.7388 34.6377 36.3281 42.5625 36.3281C50.4865 36.3281 56.8979 42.8279 56.8979 50.6636ZM54.2262 50.6636C54.2262 44.2529 48.9724 38.9991 42.5618 38.9991C36.1511 38.9991 30.8973 44.2529 30.8973 50.6636C30.8973 57.0742 36.1511 62.328 42.5618 62.328C48.9731 62.3273 54.2262 57.0742 54.2262 50.6636ZM43.2742 45.677C43.8085 45.677 44.3429 46.1223 44.7882 46.9238C45.1444 47.5472 45.9459 47.7253 46.4802 47.3691C47.1036 47.0129 47.2818 46.2113 46.9255 45.677C46.0349 44.074 44.6997 43.1842 43.1858 43.1842C41.0491 43.1842 39.268 45.1427 38.5556 47.9035H37.9322C37.2197 47.9035 36.6854 48.4378 36.6854 49.1503C36.6854 49.8628 37.2197 50.3971 37.9322 50.3971H38.2884V50.7533V51.1096H37.9322C37.2197 51.1096 36.6854 51.6439 36.6854 52.3564C36.6854 53.0689 37.2197 53.6032 37.9322 53.6032H38.5556C39.268 56.3632 41.0484 58.3225 43.1858 58.3225C44.6998 58.3225 46.035 57.4319 46.9255 55.8297C47.2817 55.2063 47.0146 54.4938 46.4802 54.1376C45.8568 53.7814 45.1444 54.0485 44.7882 54.5829C44.3429 55.3844 43.8085 55.8297 43.2742 55.8297C42.5617 55.8297 41.7602 54.9391 41.3156 53.6039H44.3429C45.0553 53.6039 45.5897 53.0696 45.5897 52.3571C45.5897 51.6446 45.0554 51.1103 44.3429 51.1103L40.8704 51.1082V50.752V50.3958H44.3429C45.0553 50.3958 45.5897 49.8614 45.5897 49.149C45.5897 48.4365 45.0554 47.9022 44.3429 47.9022H41.3156C41.7609 46.4786 42.5624 45.677 43.2742 45.677Z" fill="white"/>
<path d="M27.0687 63.6641C27.0687 64.3766 26.4453 65 25.7329 65H8.81532C3.91784 65 0 60.3697 0 54.7604L0.000690368 5.78734C0.000690368 2.58191 2.31556 0 5.07632 0H50.2195C50.932 0 51.5554 0.623393 51.5554 1.33586C51.5554 2.04833 50.932 2.67173 50.2195 2.67173L5.07632 2.67104C3.74046 2.67104 2.67238 4.09595 2.67238 5.78739C2.67238 7.47948 3.74108 8.90374 5.07632 8.90374H50.3079C51.0203 8.90374 51.6438 9.52713 51.6438 10.2396V32.4993C51.6438 33.2117 51.0204 33.8351 50.3079 33.8351C49.5961 33.8344 48.8837 33.2111 48.8837 32.4993V11.5739H5.0748C4.18422 11.5739 3.38271 11.3068 2.67086 10.8615V54.7587C2.67086 58.9438 5.43092 62.3272 8.8145 62.3272H25.732C26.5335 62.3272 27.0679 62.9506 27.0679 63.6631L27.0687 63.6641ZM4.89741 4.45112C4.18496 4.45112 3.56155 5.07452 3.56155 5.78698C3.56155 6.49945 4.18494 7.12285 4.89741 7.12285H47.7254C48.4379 7.12285 49.0613 6.49945 49.0613 5.78698C49.0613 5.07452 48.4379 4.45112 47.7254 4.45112H4.89741ZM56.8979 50.6636C56.8979 58.5883 50.4872 64.999 42.5625 64.999C34.6377 64.999 28.227 58.5883 28.227 50.6636C28.227 42.7388 34.6377 36.3281 42.5625 36.3281C50.4865 36.3281 56.8979 42.8279 56.8979 50.6636ZM54.2262 50.6636C54.2262 44.2529 48.9724 38.9991 42.5618 38.9991C36.1511 38.9991 30.8973 44.2529 30.8973 50.6636C30.8973 57.0742 36.1511 62.328 42.5618 62.328C48.9731 62.3273 54.2262 57.0742 54.2262 50.6636ZM43.2742 45.677C43.8085 45.677 44.3429 46.1223 44.7882 46.9238C45.1444 47.5472 45.9459 47.7253 46.4802 47.3691C47.1036 47.0129 47.2818 46.2113 46.9255 45.677C46.0349 44.074 44.6997 43.1842 43.1858 43.1842C41.0491 43.1842 39.268 45.1427 38.5556 47.9035H37.9322C37.2197 47.9035 36.6854 48.4378 36.6854 49.1503C36.6854 49.8628 37.2197 50.3971 37.9322 50.3971H38.2884V50.7533V51.1096H37.9322C37.2197 51.1096 36.6854 51.6439 36.6854 52.3564C36.6854 53.0689 37.2197 53.6032 37.9322 53.6032H38.5556C39.268 56.3632 41.0484 58.3225 43.1858 58.3225C44.6998 58.3225 46.035 57.4319 46.9255 55.8297C47.2817 55.2063 47.0146 54.4938 46.4802 54.1376C45.8568 53.7814 45.1444 54.0485 44.7882 54.5829C44.3429 55.3844 43.8085 55.8297 43.2742 55.8297C42.5617 55.8297 41.7602 54.9391 41.3156 53.6039H44.3429C45.0553 53.6039 45.5897 53.0696 45.5897 52.3571C45.5897 51.6446 45.0554 51.1103 44.3429 51.1103L40.8704 51.1082V50.752V50.3958H44.3429C45.0553 50.3958 45.5897 49.8614 45.5897 49.149C45.5897 48.4365 45.0554 47.9022 44.3429 47.9022H41.3156C41.7609 46.4786 42.5624 45.677 43.2742 45.677Z" fill="#6A398E"/>
</svg>
