<svg width="51" height="65" viewBox="0 0 51 65" fill="none" xmlns="http://www.w3.org/2000/svg">
<path d="M22.176 25.5061C21.9214 24.2285 21.3553 23.0575 20.5701 22.0795C20.8675 21.9932 21.1211 21.792 21.2669 21.5097C21.4629 21.1317 21.4321 20.6796 21.1848 20.3293C20.385 19.1944 19.9684 16.5461 19.7828 14.614C20.4033 14.2335 20.8737 13.5628 20.9992 12.7525C21.1085 12.0473 20.9401 11.3348 20.5371 10.798C20.5261 10.7834 20.512 10.7724 20.5005 10.7583C20.6615 10.1362 20.7561 9.49007 20.7561 8.82249V7.52398C20.7561 3.37646 17.1303 0.00206243 12.6743 0.00206243H11.0286C6.57213 0.00206243 2.94627 3.37646 2.94627 7.52398V8.82249C2.94627 9.49005 3.04088 10.1362 3.2019 10.7588C3.1904 10.7734 3.17628 10.7839 3.16531 10.7991C2.76226 11.3365 2.59394 12.0484 2.7032 12.7532C2.82918 13.5634 3.29913 14.2341 3.91964 14.6147C3.73354 16.5469 3.31743 19.1951 2.51755 20.33C2.2708 20.6802 2.23945 21.1324 2.43548 21.5103C2.58238 21.7937 2.83696 21.996 3.13597 22.0817C2.3461 23.0687 1.77631 24.2569 1.51749 25.5642L0.00459885 38.6007C-0.0178798 38.7915 0.0427608 38.9833 0.170837 39.1266C0.225203 39.1877 0.293161 39.2311 0.364254 39.2682L0.317206 39.6619C0.235134 40.3436 0.449463 41.0289 0.905301 41.5423C1.36114 42.0556 2.01616 42.351 2.70311 42.351H3.30376L2.59856 49.7694C2.58079 49.9582 2.64352 50.1469 2.77108 50.287C2.89864 50.4271 3.08003 50.5076 3.26979 50.5076H4.71363V60.5137H4.58137C2.74128 60.5137 1.24404 62.0104 1.24404 63.8505V64.0533C1.24404 64.5755 1.66852 65 2.19023 65H10.0091C10.5308 65 10.9553 64.5755 10.9553 64.0533V62.6764C10.9553 62.2174 10.8094 61.7929 10.5643 61.4421L10.8398 50.5071H12.8639L13.1388 61.4259C13.1388 61.4312 13.1399 61.4359 13.1399 61.4411C12.8942 61.7919 12.7478 62.2169 12.7478 62.6764V64.0533C12.7478 64.5755 13.1723 65 13.6945 65H21.5134C22.0351 65 22.4601 64.5755 22.4601 64.0533V63.8505C22.4601 62.0104 20.9628 60.5137 19.1224 60.5137H18.9901L18.9896 50.5076H20.4334C20.6232 50.5076 20.8046 50.4271 20.9321 50.287C21.0597 50.1469 21.1224 49.9582 21.1046 49.7694L20.3995 42.35H21.0001C21.6865 42.35 22.3414 42.0557 22.7974 41.5424C23.2533 41.029 23.4675 40.3432 23.386 39.6615L23.3389 39.2678C23.4095 39.2307 23.478 39.1873 23.5318 39.1262C23.6599 38.9824 23.7206 38.7911 23.6981 38.6003L22.1842 25.5606C22.1821 25.5418 22.179 25.524 22.1759 25.5062L22.176 25.5061ZM19.8758 20.7778H19.2344C18.6614 20.3402 18.0331 19.9764 17.352 19.7223C16.8162 19.5226 16.227 19.5592 15.6932 19.8258C15.5129 19.9157 15.2985 19.9962 15.0644 20.0705V18.6988C16.3676 17.8158 17.4319 16.4489 18.1465 14.8853C18.2165 14.902 18.2845 14.9255 18.3566 14.9349C18.3917 14.9397 18.4256 14.9386 18.4607 14.9417C18.641 16.7306 19.0352 19.2994 19.8758 20.7778ZM15.343 25.7523L15.7513 27.5343L13.3482 28.9489L16.3995 22.2357L17.2171 23.9247L15.6128 25.0496C15.3886 25.2075 15.2819 25.4851 15.3431 25.7522L15.343 25.7523ZM11.472 24.6425H12.231L12.5896 27.3593L12.1667 28.2893L11.8515 28.9835L11.5363 28.2893L11.1134 27.3593L11.472 24.6425ZM11.1562 21.8316C11.3847 21.8416 11.6168 21.8478 11.852 21.8478C12.0873 21.8478 12.3194 21.8421 12.5478 21.8316L12.2378 23.2818H11.4662L11.1562 21.8316ZM11.8515 20.4991C11.2027 20.4991 10.5692 20.451 9.98677 20.3664V19.3946C10.5785 19.612 11.2001 19.7427 11.8515 19.7427C12.5028 19.7427 13.1244 19.612 13.7162 19.3946V20.3664C13.1339 20.451 12.5003 20.4991 11.8515 20.4991ZM8.09074 25.0497L6.48644 23.9248L7.30455 22.2358L10.3554 28.949L7.95281 27.5344L8.36108 25.7524C8.42171 25.4853 8.315 25.2076 8.09074 25.0497ZM8.41066 21.4118C8.81737 21.5305 9.26693 21.6256 9.74839 21.6973L10.2278 23.9367C10.2278 23.9372 10.2283 23.9372 10.2283 23.9377C10.2168 23.9785 10.1953 24.0146 10.1896 24.0574L10.0599 25.0402L8.41066 21.4118ZM5.90612 10.481C5.90612 10.0722 5.9401 9.66287 6.00963 9.23997C8.32279 9.06852 10.417 8.05488 11.8519 6.40448C13.2869 8.05482 15.3805 9.06787 17.6942 9.23997C17.7632 9.66235 17.7972 10.0717 17.7972 10.481C17.7972 14.1403 15.2001 18.3945 11.8513 18.3945C8.50299 18.3945 5.90598 14.1403 5.90598 10.481H5.90612ZM13.9554 21.6967C14.4369 21.6251 14.8865 21.53 15.2932 21.4113L13.6439 25.0403L13.5143 24.0564C13.5085 24.0141 13.4871 23.9791 13.4761 23.9388C13.4761 23.9378 13.4771 23.9367 13.4771 23.9357L13.9554 21.6967ZM19.6666 12.5454C19.5751 13.1366 19.1213 13.5888 18.6441 13.5977C18.8783 12.8543 19.0387 12.0895 19.1067 11.3284C19.2714 11.3948 19.3858 11.5093 19.459 11.6065C19.6451 11.8548 19.7204 12.1972 19.6666 12.5454ZM4.2954 7.52278C4.2954 4.11854 7.31637 1.34956 11.029 1.34956H12.6746C16.3872 1.34956 19.4081 4.11907 19.4081 7.52278V8.8213C19.4081 9.22017 19.3632 9.60857 19.2921 9.98914C19.2325 9.97555 19.1755 9.95568 19.1144 9.94732C19.084 9.45332 19.026 8.95252 18.9126 8.44393C18.8446 8.13969 18.577 7.9217 18.2654 7.91647C16.0442 7.8804 14.0285 6.94832 12.7347 5.35974C12.3003 4.82653 11.4043 4.82548 10.9683 5.36026C9.67398 6.9489 7.65829 7.88046 5.4376 7.91659C5.12604 7.92182 4.85839 8.13981 4.79044 8.44405C4.67648 8.95321 4.61898 9.45401 4.58813 9.94744C4.52697 9.9558 4.46999 9.97567 4.4104 9.98926C4.33983 9.60869 4.29435 9.22029 4.29435 8.82142L4.2954 7.52278ZM4.24469 11.6071C4.31736 11.5104 4.43183 11.3954 4.59703 11.329C4.66446 12.0902 4.82547 12.8549 5.05966 13.5983C4.58656 13.5899 4.12864 13.1367 4.03716 12.5455C3.98332 12.1973 4.05911 11.8554 4.24469 11.6071ZM5.24315 14.9412C5.27765 14.9386 5.31215 14.9392 5.34718 14.9345C5.41932 14.925 5.48728 14.9015 5.55732 14.8848C6.27192 16.4484 7.33573 17.8153 8.63945 18.6983V20.07C8.40578 19.9958 8.19144 19.9153 8.0111 19.8259C7.47632 19.5593 6.88771 19.5227 6.35194 19.7223C5.67132 19.9764 5.04401 20.3397 4.47102 20.7778H3.82803C4.66862 19.2994 5.06231 16.7306 5.24315 14.9412ZM3.43236 41.001H2.70364C2.39783 41.001 2.11764 40.875 1.91481 40.6461C1.71146 40.4176 1.61998 40.1244 1.65657 39.8212L1.71303 39.3512H3.58966L3.43236 41.001ZM9.60772 63.6509H2.60278C2.70262 62.6473 3.55211 61.8616 4.58138 61.8616H8.79273C9.24178 61.8616 9.60718 62.227 9.60718 62.676L9.60772 63.6509ZM6.06243 60.5129V50.5068H9.49116L9.23815 60.5598C9.0944 60.5295 8.94541 60.5128 8.79277 60.5128L6.06243 60.5129ZM19.1224 61.861C20.1523 61.861 21.0017 62.6473 21.1016 63.6504L14.0966 63.6509V62.676C14.0966 62.2269 14.462 61.8615 14.9116 61.8615L19.1224 61.861ZM14.2132 50.5068H17.6414V60.5129H14.9116C14.759 60.5129 14.61 60.5296 14.4662 60.5599L14.2132 50.5068ZM4.01169 49.1581L5.05249 38.21H18.6518L19.6926 49.1581H4.01169ZM21.789 40.6461C21.5862 40.8751 21.306 41.0011 21.0007 41.0011H20.272L20.1152 39.3513H21.9918L22.0483 39.8212C22.0838 40.1249 21.9919 40.4177 21.789 40.6461ZM19.9865 38.0025L19.9656 37.7851C20.0033 37.692 20.0242 37.5927 20.0174 37.4902L19.4789 29.4744C19.4544 29.1027 19.1256 28.8121 18.7612 28.8471C18.4052 28.8706 18.1402 29.1686 18.1397 29.5199C18.1397 29.5355 18.1329 29.5491 18.1339 29.5648L18.6237 36.8619L5.07928 36.8614L5.56911 29.5643C5.57015 29.5486 5.56336 29.535 5.56336 29.5193C5.56283 29.168 5.29779 28.8706 4.94181 28.8466C4.56281 28.8126 4.24863 29.1022 4.22406 29.4739L3.68563 37.4897C3.67883 37.5922 3.69974 37.691 3.73738 37.7846L3.71647 38.002H1.43101L2.84875 25.7711C3.24709 23.7684 4.5482 22.0788 6.29528 21.2232L5.02186 23.8531C4.87758 24.1511 4.97063 24.5091 5.24141 24.6989L6.9446 25.8929L6.52744 27.7136C6.46158 28 6.58913 28.2959 6.84267 28.4449L8.66657 29.5186L11.5093 31.1925C11.5318 31.2056 11.5563 31.2119 11.5799 31.2223C11.5997 31.2312 11.618 31.2401 11.6384 31.2469C11.7079 31.2704 11.7796 31.2861 11.8512 31.2861C11.9233 31.2861 11.9944 31.2704 12.0639 31.2469C12.0843 31.2401 12.1026 31.2312 12.1225 31.2223C12.146 31.2119 12.1706 31.2061 12.193 31.1925L15.0358 29.5186L16.8602 28.4449C17.1132 28.2959 17.2413 28 17.1754 27.7136L16.7583 25.8929L18.4609 24.6989C18.7317 24.5091 18.8248 24.1505 18.6805 23.8531L17.407 21.2232C19.1457 22.0747 20.4433 23.7518 20.8473 25.7424L22.2708 38.002L19.9865 38.0025ZM11.8514 16.3643C10.7787 16.3643 9.97052 15.8186 9.97052 15.094C9.97052 14.7961 10.212 14.5546 10.51 14.5546C10.808 14.5546 11.0495 14.7961 11.0495 15.094C11.0767 15.1061 11.349 15.2854 11.8519 15.2854C12.256 15.2854 12.5043 15.1714 12.6083 15.094C12.6339 15.0747 12.658 15.0559 12.6653 15.0433C12.6653 14.7454 12.9016 14.5289 13.199 14.5289C13.497 14.5289 13.7328 14.7955 13.7328 15.0935C13.7328 15.8186 12.9242 16.3643 11.8514 16.3643ZM9.71653 11.5184C9.71653 12.0804 9.36994 12.5038 8.90992 12.5038C8.4499 12.5038 8.10331 12.0798 8.10331 11.5184C8.10331 10.9564 8.45043 10.533 8.90992 10.533C9.36942 10.533 9.71653 10.9564 9.71653 11.5184ZM13.9874 11.5184C13.9874 10.9564 14.334 10.533 14.794 10.533C15.254 10.533 15.6006 10.9564 15.6006 11.5184C15.6006 12.0804 15.2535 12.5038 14.794 12.5038C14.334 12.5038 13.9874 12.0804 13.9874 11.5184ZM12.7161 32.7658C12.7161 33.2431 12.3292 33.6299 11.852 33.6299C11.3747 33.6299 10.9879 33.2431 10.9879 32.7658C10.9879 32.2886 11.3747 31.9017 11.852 31.9017C12.3287 31.9017 12.7161 32.2886 12.7161 32.7658ZM12.7161 35.1177C12.7161 35.5949 12.3292 35.9818 11.852 35.9818C11.3747 35.9818 10.9879 35.5949 10.9879 35.1177C10.9879 34.6404 11.3747 34.2536 11.852 34.2536C12.3287 34.253 12.7161 34.6404 12.7161 35.1177ZM50.7746 38.5993L49.2608 25.5596C49.2587 25.5413 49.2561 25.5235 49.2524 25.5058C48.7239 22.8512 46.8754 20.6352 44.429 19.722C43.8937 19.5223 43.305 19.5589 42.7698 19.8255C42.59 19.9154 42.3751 19.9959 42.1415 20.0696V18.6979C43.4447 17.815 44.509 16.448 45.2236 14.8844C45.2936 14.9011 45.3616 14.9247 45.4337 14.9341C45.5247 14.9461 45.6146 14.9513 45.7045 14.9513C46.8467 14.9513 47.8797 14.0172 48.0763 12.7511C48.1856 12.0464 48.0177 11.3339 47.6147 10.797C47.6037 10.7818 47.5891 10.7709 47.5776 10.7562C47.7386 10.1341 47.8332 9.488 47.8332 8.82043V7.52191C47.8332 3.3744 44.2079 0 39.7519 0H38.1057C33.6498 0 30.0239 3.3744 30.0239 7.52191V8.82043C30.0239 9.48799 30.1185 10.1341 30.2795 10.7562C30.268 10.7703 30.2539 10.7813 30.2429 10.7959C29.8399 11.3328 29.6716 12.0453 29.7808 12.7505C29.9779 14.0171 31.0109 14.9507 32.1526 14.9507C32.242 14.9507 32.3324 14.9449 32.4234 14.9334C32.4955 14.924 32.5635 14.9005 32.6335 14.8838C33.3481 16.4474 34.4119 17.8143 35.7157 18.6973V20.069C35.482 19.9947 35.2677 19.9142 35.0873 19.8248C34.552 19.5582 33.9639 19.5216 33.4276 19.7213C30.979 20.6351 29.1306 22.8526 28.5948 25.5621L27.0819 38.5986C27.0594 38.7894 27.1201 38.9812 27.2481 39.1245C27.3025 39.1856 27.3705 39.2285 27.441 39.2661L27.394 39.6598C27.3124 40.342 27.5268 41.0273 27.9826 41.5407C28.4384 42.054 29.0935 42.3483 29.7799 42.3483H31.07L31.0444 42.7901L31.0742 60.281C29.5122 60.5591 28.3204 61.9193 28.3204 63.5597V64.0522C28.3204 64.5744 28.7448 64.9989 29.2671 64.9989H37.0859C37.6076 64.9989 38.0321 64.5744 38.0321 64.0522V62.3851C38.0321 62.0453 37.9464 61.728 37.8063 61.4421C38.03 61.2068 38.1738 60.8911 38.1863 60.5367L38.7399 44.661C38.7483 44.4158 38.8826 44.2877 38.9281 44.2877C38.9731 44.2877 39.1079 44.4163 39.1163 44.6625L39.6699 60.5369C39.6819 60.8913 39.8262 61.2071 40.0499 61.4423C39.9098 61.7288 39.8241 62.0461 39.8241 62.3853V64.0524C39.8241 64.5746 40.2486 64.9991 40.7703 64.9991H48.5897C49.1114 64.9991 49.5359 64.5746 49.5359 64.0524V63.56C49.5359 61.9195 48.344 60.5593 46.782 60.2813L46.8108 42.7502L46.7872 42.3492H48.0769C48.7627 42.3492 49.4182 42.0549 49.8736 41.5415C50.33 41.0282 50.5443 40.3424 50.4627 39.6606L50.4152 39.2665C50.4857 39.2294 50.5537 39.186 50.6081 39.1253C50.7367 38.9826 50.7973 38.7908 50.7748 38.6L50.7746 38.5993ZM43.4759 22.2365L44.2935 23.9255L42.6892 25.0504C42.465 25.2083 42.3578 25.4859 42.4195 25.7535L42.8278 27.535L40.4252 28.9495L43.4759 22.2365ZM38.549 24.6426H39.3081L39.6667 27.3594L39.2438 28.2894L38.9285 28.9831L38.6133 28.2894L38.1904 27.3594L38.549 24.6426ZM38.2322 21.8318C38.4612 21.8417 38.6928 21.848 38.9285 21.848C39.1638 21.848 39.3959 21.8422 39.6248 21.8318L39.3143 23.2819H38.5428L38.2322 21.8318ZM38.9285 20.4993C38.2798 20.4993 37.6462 20.4512 37.0638 20.3665V19.3947C37.6556 19.6122 38.2771 19.7429 38.9285 19.7429C39.5799 19.7429 40.2014 19.6122 40.7933 19.3947V20.3665C40.2109 20.4512 39.5773 20.4993 38.9285 20.4993ZM42.3693 21.412L40.7206 25.0404L40.591 24.0566C40.5852 24.0142 40.5638 23.9787 40.5523 23.9384C40.5523 23.9374 40.5528 23.9369 40.5533 23.9358L41.0316 21.6969C41.5136 21.6258 41.9631 21.5307 42.3693 21.412ZM46.7433 12.5455C46.6518 13.1368 46.2022 13.5895 45.7208 13.5979C45.955 12.8545 46.116 12.0896 46.1834 11.3286C46.3481 11.395 46.4625 11.5095 46.5352 11.6067C46.7213 11.8555 46.7971 12.1969 46.7433 12.5455ZM31.1138 12.5455C31.06 12.1974 31.1358 11.8555 31.3219 11.6072C31.3945 11.51 31.509 11.3955 31.6742 11.3291C31.7416 12.0902 31.9027 12.8544 32.1368 13.5984C31.659 13.5895 31.2053 13.1363 31.1138 12.5455ZM32.5148 7.91707C32.2033 7.9223 31.9356 8.14029 31.8677 8.44505C31.7527 8.96154 31.6952 9.45658 31.6654 9.94844C31.6047 9.95681 31.5472 9.97667 31.4882 9.99026C31.4176 9.60969 31.3721 9.22129 31.3721 8.82242V7.52391C31.3721 4.11966 34.3925 1.35068 38.1057 1.35068H39.7518C43.4644 1.35068 46.4848 4.1202 46.4848 7.52391V8.82242C46.4848 9.22129 46.4399 9.60969 46.3688 9.99026C46.3097 9.97667 46.2527 9.95733 46.1921 9.94844C46.1623 9.45653 46.1048 8.96148 45.9898 8.44505C45.9229 8.14029 45.6547 7.92282 45.3432 7.91707C43.1214 7.881 41.1057 6.94892 39.8119 5.36128C39.3775 4.8265 38.4804 4.82754 38.0461 5.36075C36.7512 6.94886 34.7355 7.88094 32.5148 7.91707ZM32.9832 10.4812C32.9832 10.0729 33.0172 9.66357 33.0862 9.24015C35.3988 9.06815 37.4925 8.05506 38.9285 6.40466C40.3635 8.05445 42.4576 9.06805 44.7708 9.24015C44.8408 9.66306 44.8743 10.0729 44.8743 10.4812C44.8743 14.1405 42.2767 18.3946 38.9284 18.3946C35.5806 18.3946 32.9831 14.1405 32.9831 10.4812H32.9832ZM36.8255 21.6973L37.3048 23.9367C37.3048 23.9373 37.3054 23.9373 37.3054 23.9378C37.2939 23.9786 37.2724 24.0146 37.2667 24.0575L37.137 25.0403L35.4883 21.4119C35.8945 21.5306 36.344 21.6257 36.8255 21.6973ZM34.381 22.2358L37.4324 28.949L35.0298 27.5344L35.4381 25.7529C35.4992 25.4858 35.3926 25.2072 35.1683 25.0498L33.5641 23.9249L34.381 22.2358ZM29.7803 41.0021C29.4744 41.0021 29.1942 40.8761 28.9914 40.6471C28.7881 40.4187 28.6966 40.1254 28.7327 39.8222L28.7891 39.3522H30.7929L30.7626 39.9424C30.7531 40.1275 30.8195 40.3079 30.9471 40.4417C31.0119 40.5096 31.0893 40.5619 31.1734 40.598L31.1499 41.0026L29.7803 41.0021ZM36.6843 63.652H29.6694V63.561C29.6694 62.6075 30.3448 61.8098 31.2419 61.6175C31.3658 61.7638 31.5435 61.8621 31.7505 61.8621H36.4805C36.6028 62.0048 36.6843 62.1841 36.6843 62.3864L36.6843 63.652ZM40.4643 44.6153C40.4319 43.6749 39.7581 42.9389 38.9289 42.9389C38.0993 42.9389 37.4245 43.6755 37.3936 44.6144L36.84 60.5128H32.4237L32.3924 42.8292L32.5205 40.6498H45.3389L45.4649 42.7884L45.434 60.5095L41.0178 60.4891L40.4643 44.6153ZM48.188 63.561V63.6519H41.1732V62.3863C41.1732 62.184 41.2547 62.0047 41.3771 61.862H46.1064C46.3135 61.862 46.4917 61.7637 46.6151 61.6174C47.5132 61.8092 48.188 62.607 48.188 63.561ZM48.8666 40.6474C48.6632 40.8764 48.3835 41.0024 48.0777 41.0024H46.7087L46.6847 40.5972C46.7688 40.5617 46.8457 40.5089 46.91 40.4414C47.0375 40.3076 47.1044 40.1273 47.095 39.9422L47.0647 39.352H49.0679L49.1244 39.822C49.161 40.1262 49.0694 40.419 48.8666 40.6474ZM46.9957 38.0038L46.5576 29.4861C46.5383 29.1139 46.2152 28.8186 45.8493 28.8473C45.4902 28.8656 45.2162 29.1646 45.2157 29.5206C45.2157 29.5327 45.21 29.5431 45.2105 29.5551L45.7123 39.303H32.1451L32.647 29.5551C32.6475 29.5431 32.6418 29.5327 32.6418 29.5206C32.6412 29.1646 32.3683 28.8656 32.0082 28.8473C31.6354 28.8191 31.3197 29.1134 31.3004 29.4861L30.8618 38.0038H28.5083L29.9261 25.7729C30.3239 23.7702 31.625 22.0806 33.3726 21.225L32.0992 23.8544C31.9549 24.1518 32.0479 24.5099 32.3187 24.7002L34.0219 25.8942L33.6042 27.7148C33.5384 28.0018 33.6659 28.2977 33.9195 28.4467L35.7434 29.5204L38.5861 31.1943C38.6091 31.2079 38.6336 31.2137 38.6577 31.2241C38.677 31.2325 38.6953 31.2414 38.7152 31.2482C38.7847 31.2717 38.8563 31.2874 38.9285 31.2874C39.0006 31.2874 39.0722 31.2717 39.1418 31.2482C39.1616 31.2414 39.1799 31.2325 39.1993 31.2241C39.2233 31.2137 39.2479 31.2074 39.2709 31.1943L42.1136 29.5204L43.9381 28.4467C44.1911 28.2977 44.3186 28.0019 44.2528 27.7148L43.8351 25.8942L45.5377 24.7002C45.8085 24.5104 45.9021 24.1518 45.7578 23.8544L44.4844 21.225C46.223 22.0765 47.5206 23.7536 47.9252 25.7442L49.3481 38.0038H46.9957ZM38.9291 16.3656C37.8564 16.3656 37.0482 15.8199 37.0482 15.0953C37.0482 14.7974 37.2897 14.5559 37.5877 14.5559C37.8851 14.5559 38.1272 14.7974 38.1272 15.0953C38.1543 15.1074 38.4267 15.2867 38.9296 15.2867C39.3337 15.2867 39.5815 15.1732 39.686 15.0953C39.7116 15.076 39.7351 15.0572 39.743 15.0446C39.743 14.7472 39.9793 14.5302 40.2767 14.5302C40.5752 14.5302 40.8105 14.7968 40.8105 15.0948C40.8099 15.8199 40.0013 16.3656 38.9291 16.3656ZM36.7937 11.5197C36.7937 12.0817 36.4471 12.5051 35.9871 12.5051C35.527 12.5051 35.1805 12.0811 35.1805 11.5197C35.1805 10.9577 35.5276 10.5343 35.9871 10.5343C36.4466 10.5343 36.7937 10.9577 36.7937 11.5197ZM41.0646 11.5197C41.0646 10.9577 41.4111 10.5343 41.8712 10.5343C42.3312 10.5343 42.6778 10.9577 42.6778 11.5197C42.6778 12.0817 42.3307 12.5051 41.8712 12.5051C41.4111 12.5051 41.0646 12.0817 41.0646 11.5197ZM39.7932 32.8849C39.7932 33.3622 39.4064 33.749 38.9291 33.749C38.4518 33.749 38.065 33.3622 38.065 32.8849C38.065 32.4076 38.4518 32.0208 38.9291 32.0208C39.4064 32.0208 39.7932 32.4076 39.7932 32.8849ZM39.7932 35.2362C39.7932 35.7135 39.4064 36.1003 38.9291 36.1003C38.4518 36.1003 38.065 35.7135 38.065 35.2362C38.065 34.7589 38.4518 34.3721 38.9291 34.3721C39.4064 34.3721 39.7932 34.7589 39.7932 35.2362ZM39.7932 37.5875C39.7932 38.0648 39.4064 38.4516 38.9291 38.4516C38.4518 38.4516 38.065 38.0648 38.065 37.5875C38.065 37.1102 38.4518 36.7234 38.9291 36.7234C39.4064 36.7234 39.7932 37.1102 39.7932 37.5875Z" fill="#6A398E"/>
</svg>
