<svg width="53" height="67" viewBox="0 0 53 67" fill="none" xmlns="http://www.w3.org/2000/svg">
<path d="M18.099 12.8175L18.099 12.8187C18.1128 15.5074 19.1938 18.08 21.1044 19.9718C22.9995 21.8475 25.5569 22.9008 28.2215 22.9044L18.099 12.8175ZM18.099 12.8175C18.072 10.1095 19.1242 7.50141 21.0231 5.57063C22.9221 3.63979 25.5113 2.54359 28.2199 2.52526C30.9284 2.50693 33.5327 3.56798 35.4574 5.47313C37.3821 7.37903 38.4688 9.97204 38.4782 12.6805C38.487 15.3891 37.4178 17.9897 35.5058 19.9079C33.5938 21.8263 30.9972 22.9041 28.2887 22.9042C28.2886 22.9042 28.2885 22.9042 28.2883 22.9042L28.288 22.9042C28.2879 22.9042 28.2877 22.9042 28.2876 22.9042L18.099 12.8175ZM28.2704 50.938C29.1885 50.9339 30.0701 51.2931 30.7262 51.934L30.7264 51.9341L31.2914 52.4869L31.2934 52.4888L42.3838 63.5793L42.3848 63.5803C42.9448 64.1469 43.7081 64.4671 44.5047 64.4701C45.3019 64.4724 46.0668 64.157 46.6297 63.5935L46.6298 63.5934C47.1934 63.0298 47.5088 62.2647 47.5064 61.4682C47.5041 60.6712 47.1839 59.908 46.6167 59.3479L46.6099 59.3411L46.61 59.341L46.581 59.3101L46.5753 59.304L46.5754 59.3039L37.3776 48.8094L37.3772 48.8089C37.3484 48.7758 37.323 48.7411 37.3008 48.7066C37.1815 48.5505 37.1168 48.3595 37.1168 48.1632V30.3701C37.1168 29.8735 37.519 29.4713 38.0155 29.4713H40.609C43.1227 29.4713 45.5331 28.4731 47.3106 26.6955C49.0876 24.9186 50.0865 22.5076 50.0865 19.9946V11.5646C50.0865 10.7272 49.6393 9.95308 48.914 9.53434C48.1889 9.11564 47.2957 9.11564 46.5705 9.53433C45.8454 9.9531 45.3987 10.7271 45.3987 11.5646V18.6971C45.3987 19.9674 44.8943 21.1856 43.9959 22.0839C43.0976 22.9823 41.8795 23.4868 40.6091 23.4868H40.6008L40.6008 23.4866L33.4959 23.25C32.794 23.2501 32.0029 23.2848 31.1669 23.3215C31.1188 23.3236 31.0706 23.3257 31.0222 23.3278C30.134 23.3667 29.201 23.4055 28.2887 23.4042M28.2704 50.938L14.1924 63.5793C13.4363 64.3328 12.3359 64.6267 11.3043 64.35C10.2728 64.0732 9.46737 63.2673 9.18996 62.2356C8.9132 61.2046 9.20719 60.1034 9.96091 59.3473L9.96099 59.3473L9.96611 59.3419L9.99572 59.3103L9.99582 59.3104L10.0015 59.304L19.1852 48.8236C19.2088 48.7969 19.2305 48.7686 19.2503 48.739C19.3862 48.5776 19.4601 48.3736 19.4601 48.1633V29.1296H19.4603L19.4598 29.1185L19.459 29.1006L19.4598 29.0828L19.4601 29.0828V29.0717C19.4601 28.8335 19.3655 28.6052 19.197 28.4367C19.0284 28.2681 18.8 28.1736 18.5614 28.1736H5.41221V28.1732L5.39872 28.174C4.59711 28.2173 3.81148 27.9427 3.21112 27.4105C2.78622 26.9938 2.54666 26.4242 2.54666 25.8294C2.54666 25.2353 2.78621 24.6656 3.21117 24.2489C3.81137 23.7161 4.59695 23.4416 5.39854 23.4855L5.39852 23.4859H5.41221H23.0621C24.1858 23.4859 25.0418 23.466 25.8423 23.4459C25.8961 23.4446 25.9497 23.4432 26.0031 23.4419C26.7239 23.4237 27.4095 23.4064 28.2222 23.4044M28.2704 50.938C27.3526 50.9415 26.4736 51.3061 25.8227 51.9528L25.279 52.4927L25.2784 52.4933L14.1927 63.579L28.2704 50.938ZM28.2887 23.4042C28.2886 23.4042 28.2885 23.4042 28.2883 23.4042C28.2662 23.4043 28.2441 23.4043 28.2222 23.4044M28.2887 23.4042C28.2665 23.4044 28.2443 23.4044 28.2222 23.4044M28.2887 23.4042C28.2887 23.4042 28.2888 23.4042 28.2889 23.4042C28.2891 23.4042 28.2894 23.4042 28.2896 23.4042L28.2222 23.4044M1.96921 22.951L1.96912 22.9509L1.96343 22.9565C1.1879 23.7114 0.75 24.7477 0.75 25.8301C0.75 26.9132 1.1879 27.9495 1.96342 28.7044L1.96333 28.7045L1.96921 28.7099C2.90789 29.5672 4.14647 30.0205 5.41717 29.971H17.6634V47.8337L8.66829 58.0989C7.47243 59.3128 7.01142 61.0713 7.4582 62.7168L7.69946 62.6513L7.4582 62.7168C7.90568 64.3641 9.19714 65.6488 10.8464 66.0882C12.4957 66.5282 14.255 66.0563 15.4631 64.8504L15.4632 64.8502L26.5479 53.7662L26.5486 53.7654L26.5492 53.7649L27.0891 53.2281C27.7471 52.5746 28.8072 52.5702 29.4701 53.2186L30.0306 53.7668L30.0325 53.7688L41.1134 64.8502L41.1136 64.8504C42.3222 66.0562 44.0808 66.5282 45.7307 66.0882C47.3801 65.6488 48.6708 64.3641 49.1189 62.7169L49.1189 62.7168C49.5657 61.0713 49.1047 59.3129 47.9089 58.0989L38.9144 47.8363V31.267H40.6092C43.5992 31.267 46.4669 30.079 48.5814 27.965L48.4046 27.7882L48.5814 27.9649C50.6954 25.8509 51.8834 22.9834 51.8834 19.9934V11.5634C51.8834 10.084 51.0944 8.71699 49.8129 7.97723C48.5314 7.23754 46.9533 7.23753 45.672 7.97724L45.6719 7.97726C44.3912 8.71695 43.6014 10.084 43.6014 11.5634V18.6967C43.6014 19.4909 43.2866 20.2511 42.7254 20.8123L42.9021 20.989L42.7254 20.8123C42.1642 21.3735 41.4034 21.6883 40.6091 21.6883H36.259C38.5664 19.6341 39.9995 16.7593 40.2394 13.6609L40.2394 13.6608C40.4964 10.3311 39.3534 7.04547 37.0845 4.59442C34.8163 2.14353 31.6278 0.75 28.2883 0.75C24.9488 0.75 21.761 2.14341 19.4921 4.59442L19.4921 4.59444C17.224 7.0453 16.0803 10.3311 16.3379 13.6608C16.5777 16.7593 18.0097 19.6341 20.3176 21.6883H5.41726C4.14647 21.6394 2.90779 22.0938 1.96921 22.951Z" fill="#6A398E" stroke="#6A398E" stroke-width="0.5"/>
</svg>
