<svg width="105" height="67" viewBox="0 0 105 67" fill="none" xmlns="http://www.w3.org/2000/svg">
<mask id="mask0_802_2844" style="mask-type:luminance" maskUnits="userSpaceOnUse" x="0" y="0" width="105" height="67">
<path d="M1 0.85H0.85V1V66V66.15H1H103.98H104.13V66V1V0.85H103.98H1Z" fill="white" stroke="white" stroke-width="0.3"/>
</mask>
<g mask="url(#mask0_802_2844)">
<mask id="path-2-outside-1_802_2844" maskUnits="userSpaceOnUse" x="-0.00195312" y="0" width="105" height="67" fill="black">
<rect fill="white" x="-0.00195312" width="105" height="67"/>
<path d="M82.483 31.3339C89.6703 31.3339 95.5178 25.4613 95.5178 18.2421C95.5178 11.0229 89.6697 5.14948 82.483 5.14948C75.2962 5.14948 69.4482 11.0229 69.4482 18.2421C69.4482 25.4605 75.297 31.3339 82.483 31.3339ZM82.483 6.76804C88.7822 6.76804 93.9086 11.9161 93.9086 18.2435C93.9086 24.5701 88.7824 29.7182 82.483 29.7182C76.1835 29.7182 71.0581 24.5701 71.0581 18.2435C71.0597 11.9163 76.1835 6.76804 82.483 6.76804ZM22.5119 31.3339C29.6993 31.3339 35.5467 25.4613 35.5467 18.2421C35.5467 11.0229 29.6993 5.14948 22.5119 5.14948C15.3245 5.15028 9.47708 11.0235 9.47708 18.2429C9.47708 25.4605 15.3245 31.3339 22.5119 31.3339ZM22.5119 6.76804C28.8112 6.76804 33.9367 11.9161 33.9367 18.2435C33.9367 24.5701 28.8114 29.7182 22.5119 29.7182C16.2126 29.7174 11.0871 24.5693 11.0871 18.2435C11.0871 11.9163 16.2124 6.76804 22.5119 6.76804ZM87.4652 31.4694H77.4978C74.8033 31.4694 72.0155 32.1929 69.5213 33.5254C66.2096 30.7484 61.985 29.1625 57.8291 29.1625H47.1637C43.0078 29.1625 38.7816 30.7484 35.4715 33.5262C32.9767 32.1938 30.1887 31.4694 27.495 31.4694H17.5276C9.48097 31.4694 0.998047 37.9981 0.998047 46.8007V66H103.998V46.8007C103.998 38.6334 96.273 31.4694 87.4652 31.4694ZM85.7538 33.0865L82.4692 37.1206L79.1839 33.0865H85.7538ZM56.1322 30.7805L52.4993 35.2427L48.8641 30.7805H56.1322ZM25.7971 33.0865L22.5125 37.1206L19.2271 33.0865H25.7971ZM12.1242 64.3837V45.8212H10.5142V64.3821L2.60801 64.3829V46.8015C2.60801 38.0317 11.9684 32.935 17.1545 33.097L21.1243 37.9685L16.6513 58.7518L22.1394 64.382H12.1242V64.3837ZM18.4061 58.2434L22.5125 39.1661L26.6206 58.2434L22.5141 62.4563L18.4061 58.2434ZM29.5322 64.3837H22.8879L28.3767 58.7535L23.9021 37.9701C24.6815 37.0124 27.0932 34.0508 27.872 33.0956C30.0145 33.1533 32.1853 33.7028 34.2017 34.6983C31.1845 37.7464 29.533 41.5477 29.533 45.516L29.5322 64.3837ZM41.2676 64.3837V44.3236H39.6576V64.3837H31.1414L31.1422 45.5132C31.1422 35.4335 42.0136 30.5035 46.79 30.7907L51.072 36.0472L46.286 58.2844L52.2324 64.3839L41.2676 64.3837ZM48.0422 57.7739L52.4984 37.0748L56.9538 57.7739L52.4984 62.3462L48.0422 57.7739ZM73.853 64.3837H65.28V44.3236H63.67V64.3837H52.7642L58.7106 58.2842L53.9238 36.045C54.744 35.0375 57.3793 31.7992 58.2028 30.7893C66.5825 30.9866 73.8539 37.78 73.8539 45.5118L73.853 64.3837ZM75.463 64.3837V45.5132C75.463 41.5459 73.8107 37.7436 70.7927 34.6946C72.8036 33.7024 74.9687 33.1529 77.1073 33.0927L81.0788 37.9673L76.6042 58.7506L82.0923 64.3809L75.463 64.3817V64.3837ZM78.362 58.2434L82.4676 39.1669L86.5757 58.2434L82.4692 62.4563L78.362 58.2434ZM102.388 64.3837H94.5283V45.8212H92.9183V64.3821H82.844L88.332 58.7518L83.8574 37.9685C84.636 37.0115 87.0438 34.0556 87.8248 33.097C95.6233 33.2871 102.388 39.6072 102.388 46.8032V64.3837ZM52.4939 28.9056C60.155 28.9056 66.3856 22.6466 66.3856 14.9524C66.3856 7.25902 60.1542 1 52.4939 1C44.8337 1 38.6023 7.25902 38.6023 14.9524C38.6023 22.6466 44.8345 28.9056 52.4939 28.9056ZM52.4939 2.61691C59.2661 2.61691 64.7756 8.15085 64.7756 14.9522C64.7756 21.7544 59.2661 27.2883 52.4939 27.2883C45.7218 27.2883 40.2123 21.7544 40.2123 14.9522C40.2123 8.15085 45.7218 2.61691 52.4939 2.61691Z"/>
</mask>
<path d="M82.483 31.3339C89.6703 31.3339 95.5178 25.4613 95.5178 18.2421C95.5178 11.0229 89.6697 5.14948 82.483 5.14948C75.2962 5.14948 69.4482 11.0229 69.4482 18.2421C69.4482 25.4605 75.297 31.3339 82.483 31.3339ZM82.483 6.76804C88.7822 6.76804 93.9086 11.9161 93.9086 18.2435C93.9086 24.5701 88.7824 29.7182 82.483 29.7182C76.1835 29.7182 71.0581 24.5701 71.0581 18.2435C71.0597 11.9163 76.1835 6.76804 82.483 6.76804ZM22.5119 31.3339C29.6993 31.3339 35.5467 25.4613 35.5467 18.2421C35.5467 11.0229 29.6993 5.14948 22.5119 5.14948C15.3245 5.15028 9.47708 11.0235 9.47708 18.2429C9.47708 25.4605 15.3245 31.3339 22.5119 31.3339ZM22.5119 6.76804C28.8112 6.76804 33.9367 11.9161 33.9367 18.2435C33.9367 24.5701 28.8114 29.7182 22.5119 29.7182C16.2126 29.7174 11.0871 24.5693 11.0871 18.2435C11.0871 11.9163 16.2124 6.76804 22.5119 6.76804ZM87.4652 31.4694H77.4978C74.8033 31.4694 72.0155 32.1929 69.5213 33.5254C66.2096 30.7484 61.985 29.1625 57.8291 29.1625H47.1637C43.0078 29.1625 38.7816 30.7484 35.4715 33.5262C32.9767 32.1938 30.1887 31.4694 27.495 31.4694H17.5276C9.48097 31.4694 0.998047 37.9981 0.998047 46.8007V66H103.998V46.8007C103.998 38.6334 96.273 31.4694 87.4652 31.4694ZM85.7538 33.0865L82.4692 37.1206L79.1839 33.0865H85.7538ZM56.1322 30.7805L52.4993 35.2427L48.8641 30.7805H56.1322ZM25.7971 33.0865L22.5125 37.1206L19.2271 33.0865H25.7971ZM12.1242 64.3837V45.8212H10.5142V64.3821L2.60801 64.3829V46.8015C2.60801 38.0317 11.9684 32.935 17.1545 33.097L21.1243 37.9685L16.6513 58.7518L22.1394 64.382H12.1242V64.3837ZM18.4061 58.2434L22.5125 39.1661L26.6206 58.2434L22.5141 62.4563L18.4061 58.2434ZM29.5322 64.3837H22.8879L28.3767 58.7535L23.9021 37.9701C24.6815 37.0124 27.0932 34.0508 27.872 33.0956C30.0145 33.1533 32.1853 33.7028 34.2017 34.6983C31.1845 37.7464 29.533 41.5477 29.533 45.516L29.5322 64.3837ZM41.2676 64.3837V44.3236H39.6576V64.3837H31.1414L31.1422 45.5132C31.1422 35.4335 42.0136 30.5035 46.79 30.7907L51.072 36.0472L46.286 58.2844L52.2324 64.3839L41.2676 64.3837ZM48.0422 57.7739L52.4984 37.0748L56.9538 57.7739L52.4984 62.3462L48.0422 57.7739ZM73.853 64.3837H65.28V44.3236H63.67V64.3837H52.7642L58.7106 58.2842L53.9238 36.045C54.744 35.0375 57.3793 31.7992 58.2028 30.7893C66.5825 30.9866 73.8539 37.78 73.8539 45.5118L73.853 64.3837ZM75.463 64.3837V45.5132C75.463 41.5459 73.8107 37.7436 70.7927 34.6946C72.8036 33.7024 74.9687 33.1529 77.1073 33.0927L81.0788 37.9673L76.6042 58.7506L82.0923 64.3809L75.463 64.3817V64.3837ZM78.362 58.2434L82.4676 39.1669L86.5757 58.2434L82.4692 62.4563L78.362 58.2434ZM102.388 64.3837H94.5283V45.8212H92.9183V64.3821H82.844L88.332 58.7518L83.8574 37.9685C84.636 37.0115 87.0438 34.0556 87.8248 33.097C95.6233 33.2871 102.388 39.6072 102.388 46.8032V64.3837ZM52.4939 28.9056C60.155 28.9056 66.3856 22.6466 66.3856 14.9524C66.3856 7.25902 60.1542 1 52.4939 1C44.8337 1 38.6023 7.25902 38.6023 14.9524C38.6023 22.6466 44.8345 28.9056 52.4939 28.9056ZM52.4939 2.61691C59.2661 2.61691 64.7756 8.15085 64.7756 14.9522C64.7756 21.7544 59.2661 27.2883 52.4939 27.2883C45.7218 27.2883 40.2123 21.7544 40.2123 14.9522C40.2123 8.15085 45.7218 2.61691 52.4939 2.61691Z" fill="#6A398E"/>
<path d="M82.483 31.3339C89.6703 31.3339 95.5178 25.4613 95.5178 18.2421C95.5178 11.0229 89.6697 5.14948 82.483 5.14948C75.2962 5.14948 69.4482 11.0229 69.4482 18.2421C69.4482 25.4605 75.297 31.3339 82.483 31.3339ZM82.483 6.76804C88.7822 6.76804 93.9086 11.9161 93.9086 18.2435C93.9086 24.5701 88.7824 29.7182 82.483 29.7182C76.1835 29.7182 71.0581 24.5701 71.0581 18.2435C71.0597 11.9163 76.1835 6.76804 82.483 6.76804ZM22.5119 31.3339C29.6993 31.3339 35.5467 25.4613 35.5467 18.2421C35.5467 11.0229 29.6993 5.14948 22.5119 5.14948C15.3245 5.15028 9.47708 11.0235 9.47708 18.2429C9.47708 25.4605 15.3245 31.3339 22.5119 31.3339ZM22.5119 6.76804C28.8112 6.76804 33.9367 11.9161 33.9367 18.2435C33.9367 24.5701 28.8114 29.7182 22.5119 29.7182C16.2126 29.7174 11.0871 24.5693 11.0871 18.2435C11.0871 11.9163 16.2124 6.76804 22.5119 6.76804ZM87.4652 31.4694H77.4978C74.8033 31.4694 72.0155 32.1929 69.5213 33.5254C66.2096 30.7484 61.985 29.1625 57.8291 29.1625H47.1637C43.0078 29.1625 38.7816 30.7484 35.4715 33.5262C32.9767 32.1938 30.1887 31.4694 27.495 31.4694H17.5276C9.48097 31.4694 0.998047 37.9981 0.998047 46.8007V66H103.998V46.8007C103.998 38.6334 96.273 31.4694 87.4652 31.4694ZM85.7538 33.0865L82.4692 37.1206L79.1839 33.0865H85.7538ZM56.1322 30.7805L52.4993 35.2427L48.8641 30.7805H56.1322ZM25.7971 33.0865L22.5125 37.1206L19.2271 33.0865H25.7971ZM12.1242 64.3837V45.8212H10.5142V64.3821L2.60801 64.3829V46.8015C2.60801 38.0317 11.9684 32.935 17.1545 33.097L21.1243 37.9685L16.6513 58.7518L22.1394 64.382H12.1242V64.3837ZM18.4061 58.2434L22.5125 39.1661L26.6206 58.2434L22.5141 62.4563L18.4061 58.2434ZM29.5322 64.3837H22.8879L28.3767 58.7535L23.9021 37.9701C24.6815 37.0124 27.0932 34.0508 27.872 33.0956C30.0145 33.1533 32.1853 33.7028 34.2017 34.6983C31.1845 37.7464 29.533 41.5477 29.533 45.516L29.5322 64.3837ZM41.2676 64.3837V44.3236H39.6576V64.3837H31.1414L31.1422 45.5132C31.1422 35.4335 42.0136 30.5035 46.79 30.7907L51.072 36.0472L46.286 58.2844L52.2324 64.3839L41.2676 64.3837ZM48.0422 57.7739L52.4984 37.0748L56.9538 57.7739L52.4984 62.3462L48.0422 57.7739ZM73.853 64.3837H65.28V44.3236H63.67V64.3837H52.7642L58.7106 58.2842L53.9238 36.045C54.744 35.0375 57.3793 31.7992 58.2028 30.7893C66.5825 30.9866 73.8539 37.78 73.8539 45.5118L73.853 64.3837ZM75.463 64.3837V45.5132C75.463 41.5459 73.8107 37.7436 70.7927 34.6946C72.8036 33.7024 74.9687 33.1529 77.1073 33.0927L81.0788 37.9673L76.6042 58.7506L82.0923 64.3809L75.463 64.3817V64.3837ZM78.362 58.2434L82.4676 39.1669L86.5757 58.2434L82.4692 62.4563L78.362 58.2434ZM102.388 64.3837H94.5283V45.8212H92.9183V64.3821H82.844L88.332 58.7518L83.8574 37.9685C84.636 37.0115 87.0438 34.0556 87.8248 33.097C95.6233 33.2871 102.388 39.6072 102.388 46.8032V64.3837ZM52.4939 28.9056C60.155 28.9056 66.3856 22.6466 66.3856 14.9524C66.3856 7.25902 60.1542 1 52.4939 1C44.8337 1 38.6023 7.25902 38.6023 14.9524C38.6023 22.6466 44.8345 28.9056 52.4939 28.9056ZM52.4939 2.61691C59.2661 2.61691 64.7756 8.15085 64.7756 14.9522C64.7756 21.7544 59.2661 27.2883 52.4939 27.2883C45.7218 27.2883 40.2123 21.7544 40.2123 14.9522C40.2123 8.15085 45.7218 2.61691 52.4939 2.61691Z" stroke="#6A398E" stroke-width="0.6" mask="url(#path-2-outside-1_802_2844)"/>
</g>
</svg>
