<svg width="61" height="65" viewBox="0 0 61 65" fill="none" xmlns="http://www.w3.org/2000/svg">
<path fill-rule="evenodd" clip-rule="evenodd" d="M6.09337 0.0025788C7.21528 0.0025788 8.12433 0.911574 8.12433 2.03353L8.12748 28.7855C10.4929 29.6227 12.1868 31.8792 12.1868 34.5312C12.1868 37.1832 10.4929 39.4397 8.12748 40.2768L8.12433 62.9666C8.12433 64.0885 7.21533 64.9982 6.09337 64.9982C4.97141 64.9982 4.06242 64.0886 4.06242 62.9666L4.06368 40.2768C1.69633 39.4409 0 37.1832 0 34.5299C0 31.8766 1.69649 29.6189 4.06368 28.783L4.06242 2.03095C4.06242 0.909042 4.97141 0 6.09337 0V0.0025788ZM22.3423 0.0025788C23.4642 0.0025788 24.3732 0.911574 24.3732 2.03353L24.3764 49.0983C26.7418 49.9355 28.4357 52.192 28.4357 54.8439C28.4357 57.4959 26.7418 59.7525 24.3764 60.5896L24.3732 62.9682C24.3732 64.0902 23.4642 64.9998 22.3423 64.9998C21.2204 64.9998 20.3113 64.0902 20.3113 62.9682L20.3126 60.5909C17.9452 59.755 16.2489 57.4972 16.2489 54.8439C16.2489 52.19 17.9454 49.933 20.3126 49.0964L20.3113 2.03321C20.3113 0.9113 21.2203 0.00225645 22.3423 0.00225645V0.0025788ZM38.5912 0.0025788C39.7131 0.0025788 40.6228 0.911574 40.6228 2.03353L40.6253 8.47456C42.9907 9.31174 44.6846 11.5682 44.6846 14.2202C44.6846 16.8722 42.9907 19.1288 40.6253 19.9659L40.6228 62.9684C40.6228 64.0903 39.7132 65 38.5912 65C37.4693 65 36.5602 64.0904 36.5602 62.9684L36.5615 19.9691C34.1942 19.1325 32.4978 16.8754 32.4978 14.2215C32.4978 11.5682 34.1943 9.31055 36.5615 8.47456L36.5602 2.03466C36.5602 0.91275 37.4692 0.00370825 38.5912 0.00370825V0.0025788ZM54.8401 0.0025788C55.962 0.0025788 56.8717 0.911574 56.8717 2.03353L56.8742 20.6611C59.2396 21.4989 60.9335 23.7548 60.9335 26.4067C60.9335 29.0594 59.2396 31.3153 56.8742 32.153L56.8717 62.9673C56.8717 64.0892 55.9621 64.9989 54.8401 64.9989C53.7181 64.9989 52.8092 64.0893 52.8092 62.9673L52.8104 32.1547C50.4431 31.3181 48.7467 29.061 48.7467 26.4071C48.7467 23.7538 50.4432 21.4961 52.8104 20.6601L52.8092 2.03418C52.8092 0.912267 53.7181 0.0032235 54.8401 0.0032235V0.0025788ZM22.3423 52.8115C21.2204 52.8115 20.3113 53.7212 20.3113 54.8431C20.3113 55.9651 21.2203 56.8741 22.3423 56.8741C23.4642 56.8741 24.3732 55.9651 24.3732 54.8431C24.3732 53.7212 23.4642 52.8115 22.3423 52.8115ZM6.09337 32.5004C4.97146 32.5004 4.06242 33.4094 4.06242 34.5314C4.06242 35.6533 4.97141 36.5623 6.09337 36.5623C7.21533 36.5623 8.12433 35.6533 8.12433 34.5314C8.12433 33.4094 7.21533 32.5004 6.09337 32.5004ZM54.8417 24.3755C53.7198 24.3755 52.8108 25.2851 52.8108 26.4064C52.8108 27.5283 53.7198 28.438 54.8417 28.438C55.9637 28.438 56.8733 27.5284 56.8733 26.4064C56.8733 25.2851 55.9637 24.3755 54.8417 24.3755ZM38.5928 12.1888C37.4709 12.1888 36.5619 13.0978 36.5619 14.2197C36.5619 15.3417 37.4709 16.2513 38.5928 16.2513C39.7147 16.2513 40.6244 15.3417 40.6244 14.2197C40.6244 13.0978 39.7148 12.1888 38.5928 12.1888Z" fill="#6A398E"/>
</svg>
