<svg width="65" height="65" viewBox="0 0 65 65" fill="none" xmlns="http://www.w3.org/2000/svg">
<mask id="mask0_802_2889" style="mask-type:luminance" maskUnits="userSpaceOnUse" x="0" y="0" width="65" height="65">
<path d="M0 0H65V65H0V0Z" fill="white"/>
</mask>
<g mask="url(#mask0_802_2889)">
<path d="M62.4557 47.1384C62.1775 45.6269 61.4764 44.2254 60.4337 43.0965C59.391 41.9676 58.0495 41.1573 56.5648 40.7602L48.3586 38.2414C48.154 38.193 47.9408 38.193 47.7357 38.2414V35.4252C49.1559 34.6471 50.3407 33.5005 51.1652 32.1065C51.9897 30.7125 52.4237 29.1225 52.4212 27.5032V25.9999H52.6243C53.3928 25.9999 54.1301 25.6945 54.6734 25.1512C55.2172 24.6079 55.5221 23.8706 55.5221 23.102V20.3937C55.5221 15.4916 52.8138 12.2686 48.7513 12.2686H47.6814H47.6819C47.634 12.2691 47.5937 12.2343 47.5871 12.1874C47.5624 11.4627 47.258 10.7759 46.7379 10.2709C46.2178 9.76592 45.5224 9.48217 44.7971 9.47915H40.6268V8.125H41.981C42.3398 8.125 42.6845 7.98237 42.938 7.72837C43.192 7.47436 43.3346 7.13016 43.3346 6.77082V1.35418C43.3346 0.994837 43.192 0.650633 42.938 0.396624C42.6845 0.142616 42.3398 0 41.981 0H1.35611C0.608217 0 0.00195312 0.606276 0.00195312 1.35416V6.77081C0.00195312 7.13015 0.14458 7.47435 0.398575 7.72836C0.652571 7.98237 0.996789 8.12498 1.35613 8.12498H2.71029V32.5001C2.71029 32.859 2.85292 33.2037 3.10691 33.4577C3.36091 33.7117 3.70512 33.8543 4.06446 33.8543H14.8979V36.3188L10.9165 46.9219C10.7895 47.2596 10.8027 47.6335 10.9528 47.9616C11.1025 48.2897 11.3772 48.5442 11.7154 48.6687C11.8676 48.7241 12.0278 48.7513 12.1896 48.7498C12.7561 48.7519 13.2641 48.4006 13.4626 47.8699L17.1864 37.9169H20.3146V44.8772C20.3146 45.6251 20.9209 46.2314 21.6687 46.2314C22.4166 46.2314 23.0229 45.6251 23.0229 44.8772V37.9169H26.1238L27.5727 41.9794C27.5903 42.0182 27.613 42.0545 27.6402 42.0872C25.9162 43.2564 24.7389 45.0737 24.377 47.125L21.6687 63.4288C21.6062 63.7887 21.6919 64.1586 21.906 64.4544C22.1202 64.7502 22.4448 64.9468 22.8061 64.9997H23.0229C23.6936 65.0083 24.2697 64.5245 24.377 63.8622L26.8823 48.3299L28.2364 53.8549C28.3942 54.4687 28.9571 54.8906 29.5906 54.8709H31.3918L31.5137 58.622H31.5132C31.5274 59.1138 31.8071 59.5598 32.2445 59.7861L42.076 64.8506H42.6994L42.6989 64.8511C42.8153 64.8697 42.9342 64.8697 43.0507 64.8511C43.1409 64.8586 43.2316 64.8586 43.3218 64.8511C43.4518 64.8445 43.5798 64.8173 43.7008 64.7694C43.8394 64.8223 43.986 64.8501 44.1342 64.8511C44.3499 64.8465 44.5626 64.7956 44.7571 64.7019L54.1683 59.9489C54.6017 59.7246 54.8809 59.2852 54.8995 58.7978L55.0215 55.2091H56.6871C57.3246 55.2277 57.8886 54.7994 58.0413 54.18L59.7478 47.3144C59.7538 47.3955 59.7538 47.4771 59.7478 47.5583L62.2666 63.8079C62.3502 64.5019 62.9484 65.0185 63.6474 64.9993H63.8505C64.2119 64.9494 64.5374 64.7559 64.7536 64.4631C64.9704 64.1698 65.0601 63.8019 65.0016 63.4421L62.4557 47.1384ZM54.0867 42.8319L44.6886 57.8766V43.766L47.3969 40.7598C47.4493 40.7814 47.4992 40.8092 47.5461 40.8409L54.0867 42.8319ZM39.273 40.9768L41.9813 43.9421V59.4203L33.1789 42.7771L39.273 40.9768ZM45.0278 36.5625V39.2708L43.2538 41.2615L41.4663 39.2708V36.5625H45.0278ZM49.7132 27.503C49.7132 29.7815 48.4976 31.887 46.524 33.0265C44.551 34.166 42.1192 34.166 40.1462 33.0265C38.1726 31.887 36.957 29.7815 36.957 27.503V25.9997H44.8789C45.2725 26.0033 45.648 25.8349 45.908 25.5396L47.2622 24.0363L47.804 25.2146C48.0257 25.6944 48.507 26.0013 49.0362 25.9998H49.7674L49.7132 27.503ZM44.879 12.2816C44.8826 13.0225 45.1794 13.732 45.7045 14.2552C46.2302 14.7778 46.9408 15.0711 47.6821 15.0711H48.7515C52.4214 15.0711 52.814 18.8222 52.814 20.4878V23.1961C52.8075 23.2979 52.7263 23.379 52.6245 23.3856H49.8351L48.7515 21.0023C48.557 20.588 48.1659 20.3002 47.7123 20.2372C47.2588 20.1742 46.8042 20.3451 46.5038 20.6908L44.2697 23.2908H34.032C33.9347 23.2908 33.8561 23.2121 33.8561 23.1149V17.6034C33.8561 14.7192 37.5799 12.1867 40.6269 12.1867H44.7978H44.7973C44.8446 12.1933 44.8794 12.2341 44.8789 12.2815L44.879 12.2816ZM2.70987 2.70767H40.6266V5.41599H2.70987V2.70767ZM5.41819 8.12431H37.9188V9.89829C34.3844 10.9546 31.148 13.9608 31.148 17.5491V23.115C31.1516 23.8791 31.4565 24.6103 31.9967 25.1505C32.537 25.6907 33.2682 25.9957 34.0322 25.9992H34.2489V27.5025C34.2444 28.7574 34.5075 29.9997 35.0205 31.1452H5.41888L5.41819 8.12431ZM25.7306 35.2075H17.6055V33.8534H25.7306V35.2075ZM28.4389 36.3314V33.8534H36.8618C37.4263 34.4224 38.0638 34.9137 38.7572 35.3159V38.3084L30.4562 40.7593L30.05 40.9084L28.4389 36.3314ZM34.0451 53.4752C34.0451 53.1158 33.9025 52.7716 33.6485 52.5176C33.3945 52.2636 33.0498 52.121 32.6909 52.121H30.6327L28.7368 44.6864C29.2821 44.2338 29.894 43.8684 30.5511 43.6034L39.4749 60.4762L34.1802 57.7679L34.0451 53.4752ZM55.7122 52.5H53.7215C52.9736 52.5 52.3673 53.1062 52.3673 53.8541L52.2317 57.9166L45.7452 61.2887L56.7142 43.6844C57.071 43.8552 57.4112 44.0593 57.7297 44.2937C57.6884 44.3632 57.6521 44.4358 57.6213 44.5104L55.7122 52.5Z" fill="#6A398E"/>
</g>
</svg>
