<svg width="55" height="55" viewBox="0 0 55 55" fill="none" xmlns="http://www.w3.org/2000/svg">
<path d="M37.3217 33.3934C46.0003 33.3934 53.036 26.3579 53.036 17.6791C53.036 9.00036 46.0003 1.96484 37.3217 1.96484C28.6429 1.96484 21.6074 9.00036 21.6074 17.6791C21.6074 26.3579 28.6429 33.3934 37.3217 33.3934Z" stroke="#8860A4" stroke-width="3" stroke-linecap="round" stroke-linejoin="round"/>
<path d="M36 19.8571V12" stroke="#8860A4" stroke-width="3" stroke-linecap="round" stroke-linejoin="round"/>
<path d="M36.6775 20L44.5347 20" stroke="#8860A4" stroke-width="3" stroke-linecap="round" stroke-linejoin="round"/>
<path d="M1.96484 43.2148L11.5652 51.215C12.9773 52.392 14.7572 53.0363 16.5952 53.0363H41.9055C43.7134 53.0363 45.1791 51.5705 45.1791 49.7626C45.1791 46.1463 42.2476 43.2148 38.6315 43.2148H21.0353" stroke="#8860A4" stroke-width="3" stroke-linecap="round" stroke-linejoin="round"/>
<path d="M13.7506 39.2863L16.697 42.2327C18.3242 43.8599 20.9626 43.8599 22.5898 42.2327C24.2171 40.6055 24.2171 37.9671 22.5898 36.3398L18.0162 31.7662C16.5426 30.2926 14.5442 29.4648 12.4603 29.4648H1.96484" stroke="#8860A4" stroke-width="3" stroke-linecap="round" stroke-linejoin="round"/>
</svg>
