<svg width="46" height="38" viewBox="0 0 46 38" fill="none" xmlns="http://www.w3.org/2000/svg">
<path d="M11.7938 38.0001C7.91036 38.0001 4.9773 36.798 2.98775 34.3869C0.994772 31.9792 -5.02566e-06 28.6324 -4.27151e-06 24.3358C-3.51735e-06 20.0392 0.71446 16.7974 2.14338 13.9727C3.57231 11.1445 5.33283 8.78947 7.42836 6.90752C9.52047 5.02206 11.616 3.53261 13.7081 2.43218C15.8002 1.33174 17.5607 0.522185 18.9931 3.30802e-06L20.8322 3.92513C19.0956 4.65758 17.2565 5.65288 15.3182 6.90752C13.3765 8.16215 11.7185 9.91795 10.3409 12.1679C8.96325 14.4213 8.27272 17.5334 8.27272 21.5111C9.08974 21.094 9.85548 20.8312 10.5699 20.7261C11.2844 20.6244 12.0501 20.5683 12.8672 20.5683C15.8276 20.5683 17.9983 21.4059 19.3759 23.0811C20.7536 24.7563 21.4441 26.6943 21.4441 28.8917C21.4441 31.4045 20.6032 33.5528 18.9179 35.3296C17.2326 37.1099 14.8601 38.0001 11.7972 38.0001L11.7938 38.0001ZM35.8257 38.0001C31.9423 38.0001 29.0092 36.798 27.0197 34.3869C25.0267 31.9792 24.0319 28.6324 24.0319 24.3358C24.0319 20.0392 24.7464 16.7974 26.1753 13.9727C27.6042 11.1446 29.3647 8.78948 31.4603 6.90752C33.5524 5.02206 35.6479 3.53262 37.74 2.43218C39.8321 1.33174 41.5927 0.522189 43.025 7.49366e-06L44.8641 3.92513C43.1276 4.65759 41.2884 5.65288 39.3501 6.90752C37.4084 8.16216 35.7505 9.91795 34.3728 12.1679C32.9952 14.4213 32.3046 17.5334 32.3046 21.5111C33.1217 21.094 33.8874 20.8312 34.6019 20.7261C35.3163 20.6244 36.0821 20.5684 36.8991 20.5684C39.8595 20.5684 42.0302 21.4059 43.4079 23.0811C44.7855 24.7563 45.476 26.6943 45.476 28.8917C45.476 31.4045 44.6351 33.5528 42.9498 35.3296C41.2645 37.1099 38.892 38.0001 35.8257 38.0001Z" fill="#4DCFC3"/>
</svg>
