<svg width="60" height="60" viewBox="0 0 60 60" fill="none" xmlns="http://www.w3.org/2000/svg">
<path d="M25.0367 47.2403C24.2493 49.8157 21.843 51.7342 17.8846 52.9429C17.7581 52.9815 17.6299 53 17.5041 53C16.9467 53 16.4311 52.6391 16.2598 52.0781C16.0499 51.3906 16.437 50.6632 17.1244 50.4533C20.204 49.513 22.0285 48.176 22.5473 46.4794C22.7575 45.7921 23.4851 45.4049 24.1724 45.6152C24.86 45.8255 25.2468 46.553 25.0367 47.2403ZM18.6847 45.9413C18.6847 45.2224 18.1021 44.6398 17.3832 44.6398C14.603 44.6398 12.3411 42.3778 12.3411 39.5975V27.0823C12.3411 25.1928 12.7011 23.3509 13.4111 21.6082C13.6822 20.9426 13.3625 20.1831 12.6969 19.9119C12.0311 19.6406 11.2719 19.9605 11.0006 20.6262C10.163 22.6822 9.73828 24.8544 9.73828 27.0823V39.5975C9.73828 43.8131 13.1679 47.2428 17.3834 47.2428C18.1021 47.2428 18.6847 46.6602 18.6847 45.9413ZM37.9032 30.3278C37.9032 28.3081 37.5806 26.4451 36.9445 24.7901C36.9268 24.7416 36.9062 24.6937 36.8824 24.6467C36.7986 24.4803 36.6826 24.3386 36.5451 24.2262C36.4373 24.138 36.3176 24.069 36.1908 24.02C35.9607 23.9308 35.7045 23.9063 35.4521 23.96C35.3515 23.9811 35.2523 24.0145 35.1568 24.0606C35.0832 24.0959 35.0141 24.1376 34.9502 24.1844C33.0488 25.5001 30.1503 26.2577 26.9908 26.2638C26.272 26.2652 25.6905 26.849 25.6919 27.5679C25.6934 28.2859 26.2757 28.8668 26.9934 28.8668C26.9943 28.8668 26.9952 28.8668 26.996 28.8668C29.9575 28.861 32.7644 28.2582 34.9596 27.1821C35.1862 28.1576 35.3006 29.2101 35.3006 30.3278C35.3006 34.2538 33.2895 37.8648 30.0521 39.7516C28.7918 40.4863 27.8385 40.8149 26.9616 40.8168C26.0847 40.8147 25.1314 40.4862 23.8707 39.7514C20.6336 37.8647 18.6227 34.2536 18.6227 30.3276C18.6227 29.2108 18.7368 28.159 18.963 27.1844C19.2036 27.3028 19.4514 27.4156 19.7061 27.5223L19.8365 27.577C20.7094 27.9437 21.3399 28.2089 22.0656 27.8993C22.7779 27.5955 23.0214 26.9612 23.3036 26.2268C23.3634 26.071 23.4315 25.8936 23.5124 25.6933C23.8558 24.8427 24.2346 23.7912 24.3745 23.2994C24.5712 22.608 24.1704 21.8882 23.479 21.6914C22.7873 21.4945 22.0677 21.8957 21.8709 22.5869C21.7687 22.946 21.434 23.8881 21.0986 24.7188C21.0265 24.8972 20.9639 25.0586 20.9081 25.2038C20.887 25.1948 20.8659 25.186 20.8449 25.1772L20.7122 25.1214C20.065 24.8502 19.4799 24.535 18.9725 24.1839C18.9096 24.1377 18.8419 24.0968 18.7698 24.0619C18.6724 24.0147 18.5712 23.9805 18.4684 23.9591C18.2166 23.9062 17.9618 23.9306 17.7323 24.0196C17.6029 24.0696 17.4807 24.1405 17.3712 24.2313C17.2378 24.3418 17.125 24.48 17.0427 24.642C17.0178 24.6904 16.9963 24.7402 16.978 24.7903C16.3422 26.445 16.0197 28.3078 16.0197 30.3275C16.0197 35.1761 18.5258 39.6489 22.5601 42.0002C24.2401 42.9794 25.5968 43.4171 26.9586 43.4196C26.9596 43.4196 26.9606 43.4196 26.9616 43.4196H26.9618C26.9628 43.4196 26.9638 43.4196 26.9648 43.4196C28.3267 43.4171 29.6833 42.9794 31.363 42.0002C35.397 39.6492 37.9032 35.1765 37.9032 30.3278ZM36.7218 50.4533C33.6422 49.5132 31.8175 48.176 31.2988 46.4792C31.0886 45.7921 30.3618 45.4049 29.6736 45.6152C28.9863 45.8253 28.5995 46.553 28.8096 47.2403C29.597 49.8157 32.0033 51.7342 35.9617 52.9427C36.0882 52.9813 36.2164 52.9999 36.3422 52.9999C36.8997 52.9999 37.4153 52.6389 37.5866 52.078C37.7964 51.3906 37.4093 50.6632 36.7218 50.4533ZM44.1845 27.0824V39.5977C44.1845 43.8132 40.755 47.2429 36.5393 47.2429C35.8204 47.2429 35.2378 46.6603 35.2378 45.9414C35.2378 45.2226 35.8204 44.6399 36.5393 44.6399C39.3196 44.6399 41.5815 42.378 41.5815 39.5977V27.0824C41.5815 19.4782 35.7451 13.2113 28.3166 12.525L28.5967 14.5774C28.6859 15.2313 28.2715 15.8485 27.6326 16.0135L18.2983 18.4236C17.6593 18.5885 16.9978 18.2491 16.7594 17.6337L12.6125 6.93434C12.4381 6.48446 12.5271 5.97485 12.8435 5.61058C13.1599 5.24616 13.6517 5.08724 14.122 5.19656L16.7872 5.81867L18.1889 2.75945C18.3504 2.40689 18.6609 2.14471 19.0355 2.04435C19.4102 1.94385 19.8101 2.01615 20.1262 2.24088L22.8868 4.20381L24.8882 2.41369C25.2468 2.0928 25.7537 1.99591 26.2055 2.16236C26.6574 2.32866 26.9803 2.73082 27.0455 3.20774L27.957 9.88814C36.9926 10.4051 44.1845 17.9196 44.1845 27.0824ZM25.8611 13.7825L24.7977 5.98715L23.8474 6.83702C23.3944 7.2425 22.7209 7.27981 22.2255 6.92769L19.8999 5.27393L18.7103 7.87011C18.4525 8.43279 17.8341 8.73604 17.2312 8.59533L15.9302 8.29165L18.7682 15.614L25.8611 13.7825Z" fill="#00BAAA"/>
</svg>
