<svg width="232" height="193" viewBox="0 0 232 193" fill="none" xmlns="http://www.w3.org/2000/svg">
<path d="M203.519 168.193L205.027 166.878L204.429 166.193L203.519 166.193L203.519 168.193ZM222.588 190.06L221.08 191.374L221.678 192.06L222.588 192.06L222.588 190.06ZM229.979 190.06L229.979 192.06L231.979 192.06L231.979 190.06L229.979 190.06ZM229.979 153.984L227.982 153.88L227.979 153.932L227.979 153.984L229.979 153.984ZM230 153.193L228 153.193L230 153.193ZM230 17L232 17L230 17ZM4.57812 17C4.57812 9.82029 10.3984 4 17.5781 4L17.5781 1.31134e-06C8.18929 4.90543e-07 0.578125 7.61115 0.578124 17L4.57812 17ZM4.57811 153.193L4.57812 17L0.578124 17L0.578112 153.193L4.57811 153.193ZM17.5781 166.193C10.3984 166.193 4.57811 160.372 4.57811 153.193L0.578112 153.193C0.578111 162.582 8.18925 170.193 17.5781 170.193L17.5781 166.193ZM203.519 166.193L17.5781 166.193L17.5781 170.193L203.519 170.193L203.519 166.193ZM224.095 188.745L205.027 166.878L202.012 169.507L221.08 191.374L224.095 188.745ZM229.979 188.06L222.588 188.06L222.588 192.06L229.979 192.06L229.979 188.06ZM227.979 153.984L227.979 190.06L231.979 190.06L231.979 153.984L227.979 153.984ZM228 153.193C228 153.423 227.994 153.653 227.982 153.88L231.977 154.087C231.992 153.791 232 153.493 232 153.193L228 153.193ZM228 17L228 153.193L232 153.193L232 17L228 17ZM215 4.00002C222.18 4.00002 228 9.82032 228 17L232 17C232 7.61118 224.389 1.93913e-05 215 1.85705e-05L215 4.00002ZM17.5781 4L215 4.00002L215 1.85705e-05L17.5781 1.31134e-06L17.5781 4Z" fill="#4CCFC3"/>
</svg>
