<svg width="60" height="60" viewBox="0 0 60 60" fill="none" xmlns="http://www.w3.org/2000/svg">
<g clip-path="url(#clip0_198_1585)">
<path d="M59.2778 21.143L32.7264 8.92105C31.8652 8.52438 30.9478 8.32422 30 8.32422C29.0522 8.32422 28.1351 8.52438 27.2736 8.92105L0.722227 21.143C0.283359 21.3459 0 21.788 0 22.2712C0 22.7543 0.283359 23.1965 0.722227 23.3993L27.2736 35.6213C28.1348 36.018 29.0522 36.2191 30 36.2191C30.9478 36.2191 31.8652 36.018 32.7266 35.6213L53.6811 25.9761V35.6887C52.8496 35.7824 52.2011 36.4902 52.2011 37.3455C52.2011 38.0907 52.6942 38.7358 53.3971 38.9413L51.98 48.2918H58.5046L57.0878 38.9413C57.7904 38.7358 58.2836 38.0907 58.2836 37.3455C58.2836 36.4902 57.635 35.7824 56.8035 35.6887V24.5385L59.278 23.3993C59.7168 23.1965 60.0002 22.7543 60.0002 22.2712C60.0002 21.788 59.7166 21.3459 59.2778 21.143Z" fill="#4DCFC3"/>
<path d="M30.0008 40.645C28.6829 40.645 27.4059 40.3648 26.2056 39.8125L13.2188 33.834V45.7447C13.2188 48.3596 21.1202 51.6768 30.0008 51.6768C38.8815 51.6768 46.7831 48.3595 46.7831 45.7447V33.834L33.7956 39.8125C32.5959 40.3648 31.3192 40.645 30.0008 40.645Z" fill="#4DCFC3"/>
</g>
<defs>
<clipPath id="clip0_198_1585">
<rect width="60" height="60" fill="white"/>
</clipPath>
</defs>
</svg>
