<svg width="51" height="51" viewBox="0 0 51 51" fill="none" xmlns="http://www.w3.org/2000/svg">
<path d="M43.3894 0H22.7827C20.4137 0 18.4863 1.92821 18.4863 4.29825V15.5689C18.4863 17.9388 20.4137 19.8668 22.7827 19.8668H24.9125V23.1883C24.9125 23.895 25.3382 24.5319 25.9909 24.8021C26.2071 24.8916 26.4337 24.935 26.6589 24.935C27.1136 24.935 27.5607 24.7573 27.8949 24.4228L32.4468 19.867H43.3894C45.7584 19.867 47.686 17.9388 47.686 15.5691V4.29825C47.6858 1.92821 45.7584 0 43.3894 0ZM44.1924 15.5689C44.1924 16.0049 43.8246 16.3734 43.3894 16.3734H31.723C31.2595 16.3734 30.8149 16.5577 30.4873 16.8855L28.4061 18.9687V18.1203C28.4061 17.1556 27.6239 16.3734 26.6594 16.3734H22.7829C22.3477 16.3734 21.9799 16.0049 21.9799 15.5689V4.29825C21.9799 3.86192 22.3477 3.49324 22.7829 3.49324H43.3896C43.8247 3.49324 44.1926 3.86175 44.1926 4.29825V15.5689H44.1924Z" fill="#00BAAA"/>
<path d="M16.3608 37.547C20.3934 36.9249 23.4908 33.4287 23.4908 29.2215C23.4908 24.5762 19.7146 20.7969 15.0729 20.7969C10.4309 20.7969 6.65412 24.5762 6.65412 29.2215C6.65412 33.4284 9.75207 36.9247 13.7848 37.547C10.8116 37.8046 8.20353 38.9591 6.34417 40.8622C4.28528 42.9699 3.23901 45.8861 3.31869 49.2959C3.34084 50.2447 4.11614 51.0019 5.06488 51.0019H25.0795C26.0283 51.0019 26.8038 50.2445 26.8257 49.2959C26.9049 45.8856 25.8583 42.969 23.799 40.8615C21.9402 38.9587 19.333 37.8048 16.3608 37.547ZM10.1475 29.2215C10.1475 26.5025 12.357 24.2905 15.0731 24.2905C17.7884 24.2905 19.9977 26.5025 19.9977 29.2215C19.9977 31.9403 17.7886 34.1522 15.0731 34.1522C12.357 34.1522 10.1475 31.9403 10.1475 29.2215ZM6.89796 47.5085C7.12411 45.8063 7.77526 44.3967 8.84317 43.3035C10.3036 41.8087 12.5159 40.9853 15.0726 40.9853C17.6284 40.9853 19.8401 41.8084 21.3002 43.3026C22.3683 44.3958 23.0198 45.8059 23.2461 47.5085H6.89796Z" fill="#00BAAA"/>
</svg>
