<svg width="73" height="73" viewBox="0 0 73 73" fill="none" xmlns="http://www.w3.org/2000/svg">
<path d="M1.7381 38.2381C1.27712 38.2381 0.835032 38.055 0.509076 37.729C0.18312 37.4031 0 36.961 0 36.5V3.47619C0.000920281 2.55453 0.367456 1.67088 1.01917 1.01917C1.67088 0.367456 2.55453 0.000920281 3.47619 0H34.7619C35.6836 0.000920281 36.5672 0.367456 37.2189 1.01917C37.8706 1.67088 38.2372 2.55453 38.2381 3.47619V27.8095C38.2372 28.7312 37.8706 29.6148 37.2189 30.2665C36.5672 30.9183 35.6836 31.2848 34.7619 31.2857H9.41005L2.96693 37.7288C2.80563 37.8903 2.61407 38.0184 2.40321 38.1058C2.19236 38.1932 1.96634 38.2381 1.7381 38.2381ZM34.7619 3.47271L3.47619 3.47619V32.3042L7.46164 28.3188C7.78752 27.9928 8.22954 27.8096 8.69048 27.8095H34.7619V3.47271Z" fill="#A588BA"/>
<path fill-rule="evenodd" clip-rule="evenodd" d="M71.2617 72.9998C71.0335 72.9999 70.8075 72.9549 70.5966 72.8675C70.3857 72.7801 70.1942 72.652 70.0329 72.4906L63.5898 66.0474H38.2379C37.3162 66.0465 36.4326 65.68 35.7809 65.0283C35.1292 64.3765 34.7626 63.4929 34.7617 62.5712V38.2379C34.7626 37.3162 35.1292 36.4326 35.7809 35.7809C36.4326 35.1292 37.3162 34.7626 38.2379 34.7617H69.5236C70.4453 34.7626 71.3289 35.1292 71.9806 35.7809C72.6324 36.4326 72.9989 37.3162 72.9998 38.2379V71.2617C72.9998 71.7227 72.8167 72.1648 72.4907 72.4907C72.1648 72.8167 71.7227 72.9998 71.2617 72.9998ZM38.2383 38.2383V62.5716H64.3097C64.7706 62.5717 65.2127 62.7549 65.5385 63.0809L69.524 67.0663V38.2383H38.2383Z" fill="#4CCFC3"/>
<path d="M13.9023 24.3344C13.4627 24.334 13.0397 24.167 12.7183 23.8671C12.397 23.5673 12.2011 23.1568 12.1703 22.7183C12.1395 22.2799 12.2759 21.846 12.5521 21.5041C12.8283 21.1622 13.2238 20.9376 13.6589 20.8756C15.9175 20.5466 18.0105 19.5004 19.6293 17.8913C20.7517 16.7682 21.6056 15.4057 22.1269 13.9059H13.9057C13.4448 13.9059 13.0027 13.7228 12.6767 13.3968C12.3508 13.0708 12.1676 12.6288 12.1676 12.1678C12.1676 11.7068 12.3508 11.2647 12.6767 10.9388C13.0027 10.6128 13.4448 10.4297 13.9057 10.4297H24.3343C24.5833 10.4297 24.8293 10.4832 25.0558 10.5865C25.2823 10.6899 25.484 10.8407 25.6471 11.0287C25.8103 11.2167 25.9311 11.4376 26.0015 11.6764C26.0719 11.9152 26.0901 12.1664 26.055 12.4129C25.6263 15.4178 24.2343 18.2025 22.0881 20.349C19.942 22.4955 17.1574 23.8879 14.1526 24.3171C14.0702 24.3288 13.9854 24.3346 13.9023 24.3344Z" fill="#A588BA"/>
<path d="M17.8918 13.3964C18.2177 13.7224 18.6598 13.9055 19.1208 13.9055C19.5818 13.9055 20.0239 13.7224 20.3498 13.3964C20.6758 13.0705 20.8589 12.6284 20.8589 12.1674V8.69122C20.8589 8.23025 20.6758 7.78816 20.3498 7.4622C20.0239 7.13625 19.5818 6.95312 19.1208 6.95312C18.6598 6.95312 18.2177 7.13625 17.8918 7.4622C17.5658 7.78816 17.3827 8.23025 17.3827 8.69122V12.1674C17.3827 12.6284 17.5658 13.0705 17.8918 13.3964Z" fill="#A588BA"/>
<path d="M25.9359 24.3289C25.9834 24.3323 26.0297 24.3341 26.0749 24.3341C26.529 24.3412 26.9678 24.1704 27.2976 23.8581C27.6273 23.5459 27.8217 23.1169 27.8392 22.6631C27.8567 22.2093 27.6958 21.7667 27.3911 21.43C27.0864 21.0933 26.662 20.8892 26.2088 20.8614C24.7232 20.7481 23.2844 20.2901 22.0067 19.5237C20.729 18.7574 19.6475 17.7038 18.8479 16.4466C18.5999 16.058 18.2077 15.7838 17.7576 15.6844C17.3074 15.585 16.8362 15.6685 16.4476 15.9165C16.059 16.1645 15.7849 16.5567 15.6854 17.0068C15.586 17.457 15.6695 17.9282 15.9175 18.3168C17.0068 20.0272 18.479 21.4608 20.2177 22.5042C21.9565 23.5477 23.9141 24.1723 25.9359 24.3289Z" fill="#A588BA"/>
<path d="M46.9278 59.0946C46.6318 59.0942 46.3408 59.0181 46.0824 58.8737C45.824 58.7293 45.6068 58.5213 45.4514 58.2694C45.2959 58.0175 45.2074 57.73 45.1941 57.4343C45.1809 57.1386 45.2434 56.8444 45.3757 56.5796L52.3281 42.6748C52.5425 42.2773 52.9032 41.9788 53.3338 41.8426C53.7645 41.7064 54.2312 41.7432 54.6352 41.9452C55.0392 42.1472 55.3487 42.4985 55.4981 42.9248C55.6476 43.351 55.6252 43.8187 55.4358 44.2287L48.4834 58.1335C48.3392 58.4221 48.1174 58.6649 47.843 58.8347C47.5685 59.0045 47.2505 59.0945 46.9278 59.0946Z" fill="#4CCFC3"/>
<path d="M60.8352 59.0985C60.5122 59.0987 60.1955 59.0088 59.9208 58.8391C59.646 58.6693 59.424 58.4263 59.2796 58.1374L52.3272 44.2326C52.1378 43.8226 52.1154 43.3549 52.2649 42.9287C52.4143 42.5024 52.7238 42.1511 53.1278 41.9491C53.5318 41.7471 53.9985 41.7103 54.4292 41.8465C54.8598 41.9827 55.2205 42.2812 55.4349 42.6788L62.3873 56.5835C62.5196 56.8482 62.5821 57.1422 62.5689 57.4378C62.5557 57.7333 62.4673 58.0207 62.3121 58.2725C62.1568 58.5244 61.9399 58.7324 61.6817 58.877C61.4236 59.0215 61.131 59.0978 60.8352 59.0985Z" fill="#4CCFC3"/>
<path d="M59.9355 53.8238H47.8279C47.367 53.8238 46.9249 53.6407 46.5989 53.3148C46.273 52.9888 46.0898 52.5467 46.0898 52.0858C46.0898 51.6248 46.273 51.1827 46.5989 50.8567C46.9249 50.5308 47.367 50.3477 47.8279 50.3477H59.9355C60.3965 50.3477 60.8386 50.5308 61.1645 50.8567C61.4905 51.1827 61.6736 51.6248 61.6736 52.0858C61.6736 52.5467 61.4905 52.9888 61.1645 53.3148C60.8386 53.6407 60.3965 53.8238 59.9355 53.8238Z" fill="#4CCFC3"/>
<path d="M11.201 41.4231C11.4868 41.6141 11.8227 41.7161 12.1664 41.7162C12.3947 41.7164 12.6208 41.6715 12.8317 41.5842C13.0425 41.4968 13.2341 41.3686 13.3953 41.2069L16.8715 37.7307C17.1881 37.4029 17.3633 36.9639 17.3593 36.5082C17.3553 36.0524 17.1725 35.6165 16.8503 35.2942C16.528 34.972 16.0921 34.7892 15.6364 34.7852C15.1806 34.7813 14.7416 34.9565 14.4138 35.2731L10.9376 38.7493C10.6946 38.9923 10.5291 39.302 10.4621 39.6391C10.3951 39.9762 10.4295 40.3256 10.561 40.6432C10.6925 40.9607 10.9152 41.2322 11.201 41.4231Z" fill="#A588BA"/>
<path d="M19.1177 41.7123C18.8895 41.7125 18.6634 41.6676 18.4525 41.5802C18.2416 41.4928 18.0501 41.3647 17.8889 41.203L14.4127 37.7268C14.0961 37.399 13.9209 36.96 13.9249 36.5042C13.9288 36.0485 14.1116 35.6126 14.4339 35.2903C14.7561 34.9681 15.1921 34.7853 15.6478 34.7813C16.1035 34.7774 16.5426 34.9525 16.8704 35.2692L20.3466 38.7453C20.5896 38.9884 20.755 39.2981 20.8221 39.6352C20.8891 39.9723 20.8547 40.3217 20.7232 40.6393C20.5917 40.9568 20.3689 41.2282 20.0832 41.4192C19.7974 41.6102 19.4614 41.7122 19.1177 41.7123Z" fill="#A588BA"/>
<path d="M29.5472 55.6189H17.3805C16.4588 55.6179 15.5752 55.2514 14.9235 54.5997C14.2718 53.948 13.9052 53.0643 13.9043 52.1427V36.4998C13.9043 36.0388 14.0874 35.5967 14.4134 35.2708C14.7393 34.9448 15.1814 34.7617 15.6424 34.7617C16.1034 34.7617 16.5455 34.9448 16.8714 35.2708C17.1974 35.5967 17.3805 36.0388 17.3805 36.4998V52.1427H29.5472C30.0081 52.1427 30.4502 52.3258 30.7762 52.6517C31.1021 52.9777 31.2852 53.4198 31.2852 53.8808C31.2852 54.3417 31.1021 54.7838 30.7762 55.1098C30.4502 55.4357 30.0081 55.6189 29.5472 55.6189Z" fill="#A588BA"/>
<path d="M56.3914 30.9935C56.6772 31.1844 57.0132 31.2864 57.3569 31.2865C57.5851 31.2867 57.8112 31.2419 58.0221 31.1545C58.233 31.0671 58.4245 30.9389 58.5857 30.7772L62.0619 27.301C62.3785 26.9732 62.5537 26.5342 62.5497 26.0785C62.5458 25.6227 62.363 25.1868 62.0407 24.8645C61.7185 24.5423 61.2825 24.3595 60.8268 24.3555C60.3711 24.3516 59.932 24.5268 59.6042 24.8434L56.128 28.3196C55.885 28.5626 55.7196 28.8723 55.6525 29.2094C55.5855 29.5465 55.6199 29.8959 55.7514 30.2135C55.8829 30.531 56.1057 30.8025 56.3914 30.9935Z" fill="#A588BA"/>
<path d="M57.357 31.2865C57.1287 31.2867 56.9026 31.2419 56.6918 31.1545C56.4809 31.0671 56.2893 30.9389 56.1282 30.7772L52.652 27.301C52.3354 26.9732 52.1602 26.5342 52.1641 26.0785C52.1681 25.6227 52.3509 25.1868 52.6731 24.8645C52.9954 24.5423 53.4313 24.3595 53.8871 24.3555C54.3428 24.3516 54.7818 24.5268 55.1096 24.8434L58.5858 28.3196C58.8288 28.5626 58.9943 28.8723 59.0613 29.2094C59.1284 29.5465 59.094 29.8959 58.9624 30.2135C58.8309 30.531 58.6082 30.8025 58.3224 30.9935C58.0367 31.1844 57.7007 31.2864 57.357 31.2865Z" fill="#A588BA"/>
<path d="M57.3577 31.2868C56.8967 31.2868 56.4546 31.1037 56.1287 30.7778C55.8027 30.4518 55.6196 30.0097 55.6196 29.5487V13.9059H43.4529C42.992 13.9059 42.5499 13.7228 42.2239 13.3968C41.898 13.0708 41.7148 12.6288 41.7148 12.1678C41.7148 11.7068 41.898 11.2647 42.2239 10.9388C42.5499 10.6128 42.992 10.4297 43.4529 10.4297H55.6196C56.5413 10.4306 57.4249 10.7971 58.0766 11.4489C58.7283 12.1006 59.0949 12.9842 59.0958 13.9059V29.5487C59.0958 30.0097 58.9127 30.4518 58.5867 30.7778C58.2608 31.1037 57.8187 31.2868 57.3577 31.2868Z" fill="#A588BA"/>
</svg>
