<svg width="84" height="77" viewBox="0 0 84 77" fill="none" xmlns="http://www.w3.org/2000/svg">
<path d="M31.042 46.4786C40.2869 46.4786 47.7813 38.9841 47.7813 29.7393C47.7813 20.4944 40.2869 13 31.042 13C21.7972 13 14.3027 20.4944 14.3027 29.7393C14.3027 38.9841 21.7972 46.4786 31.042 46.4786Z" stroke="#34C8BB" stroke-width="8" stroke-linecap="round" stroke-linejoin="round"/>
<path d="M52.1221 36.4789C61.3669 36.4789 68.8614 28.9844 68.8614 19.7396C68.8614 10.4947 51.0791 -5.00096 37.0791 13.9998" stroke="#34C8BB" stroke-width="8" stroke-linecap="round" stroke-linejoin="round"/>
<path d="M4 72.2313C4 59.3549 14.3011 46.4785 31.0404 46.4785C47.7797 46.4785 58.0808 59.3549 58.0808 72.2313" stroke="#34C8BB" stroke-width="8" stroke-linecap="round" stroke-linejoin="round"/>
<path d="M52.1201 36.4785C68.8594 36.4785 79.1605 49.3549 79.1605 62.2313" stroke="#34C8BB" stroke-width="8" stroke-linecap="round" stroke-linejoin="round"/>
</svg>
