<svg width="51" height="61" viewBox="0 0 51 61" fill="none" xmlns="http://www.w3.org/2000/svg">
<path d="M19.4683 15.1641H19.0129C20.3961 13.554 21.2386 11.4691 21.2386 9.18646C21.2386 4.12118 17.1174 0 12.0529 0C6.98845 0 2.86726 4.12118 2.86726 9.18646C2.86726 11.4691 3.70972 13.5532 5.0913 15.1641H4.63674C2.07929 15.1641 0 17.2426 0 19.8009V35.0366C0 37.5948 2.08011 39.6733 4.63674 39.6733H4.8132V56.3394C4.8132 58.983 6.20617 60.9761 8.0529 60.9761H16.0505C17.898 60.9761 19.2902 58.983 19.2902 56.3394V39.6733H19.4675C22.0249 39.6733 24.105 37.594 24.105 35.0366V19.8009C24.1058 17.2418 22.0257 15.1641 19.4683 15.1641ZM12.0529 3.2088C15.3479 3.2088 18.029 5.88984 18.029 9.18728C18.029 12.4839 15.3479 15.1649 12.0529 15.1649C8.75711 15.1649 6.07687 12.4839 6.07687 9.18728C6.07769 5.88903 8.75711 3.2088 12.0529 3.2088ZM20.897 35.0366C20.897 35.8245 20.2563 36.4645 19.4691 36.4645H17.6874C16.8011 36.4645 16.0822 37.1842 16.0822 38.0705V56.3402C16.0822 57.0582 15.8976 57.5494 15.7708 57.7681H8.33588C8.20903 57.5494 8.02362 57.0582 8.02362 56.3402V38.0705C8.02362 37.1842 7.30559 36.4645 6.41922 36.4645H4.63755C3.8504 36.4645 3.20961 35.8245 3.20961 35.0366V19.8009C3.20961 19.0129 3.8504 18.3721 4.63755 18.3721H19.4691C20.2563 18.3721 20.897 19.0129 20.897 19.8009V35.0366Z" fill="#00BAAA"/>
<path d="M46.3623 15.1641H45.9069C47.2902 13.554 48.1318 11.4691 48.1318 9.18646C48.1326 4.12118 44.0114 0 38.9461 0C33.8817 0 29.7613 4.12037 29.7613 9.18646C29.7613 11.4691 30.6038 13.5532 31.9862 15.1641H31.5308C28.9733 15.1641 26.894 17.2426 26.894 19.8009V35.0366C26.894 37.5948 28.9733 39.6733 31.5308 39.6733H31.7081V56.3394C31.7081 58.983 33.0994 60.9761 34.9469 60.9761H42.9454C44.7921 60.9761 46.1851 58.983 46.1851 56.3394V39.6733H46.3623C48.919 39.6733 50.9991 37.594 50.9991 35.0366V19.8009C50.9999 17.2418 48.9198 15.1641 46.3623 15.1641ZM38.9461 3.2088C42.242 3.2088 44.9222 5.88984 44.9222 9.18728C44.9222 12.4839 42.242 15.1649 38.9461 15.1649C35.6511 15.1649 32.9709 12.4839 32.9709 9.18728C32.9709 5.88903 35.6511 3.2088 38.9461 3.2088ZM47.7903 35.0366C47.7903 35.8245 47.1495 36.4645 46.3631 36.4645H44.5807C43.6943 36.4645 42.9763 37.1842 42.9763 38.0705V56.3402C42.9763 57.0582 42.7917 57.5494 42.6648 57.7681H35.2283C35.1023 57.5494 34.9177 57.0582 34.9177 56.3402V38.0705C34.9177 37.1842 34.1996 36.4645 33.3125 36.4645H31.5308C30.7436 36.4645 30.1028 35.8245 30.1028 35.0366V19.8009C30.1028 19.0129 30.7436 18.3721 31.5308 18.3721H46.3623C47.1495 18.3721 47.7894 19.0129 47.7894 19.8009L47.7903 35.0366Z" fill="#00BAAA"/>
</svg>
