<svg width="44" height="56" viewBox="0 0 44 56" fill="none" xmlns="http://www.w3.org/2000/svg">
<path d="M39.6478 38.2265L30.9408 32.7042L34.2235 26.8319C34.9887 25.4606 35.3902 23.9242 35.3913 22.3628V13.0667C35.3913 9.60117 33.9804 6.27761 31.4691 3.82714C28.9577 1.37666 25.5516 0 22 0C18.4484 0 15.0423 1.37666 12.5309 3.82714C10.0196 6.27761 8.60871 9.60117 8.60871 13.0667V22.3628C8.6099 23.9243 9.01139 25.4607 9.77662 26.8321L13.0593 32.7042L4.35219 38.2265C3.01402 39.0718 1.91447 40.231 1.15414 41.5982C0.393822 42.9653 -0.0029908 44.4966 1.69721e-05 46.0521V56H44V46.0521C44.003 44.4966 43.6062 42.9653 42.8459 41.5982C42.0855 40.231 40.986 39.0718 39.6478 38.2265ZM40.1739 52.2667H3.8261V46.0521C3.82431 45.1188 4.06242 44.2 4.51863 43.3797C4.97485 42.5594 5.6346 41.8639 6.43752 41.3567L18.1144 33.9507L13.1356 25.0444C12.6764 24.2215 12.4355 23.2997 12.4348 22.3628V13.0667C12.4348 10.5913 13.4426 8.21734 15.2364 6.467C17.0302 4.71666 19.4631 3.73333 22 3.73333C24.5369 3.73333 26.9698 4.71666 28.7636 6.467C30.5574 8.21734 31.5652 10.5913 31.5652 13.0667V22.3628C31.5645 23.2996 31.3236 24.2215 30.8644 25.0442L25.8859 33.9508L37.5628 41.3567C38.3657 41.8639 39.0253 42.5595 39.4815 43.3798C39.9376 44.2 40.1757 45.1188 40.1739 46.0521V52.2667Z" fill="#00BAAA"/>
</svg>
