<svg width="71" height="71" viewBox="0 0 71 71" fill="none" xmlns="http://www.w3.org/2000/svg">
<circle cx="32.0574" cy="21.8228" r="7.72515" stroke="#8E669F" stroke-width="3"/>
<path d="M13.1663 42.102C16.7272 35.0832 23.9042 30.2871 32.1779 30.2871C40.6817 30.2871 47.5783 34.7177 51.3376 42.102" stroke="#8E669F" stroke-width="3"/>
<path d="M63.6409 30.5859L66.3209 33.2659L69.0009 30.5859" stroke="#8E669F" stroke-width="3" stroke-miterlimit="10" stroke-linecap="round" stroke-linejoin="round"/>
<path d="M40.4143 63.6406L37.7343 66.3206L40.4143 69.0006" stroke="#8E669F" stroke-width="3" stroke-miterlimit="10" stroke-linecap="round" stroke-linejoin="round"/>
<path d="M7.35962 41.3066L4.67961 38.6266L1.9996 41.3066" stroke="#8E669F" stroke-width="3" stroke-miterlimit="10" stroke-linecap="round" stroke-linejoin="round"/>
<path d="M29.6936 7.35937L32.3736 4.67937L29.6936 1.99936" stroke="#8E669F" stroke-width="3" stroke-miterlimit="10" stroke-linecap="round" stroke-linejoin="round"/>
<path d="M4.23462 31.3184C6.03023 17.2215 17.2059 6.03696 31.3117 4.23242" stroke="#8E669F" stroke-width="3" stroke-miterlimit="10" stroke-linecap="round"/>
<path d="M31.3117 66.4102C17.2059 64.6056 6.03023 53.4211 4.23462 39.3242" stroke="#8E669F" stroke-width="3" stroke-miterlimit="10" stroke-linecap="round"/>
<path d="M66.4015 39.3242C64.6059 53.43 53.4302 64.6056 39.3245 66.4102" stroke="#8E669F" stroke-width="3" stroke-miterlimit="10" stroke-linecap="round"/>
<path d="M39.3245 4.23242C53.4302 6.03696 64.6059 17.2126 66.4015 31.3184" stroke="#8E669F" stroke-width="3" stroke-miterlimit="10" stroke-linecap="round"/>
<ellipse cx="47.5966" cy="42.4788" rx="11.1667" ry="10.7014" fill="white" stroke="#00BAAA" stroke-width="3"/>
<path d="M48.3419 37.3613V43.6147H43.8752" stroke="#00BAAA" stroke-width="3" stroke-miterlimit="10" stroke-linecap="round" stroke-linejoin="round"/>
</svg>
