<svg width="81" height="80" viewBox="0 0 81 80" fill="none" xmlns="http://www.w3.org/2000/svg">
<path d="M27.9986 48.0016C31.1629 48.0016 34.2562 47.0633 36.8872 45.3053C39.5183 43.5473 41.5689 41.0486 42.7799 38.1251C43.9908 35.2016 44.3077 31.9847 43.6903 28.8812C43.073 25.7776 41.5492 22.9269 39.3117 20.6893C37.0742 18.4518 34.2234 16.928 31.1198 16.3107C28.0163 15.6934 24.7994 16.0102 21.8759 17.2212C18.9525 18.4321 16.4537 20.4827 14.6957 23.1138C12.9377 25.7449 11.9994 28.8381 11.9994 32.0025C11.9994 36.2457 13.685 40.3152 16.6854 43.3156C19.6859 46.316 23.7553 48.0016 27.9986 48.0016ZM27.9986 24.0029C29.5807 24.0029 31.1274 24.472 32.4429 25.3511C33.7584 26.2301 34.7837 27.4794 35.3892 28.9412C35.9947 30.4029 36.1531 32.0113 35.8444 33.5631C35.5358 35.1149 34.7739 36.5403 33.6551 37.659C32.5364 38.7778 31.111 39.5397 29.5592 39.8483C28.0074 40.157 26.399 39.9986 24.9373 39.3931C23.4755 38.7877 22.2262 37.7623 21.3471 36.4468C20.4681 35.1313 19.999 33.5846 19.999 32.0025C19.999 29.8808 20.8418 27.8461 22.342 26.3459C23.8422 24.8457 25.8769 24.0029 27.9986 24.0029ZM15.9992 52.0014H39.9979C44.2412 52.0014 48.3106 53.6871 51.3111 56.6875C54.3115 59.6879 55.9971 63.7574 55.9971 68.0006V76.0002C55.9971 77.061 55.5757 78.0784 54.8256 78.8285C54.0755 79.5786 53.0581 80 51.9973 80C50.9365 80 49.9192 79.5786 49.169 78.8285C48.4189 78.0784 47.9975 77.061 47.9975 76.0002V68.0006C47.9975 65.879 47.1547 63.8443 45.6545 62.3441C44.1543 60.8438 42.1196 60.001 39.9979 60.001H15.9992C13.8776 60.001 11.8428 60.8438 10.3426 62.3441C8.8424 63.8443 7.99959 65.879 7.99959 68.0006V76.0002C7.99959 77.061 7.57818 78.0784 6.82808 78.8285C6.07797 79.5786 5.06061 80 3.99979 80C2.93898 80 1.92162 79.5786 1.17151 78.8285C0.421406 78.0784 0 77.061 0 76.0002V68.0006C0 63.7574 1.68562 59.6879 4.68605 56.6875C7.68648 53.6871 11.7559 52.0014 15.9992 52.0014ZM61.8448 32.0025C61.8529 35.163 61.2342 38.2938 60.0245 41.2138C58.8148 44.1337 57.0381 46.7847 54.7972 49.0136C54.0428 49.7422 53.0325 50.1453 51.9837 50.1362C50.935 50.1271 49.9318 49.7065 49.1902 48.9649C48.4486 48.2233 48.028 47.2201 48.0188 46.1713C48.0097 45.1226 48.4129 44.1123 49.1415 43.3579C52.1531 40.3462 53.845 36.2616 53.845 32.0025C53.845 27.7434 52.1531 23.6587 49.1415 20.6471C48.7595 20.2781 48.4547 19.8367 48.2451 19.3487C48.0355 18.8607 47.9251 18.3359 47.9205 17.8048C47.9159 17.2737 48.0171 16.747 48.2182 16.2555C48.4193 15.7639 48.7163 15.3173 49.0919 14.9418C49.4674 14.5662 49.914 14.2692 50.4056 14.0681C50.8972 13.867 51.4238 13.7658 51.9549 13.7704C52.486 13.775 53.0109 13.8854 53.4989 14.095C53.9869 14.3046 54.4282 14.6093 54.7972 14.9913C57.0381 17.2202 58.8148 19.8713 60.0245 22.7912C61.2342 25.7111 61.8529 28.8419 61.8448 32.0025ZM61.1209 62.8009C60.3836 62.0382 59.9795 61.0138 59.9975 59.9531C60.0155 58.8925 60.4541 57.8824 61.2169 57.1452C64.6226 53.9069 67.3344 50.01 69.1874 45.6912C71.0404 41.3724 71.9959 36.722 71.9959 32.0225C71.9959 27.3229 71.0404 22.6725 69.1874 18.3537C67.3344 14.0349 64.6226 10.138 61.2169 6.89976C60.4515 6.15984 60.0114 5.14619 59.9934 4.08178C59.9754 3.01738 60.3809 1.98943 61.1209 1.22405C61.8608 0.458675 62.8744 0.0185773 63.9388 0.00057472C65.0032 -0.0174279 66.0312 0.388139 66.7966 1.12805C70.974 5.11238 74.2994 9.90301 76.5715 15.2099C78.8436 20.5168 80.0151 26.2296 80.0151 32.0025C80.0151 37.7753 78.8436 43.4881 76.5715 48.795C74.2994 54.1019 70.974 58.8926 66.7966 62.8769C66.0338 63.6141 65.0095 64.0182 63.9488 64.0002C62.8882 63.9822 61.8781 63.5436 61.1409 62.7809L61.1209 62.8009Z" fill="#00BAAA"/>
</svg>
