<svg width="84" height="84" viewBox="0 0 84 84" fill="none" xmlns="http://www.w3.org/2000/svg">
<path d="M42 0C65.1588 0 84 18.8415 84 42C84 65.1585 65.1588 84 42 84C18.8412 84 0 65.1585 0 42C0 18.8415 18.8412 0 42 0ZM5.47512 45.9861C5.48016 46.0226 5.48856 46.0577 5.49192 46.0942C5.63976 47.3736 5.8492 48.6337 6.12024 49.8742V49.8752H18.7891C18.2381 44.6396 18.2381 39.3607 18.7891 34.1252H6.12024V34.1262C5.84975 35.3652 5.64032 36.6252 5.49192 37.9062C5.48856 37.9426 5.48016 37.9777 5.47512 38.0142C5.17498 40.663 5.17498 43.3373 5.47512 45.9861ZM27.972 75.9528C24.0324 70.8488 21.047 63.63 19.5216 55.1245H7.71456C7.71464 55.1249 7.71484 55.1253 7.71513 55.1257C7.71543 55.126 7.71581 55.1262 7.71624 55.1263C9.50822 59.7874 12.2273 64.0364 15.709 67.6162C19.1907 71.196 23.3625 74.032 27.972 75.9528ZM7.71624 28.8726C7.71587 28.8727 7.71554 28.8729 7.71525 28.8731C7.71496 28.8734 7.71472 28.8737 7.71456 28.874H19.5216C21.047 20.3685 24.0324 13.1492 27.972 8.04569C23.3624 9.96655 19.1905 12.8028 15.7088 16.3827C12.2271 19.9627 9.50809 24.2119 7.71624 28.8732V28.8726ZM24.0828 34.1245C23.4713 39.3567 23.4713 44.6423 24.0828 49.8745H39.3758V34.1245H24.0828ZM39.3758 28.8745V5.68831C32.8322 7.66097 27.2966 16.806 24.9043 28.875H39.3758V28.8745ZM39.3758 55.1245H24.9043C27.2966 67.1935 32.8322 76.3384 39.3758 78.3112V55.125V55.1245ZM76.2838 55.1263C76.2839 55.126 76.2841 55.1257 76.2844 55.1255C76.2847 55.1252 76.2851 55.1251 76.2854 55.125H64.4784C62.953 63.6305 59.9676 70.8498 56.028 75.9533C60.6375 74.0325 64.8093 71.1965 68.291 67.6167C71.7727 64.0369 74.4918 59.7879 76.2838 55.1269V55.1263ZM56.028 8.0472C59.9676 13.1512 62.953 20.37 64.4784 28.8755H76.2854C76.2847 28.8751 76.2841 28.8744 76.2838 28.8737C74.4918 24.2126 71.7727 19.9636 68.291 16.3838C64.8093 12.804 60.6375 9.96795 56.028 8.0472ZM59.9172 49.8755C60.5287 44.6433 60.5287 39.3577 59.9172 34.1255H44.6258V49.8755H59.9172ZM44.6258 55.1255V78.3117C51.1678 76.3389 56.7034 67.194 59.0957 55.125H44.6258V55.1255ZM44.6258 28.8755H59.0957C56.7034 16.8066 51.1678 7.66164 44.6258 5.68882V28.875V28.8755ZM78.5232 38.0124C78.5198 37.9806 78.5131 37.9497 78.5098 37.9176C78.3636 36.6439 78.1534 35.3785 77.8798 34.126V34.125H65.2109C65.7642 39.3604 65.7642 44.6396 65.2109 49.875H77.8798V49.874C78.1534 48.6215 78.3636 47.3561 78.5098 46.0824C78.5131 46.0503 78.5198 46.0197 78.5232 45.9876C78.8256 43.3378 78.8256 40.6622 78.5232 38.0124Z" fill="#34C8BB"/>
</svg>
